<?xml version="1.0" encoding="UTF-8"?>
<!DOCTYPE svg PUBLIC "-//W3C//DTD SVG 1.1//EN"
    "http://www.w3.org/Graphics/SVG/1.1/DTD/svg11.dtd">

<svg viewBox="-1 -1 2 2" height="100px" width="100px" xmlns="http://www.w3.org/2000/svg" xmlns:xlink="http://www.w3.org/1999/xlink">
    <g fill="none" stroke="black" stroke-width="0.04">
        <g>
            <path d="M -0.3,0.35 L -0.3,0.5 A 0.3,0.18 0.0 0,0 0.3,0.5 L 0.3,0.35 M -0.3,0.19999999 L -0.3,0.35 A 0.3,0.18 0.0 0,0 0.3,0.35 L 0.3,0.19999999 M -0.3,4.9999982e-2 L -0.3,0.19999999 A 0.3,0.18 0.0 0,0 0.3,0.19999999 L 0.3,4.9999982e-2 M -0.3,-0.100000024 L -0.3,4.9999982e-2 A 0.3,0.18 0.0 0,0 0.3,4.9999982e-2 L 0.3,-0.100000024 M -0.3,-0.25000003 L -0.3,-0.100000024 A 0.3,0.18 0.0 0,0 0.3,-0.100000024 L 0.3,-0.25000003 M -0.3,-0.4 L -0.3,-0.25 A 0.3,0.18 0.0 0,0 0.3,-0.25 L 0.3,-0.4 M -0.3,-0.5500001 L -0.3,-0.40000004 A 0.3,0.18 0.0 0,0 0.3,-0.40000004 L 0.3,-0.5500001 M -0.3,-0.70000005 L -0.3,-0.5500001 A 0.3,0.18 0.0 0,0 0.3,-0.5500001 L 0.3,-0.70000005 A 0.3,0.18 0.0 0,1 -0.3,-0.70000005 A 0.3,0.18 0.0 0,1 0.3,-0.70000005 " />
            <ellipse cx="0.0" cy="-0.70000005" rx="0.3" ry="0.18" />
        </g>
        <g>
            <path d="M -0.90000004,0.4 L -0.90000004,0.55 A 0.3,0.18 0.0 0,0 -0.3,0.55 L -0.3,0.4 M -0.90000004,0.25 L -0.90000004,0.4 A 0.3,0.18 0.0 0,0 -0.3,0.4 L -0.3,0.25 M -0.90000004,9.9999994e-2 L -0.90000004,0.25 A 0.3,0.18 0.0 0,0 -0.3,0.25 L -0.3,9.9999994e-2 M -0.90000004,-5.0000012e-2 L -0.90000004,9.9999994e-2 A 0.3,0.18 0.0 0,0 -0.3,9.9999994e-2 L -0.3,-5.0000012e-2 M -0.90000004,-0.20000002 L -0.90000004,-5.0000012e-2 A 0.3,0.18 0.0 0,0 -0.3,-5.0000012e-2 L -0.3,-0.20000002 M -0.90000004,-0.35 L -0.90000004,-0.19999999 A 0.3,0.18 0.0 0,0 -0.3,-0.19999999 L -0.3,-0.35 A 0.3,0.18 0.0 0,1 -0.90000004,-0.35000002 A 0.3,0.18 0.0 0,1 -0.3,-0.35000002 " />
            <ellipse cx="-0.6" cy="-0.35000002" rx="0.3" ry="0.18" />
        </g>
        <g>
            <path d="M 0.3,0.4 L 0.3,0.55 A 0.3,0.18 0.0 0,0 0.90000004,0.55 L 0.90000004,0.4 M 0.3,0.25 L 0.3,0.4 A 0.3,0.18 0.0 0,0 0.90000004,0.4 L 0.90000004,0.25 M 0.3,9.9999994e-2 L 0.3,0.25 A 0.3,0.18 0.0 0,0 0.90000004,0.25 L 0.90000004,9.9999994e-2 M 0.3,-5.0000012e-2 L 0.3,9.9999994e-2 A 0.3,0.18 0.0 0,0 0.90000004,9.9999994e-2 L 0.90000004,-5.0000012e-2 A 0.3,0.18 0.0 0,1 0.3,-5.0000012e-2 A 0.3,0.18 0.0 0,1 0.90000004,-5.0000012e-2 " />
            <ellipse cx="0.6" cy="-5.0000012e-2" rx="0.3" ry="0.18" />
        </g>
        <g>
            <path d="M -0.6,0.6 L -0.6,0.75 A 0.3,0.18 0.0 0,0 0.0,0.75 L 0.0,0.6 M -0.6,0.45000002 L -0.6,0.6 A 0.3,0.18 0.0 0,0 0.0,0.6 L 0.0,0.45000002 A 0.3,0.18 0.0 0,1 -0.6,0.45 A 0.3,0.18 0.0 0,1 0.0,0.45 " />
            <ellipse cx="-0.3" cy="0.45" rx="0.3" ry="0.18" />
        </g>
        <g>
            <path d="M 0.0,0.6 L 0.0,0.75 A 0.3,0.18 0.0 0,0 0.6,0.75 L 0.6,0.6 M 0.0,0.45000002 L 0.0,0.6 A 0.3,0.18 0.0 0,0 0.6,0.6 L 0.6,0.45000002 M 0.0,0.29999998 L 0.0,0.45 A 0.3,0.18 0.0 0,0 0.6,0.45 L 0.6,0.29999998 M 0.0,0.14999998 L 0.0,0.29999998 A 0.3,0.18 0.0 0,0 0.6,0.29999998 L 0.6,0.14999998 M 0.0,-2.9802322e-8 L 0.0,0.14999998 A 0.3,0.18 0.0 0,0 0.6,0.14999998 L 0.6,-2.9802322e-8 M 0.0,-0.15 L 0.0,0.0 A 0.3,0.18 0.0 0,0 0.6,0.0 L 0.6,-0.15 A 0.3,0.18 0.0 0,1 0.0,-0.15000004 A 0.3,0.18 0.0 0,1 0.6,-0.15000004 " />
            <ellipse cx="0.3" cy="-0.15000004" rx="0.3" ry="0.18" />
        </g>
    </g>
</svg>
