<?xml version="1.0" encoding="UTF-8"?>
<!DOCTYPE svg PUBLIC "-//W3C//DTD SVG 1.1//EN"
    "http://www.w3.org/Graphics/SVG/1.1/DTD/svg11.dtd">

<svg viewBox="-1 -1 2 2" height="100px" width="100px" xmlns="http://www.w3.org/2000/svg" xmlns:xlink="http://www.w3.org/1999/xlink">
    <g class="HaskellSvgIcons__company" fill="silver" stroke="black" stroke-width="0.03">
        <path d="M -0.92,0.9 L -0.92,-0.75 L -0.72,-0.75 L -0.72,-0.9 L 0.0,-0.9 L 0.0,-0.75 L 0.22,-0.75 L 0.22,0.9 L -0.24,0.9 L -0.24,0.66 L -0.48,0.66 L -0.48,0.9 Z" />
        <path d="M -0.72,-0.6 L -0.72,0.8 M -0.48,-0.6 L -0.48,0.54 M -0.24,-0.6 L -0.24,0.54 M 0.0,-0.6 L 0.0,0.8 " stroke-dasharray="0.12 0.06" />
        <path d="M 0.22,-0.3 L 0.92,-0.3 L 0.92,0.9 L 0.22,0.9 Z" />
        <path d="M 0.395,-0.2 L 0.395,0.8 M 0.5700000000000001,-0.2 L 0.5700000000000001,0.8 M 0.745,-0.2 L 0.745,0.8 " stroke-dasharray="0.05" />
    </g>
</svg>
