<?xml version="1.0" encoding="UTF-8"?>
<!DOCTYPE svg PUBLIC "-//W3C//DTD SVG 1.1//EN"
    "http://www.w3.org/Graphics/SVG/1.1/DTD/svg11.dtd">

<svg viewBox="-1 -1 2 2" height="100px" width="100px" xmlns="http://www.w3.org/2000/svg" xmlns:xlink="http://www.w3.org/1999/xlink">
    <g class="HaskellSvgIcons__creditOut" fill="silver" stroke="black" stroke-width="0.03">
        <g class="HaskellSvgIcons__creditCard">
            <path fill="none" d="M 0.0,0.57474 L 0.8300000000000001,0.57474 A 0.1,0.1 0.0 0,0 0.93,0.47474000000000005 L 0.93,-0.47474000000000005 A 0.1,0.1 0.0 0,0 0.8300000000000001,-0.57474 L -0.8300000000000001,-0.57474 A 0.1,0.1 0.0 0,0 -0.93,-0.47474000000000005 L -0.93,0.47474000000000005 A 0.1,0.1 0.0 0,0 -0.8300000000000001,0.57474 Z" />
            <path d="M -0.93,-0.4 L 0.93,-0.4 L 0.93,-0.15 L -0.93,-0.15 Z" />
            <path fill="none" stroke-linejoin="round" d="M -0.7,6.237000000000001e-2 l 0.4854,0.0 l 0.0,0.3 l -0.4854,0.0 Zm 0.1618,0.0 l 0.0,0.3 m 0.0,-9.999999999999999e-2 l -0.1618,0.0 m 0.0,-9.999999999999999e-2 l 0.1618,0.0 m 0.1618,-9.999999999999999e-2 l 0.0,0.3 m 0.0,-9.999999999999999e-2 l 0.1618,0.0 m 0.0,-9.999999999999999e-2 l -0.1618,0.0 " />
        </g>
        <path class="HaskellSvgIcons__bigArrowRight" d="M -0.9,-0.2 L 0.4,-0.2 L 9.999999999999998e-2,-0.6 L 0.5,-0.6 L 0.9,0.0 L 0.5,0.6 L 9.999999999999998e-2,0.6 L 0.4,0.2 L -0.9,0.2 Z" stroke-linejoin="round" transform="translate(0.45 0.22)scale(0.25 0.25)" />
    </g>
</svg>
