<?xml version="1.0" encoding="UTF-8"?>
<!DOCTYPE svg PUBLIC "-//W3C//DTD SVG 1.1//EN"
    "http://www.w3.org/Graphics/SVG/1.1/DTD/svg11.dtd">

<svg viewBox="-1 -1 2 2" height="100px" width="100px" xmlns="http://www.w3.org/2000/svg" xmlns:xlink="http://www.w3.org/1999/xlink">
    <path d="M 0.4,0.0 A 0.4,0.4 0.0 1,0 -0.4,0.0 A 0.4,0.4 0.0 1,0 0.4,0.0 M 0.92481303,-0.16828781 L 0.92481303,-0.16828781 L 0.92481303,0.16828781 L 0.621422,0.22233929 A 0.66,0.66 0.0 0,1 0.50326246,0.4269976 L 0.60814804,0.7167677 L 0.31666493,0.88505554 L 0.11815946,0.6493369 A 0.66,0.66 0.0 0,1 -0.11815952,0.6493369 L -0.31666502,0.8850555 L -0.60814816,0.7167676 L -0.5032624,0.42699763 A 0.66,0.66 0.0 0,1 -0.621422,0.22233927 L -0.92481303,0.16828778 L -0.92481303,-0.16828793 L -0.62142193,-0.22233938 A 0.66,0.66 0.0 0,1 -0.50326234,-0.42699772 L -0.60814786,-0.71676785 L -0.31666508,-0.8850555 L -0.118159406,-0.6493369 A 0.66,0.66 0.0 0,1 0.11815942,-0.6493369 L 0.31666508,-0.8850555 L 0.60814786,-0.71676785 L 0.50326264,-0.42699736 A 0.66,0.66 0.0 0,1 0.621422,-0.22233921 Z" fill="black" stroke="none" stroke-width="0" />
</svg>
