<?xml version="1.0" encoding="UTF-8"?>
<!DOCTYPE svg PUBLIC "-//W3C//DTD SVG 1.1//EN"
    "http://www.w3.org/Graphics/SVG/1.1/DTD/svg11.dtd">

<svg viewBox="-1 -1 2 2" height="100px" width="100px" xmlns="http://www.w3.org/2000/svg" xmlns:xlink="http://www.w3.org/1999/xlink">
    <path class="HaskellSvgIcons__cogwheel" d="M 0.4,0.0 A 0.4,0.4 0.0 1,0 -0.4,0.0 A 0.4,0.4 0.0 1,0 0.4,0.0 M 0.9332401,-0.11252947 L 0.9332401,-0.11252947 L 0.9332401,0.11252947 L 0.6427601,0.14986481 A 0.66,0.66 0.0 0,1 0.58871406,0.29835516 L 0.7872359,0.51367265 L 0.64257085,0.6860778 L 0.39605156,0.5279614 A 0.66,0.66 0.0 0,1 0.25920212,0.6069714 L 0.27287528,0.8995216 L 5.1235467e-2,0.9386026 L -3.5973977e-2,0.65901893 A 0.66,0.66 0.0 0,1 -0.19159341,0.631579 L -0.36916673,0.86447436 L -0.56407344,0.75194496 L -0.45116693,0.48171404 A 0.66,0.66 0.0 0,1 -0.5527402,0.3606637 L -0.8384716,0.4249298 L -0.91544616,0.21344376 L -0.6552537,7.900993e-2 A 0.66,0.66 0.0 0,1 -0.6552537,-7.901004e-2 L -0.9154461,-0.21344414 L -0.8384715,-0.42493016 L -0.55274004,-0.36066392 A 0.66,0.66 0.0 0,1 -0.45116675,-0.48171422 L -0.56407326,-0.751945 L -0.36916667,-0.86447436 L -0.19159323,-0.63157904 A 0.66,0.66 0.0 0,1 -3.597394e-2,-0.65901893 L 5.1236082e-2,-0.93860257 L 0.27287564,-0.89952147 L 0.25920245,-0.60697126 A 0.66,0.66 0.0 0,1 0.39605173,-0.52796125 L 0.64257115,-0.6860775 L 0.7872361,-0.5136724 L 0.5887142,-0.29835495 A 0.66,0.66 0.0 0,1 0.64276016,-0.14986472 Z" fill="silver" stroke="black" stroke-width="0.03" />
</svg>
