<?xml version="1.0" encoding="UTF-8"?>
<!DOCTYPE svg PUBLIC "-//W3C//DTD SVG 1.1//EN"
    "http://www.w3.org/Graphics/SVG/1.1/DTD/svg11.dtd">

<svg viewBox="-1 -1 2 2" height="300px" width="300px" xmlns="http://www.w3.org/2000/svg" xmlns:xlink="http://www.w3.org/1999/xlink">
    <g fill="none" stroke="black" stroke-width="0.04">
        <path fill-rule="evenodd" d="M -0.2,-5.0e-3 A 0.25,0.25 0.0 1,0 -0.2,0.0 ZM 0.0,-0.1 A 0.45,0.45 0.0 1,0 0.0,0.1 L 0.4,0.1 L 0.4,0.3 A 0.1,0.1 0.0 1,0 0.6,0.3 L 0.6,0.1 L 0.7000000000000001,0.1 L 0.7000000000000001,0.3 A 0.1,0.1 0.0 1,0 0.9,0.3 L 0.9,-0.1 Z" transform="translate(-0.4 0.0)scale(0.6 0.6)" />
        <path d="M -0.9192388155425119,-0.9192388155425117 A 0.1,0.1 0.0 1,1 -1.0606601717798214,-1.0606601717798212 A 1.5,1.5 0.0 1,1 -1.0606601717798214,1.0606601717798212 A 0.1,0.1 0.0 1,1 -0.9192388155425119,0.9192388155425117 A 1.3,1.3 0.0 1,0 -0.9192388155425119,-0.9192388155425117 Z" transform="scale(0.6 0.6)" />
    </g>
</svg>
