<?xml version="1.0" encoding="UTF-8"?>
<!DOCTYPE svg PUBLIC "-//W3C//DTD SVG 1.1//EN"
    "http://www.w3.org/Graphics/SVG/1.1/DTD/svg11.dtd">

<svg viewBox="-1 -1 2 2" height="100px" width="100px" xmlns="http://www.w3.org/2000/svg" xmlns:xlink="http://www.w3.org/1999/xlink">
    <g class="HaskellSvgIcons__lock" fill="black" stroke="none" stroke-width="0">
        <path d="M -0.47000000000000003,-0.1 L -0.47000000000000003,-0.48 A 0.47000000000000003,0.47000000000000003 0.0 1,1 0.47000000000000003,-0.48 L 0.47000000000000003,-0.1 L 0.33,-0.1 L 0.33,-0.48 A 0.33,0.33 0.0 1,0 -0.33,-0.48 L -0.33,-0.1 Z" />
        <path fill-rule="evenodd" d="M -0.7,-0.1 L -0.7,0.95 L 0.7,0.95 L 0.7,-0.1 ZM -7.6e-2,0.4 L -7.6e-2,0.68 A 7.6e-2,7.6e-2 0.0 1,0 7.6e-2,0.68 L 7.6e-2,0.4 A 0.14,0.14 0.0 1,0 -7.6e-2,0.4 Z" />
    </g>
</svg>
