<?xml version="1.0" encoding="UTF-8"?>
<!DOCTYPE svg PUBLIC "-//W3C//DTD SVG 1.1//EN"
    "http://www.w3.org/Graphics/SVG/1.1/DTD/svg11.dtd">

<svg viewBox="-1 -1 2 2" height="100px" width="100px" xmlns="http://www.w3.org/2000/svg" xmlns:xlink="http://www.w3.org/1999/xlink">
    <g fill="black" stroke="none" stroke-width="0">
        <g transform="translate(0.4 -0.2)scale(0.8 0.8)">
            <path d="M 0.7,0.52 A 0.30000000000000004,0.30000000000000004 0.0 1,0 -0.7,0.52 A 0.30000000000000004,0.15 0.0 1,0 0.7,0.52 " />
            <circle cx="0" cy="-0.5" r="0.35" />
        </g>
        <g transform="translate(-0.4 -0.2)scale(0.8 0.8)">
            <path d="M 0.7,0.52 A 0.30000000000000004,0.30000000000000004 0.0 1,0 -0.7,0.52 A 0.30000000000000004,0.15 0.0 1,0 0.7,0.52 " />
            <circle cx="0" cy="-0.5" r="0.35" />
        </g>
        <g transform="translate(0.0 0.2)scale(0.9 0.9)">
            <path d="M 0.7,0.52 A 0.30000000000000004,0.30000000000000004 0.0 1,0 -0.7,0.52 A 0.30000000000000004,0.15 0.0 1,0 0.7,0.52 " />
            <circle cx="0" cy="-0.5" r="0.35" />
        </g>
    </g>
</svg>
