<?xml version="1.0" encoding="UTF-8"?>
<!DOCTYPE svg PUBLIC "-//W3C//DTD SVG 1.1//EN"
    "http://www.w3.org/Graphics/SVG/1.1/DTD/svg11.dtd">

<svg viewBox="0.15 0 0.85 1" height="300px" width="255.0px" xmlns="http://www.w3.org/2000/svg" xmlns:xlink="http://www.w3.org/1999/xlink">
    <defs>
        <path stroke-width="0.0" fill="gold" d="M 0.5,0.15 A 0.24,0.24 0.0 0,1 0.36733500838578403,0.3 A 0.24,0.24 0.0 0,0 0.3673350083857839,0.7 A 0.24,0.24 0.0 0,1 0.5,0.85 A 0.24,0.24 0.0 0,1 0.6326649916142161,0.7 A 0.24,0.24 0.0 0,0 0.632664991614216,0.3 A 0.24,0.24 0.0 0,1 0.5,0.15 Z" id="HaskellSvgIcons-lemonTile" />
    </defs>
    <use xlink:href="#HaskellSvgIcons-lemonTile" transform="rotate(29.0,0.5,0.5)" />
    <use xlink:href="#HaskellSvgIcons-lemonTile" transform="translate(0.0 -0.5)rotate(29.0,0.5,0.5)" />
    <use xlink:href="#HaskellSvgIcons-lemonTile" transform="translate(0.0 0.5)rotate(29.0,0.5,0.5)" />
    <use xlink:href="#HaskellSvgIcons-lemonTile" transform="translate(0.43 -0.25)rotate(-29.0,0.5,0.5)" />
    <use xlink:href="#HaskellSvgIcons-lemonTile" transform="translate(0.43 0.25)rotate(-29.0,0.5,0.5)" />
    <use xlink:href="#HaskellSvgIcons-lemonTile" transform="translate(0.43 0.75)rotate(-29.0,0.5,0.5)" />
    <use xlink:href="#HaskellSvgIcons-lemonTile" transform="translate(-0.43 -0.75)rotate(-29.0,0.5,0.5)" />
    <use xlink:href="#HaskellSvgIcons-lemonTile" transform="translate(-0.43 -0.25)rotate(-29.0,0.5,0.5)" />
    <use xlink:href="#HaskellSvgIcons-lemonTile" transform="translate(-0.43 0.25)rotate(-29.0,0.5,0.5)" />
</svg>
