<?xml version="1.0" encoding="UTF-8"?>
<!DOCTYPE svg PUBLIC "-//W3C//DTD SVG 1.1//EN"
    "http://www.w3.org/Graphics/SVG/1.1/DTD/svg11.dtd">

<svg class="HaskellSvgIcons__nazariMosaic" viewBox="-1 -1.7320508075688772 2 3.4641016151377544" width="300px" height="519.6152422706632px" xmlns="http://www.w3.org/2000/svg" xmlns:xlink="http://www.w3.org/1999/xlink">
    <defs>
        <path stroke-width="0" fill="orange" d="M 0.0,-1.7320508075688772 A 0.5773502691896257,0.5773502691896257 0.0 0,1 0.5,-0.8660254037844386 A 0.5773502691896257,0.5773502691896257 0.0 0,0 1.0,0.0 A 0.5773502691896257,0.5773502691896257 0.0 0,1 0.0,0.0 A 0.5773502691896257,0.5773502691896257 0.0 0,0 -1.0,0.0 A 0.5773502691896257,0.5773502691896257 0.0 0,1 -0.5,-0.8660254037844386 A 0.5773502691896257,0.5773502691896257 0.0 0,0 0.0,-1.7320508075688772 Z" id="HaskellSvgIcons-upperBirdie" />
        <path stroke-width="0" fill="purple" d="M 1.0,0.0 A 0.5773502691896257,0.5773502691896257 0.0 0,1 0.5,0.8660254037844386 A 0.5773502691896257,0.5773502691896257 0.0 0,0 0.0,1.7320508075688772 A 0.5773502691896257,0.5773502691896257 0.0 0,1 -0.5,0.8660254037844386 A 0.5773502691896257,0.5773502691896257 0.0 0,0 -1.0,0.0 A 0.5773502691896257,0.5773502691896257 0.0 0,1 0.0,0.0 A 0.5773502691896257,0.5773502691896257 0.0 0,0 1.0,0.0 Z" id="HaskellSvgIcons-lowerBirdie" />
    </defs>
    <use xlink:href="#HaskellSvgIcons-upperBirdie" />
    <use xlink:href="#HaskellSvgIcons-upperBirdie" transform="translate(2 0)" />
    <use xlink:href="#HaskellSvgIcons-upperBirdie" transform="translate(-1.0 1.7320508075688772)" />
    <use xlink:href="#HaskellSvgIcons-upperBirdie" transform="translate(1.0 1.7320508075688772)" />
    <use xlink:href="#HaskellSvgIcons-upperBirdie" transform="translate(-1.0 -1.7320508075688772)" />
    <use xlink:href="#HaskellSvgIcons-lowerBirdie" />
    <use xlink:href="#HaskellSvgIcons-lowerBirdie" transform="translate(-2 0)" />
    <use xlink:href="#HaskellSvgIcons-lowerBirdie" transform="translate(-1.0 -1.7320508075688772)" />
    <use xlink:href="#HaskellSvgIcons-lowerBirdie" transform="translate(1.0 -1.7320508075688772)" />
    <use xlink:href="#HaskellSvgIcons-lowerBirdie" transform="translate(1.0 1.7320508075688772)" />
</svg>
