<?xml version="1.0" encoding="UTF-8"?>
<!DOCTYPE svg PUBLIC "-//W3C//DTD SVG 1.1//EN"
    "http://www.w3.org/Graphics/SVG/1.1/DTD/svg11.dtd">

<svg viewBox="0 0 1 1" height="300px" width="300px" xmlns="http://www.w3.org/2000/svg" xmlns:xlink="http://www.w3.org/1999/xlink">
    <defs>
        <path fill="none" stroke-width="0.002" stroke="gray" d="M 0.49,0.0 L 0.49,0.5 M 0.48,0.0 L 0.48,0.5 M 0.47,0.0 L 0.47,0.5 M 0.435,0.0 L 0.435,7.0e-2 L 0.42,0.12 L 0.42,0.15 M 0.42,0.12 L 0.428,0.13 L 0.428,0.15 M 0.435,7.0e-2 L 0.45,0.12 L 0.45,0.22 M 0.45,0.12 L 0.44,0.15 L 0.44,0.18 M 0.4,0.0 L 0.4,0.15 L 0.45,0.3 L 0.45,0.5 M 0.39,0.0 L 0.39,0.15 L 0.44,0.3 L 0.44,0.5 M 0.38,0.0 L 0.38,0.15 L 0.43,0.3 L 0.43,0.5 M 0.0,2.5e-2 L 0.14,2.5e-2 L 0.18,4.5e-2 M 0.0,3.5e-2 L 0.14,3.5e-2 L 0.18,4.5e-2 M 0.0,4.5e-2 L 0.18,4.5e-2 M 0.0,5.5e-2 L 0.14,5.5e-2 L 0.18,4.5e-2 M 0.0,6.5e-2 L 0.14,6.5e-2 L 0.18,4.5e-2 M 0.0,0.125 L 0.14,0.125 L 0.18,0.145 M 0.0,0.135 L 0.14,0.135 L 0.18,0.145 M 0.0,0.145 L 0.18,0.145 M 0.0,0.155 L 0.14,0.155 L 0.18,0.145 M 0.0,0.165 L 0.14,0.165 L 0.18,0.145 M 0.0,0.225 L 0.14,0.225 L 0.18,0.245 M 0.0,0.235 L 0.14,0.235 L 0.18,0.245 M 0.0,0.245 L 0.18,0.245 M 0.0,0.255 L 0.14,0.255 L 0.18,0.245 M 0.0,0.265 L 0.14,0.265 L 0.18,0.245 M 0.18,4.5e-2 L 0.22,4.5e-2 L 0.27,9.5e-2 L 0.3,9.5e-2 L 0.3,0.3 L 0.4,0.35 L 0.4,0.5 M 0.18,0.145 L 0.22,0.145 L 0.25,0.175 L 0.28,0.175 L 0.28,0.3 L 0.38,0.35 L 0.38,0.5 M 0.18,0.245 L 0.22,0.245 L 0.23,0.255 L 0.26,0.255 L 0.26,0.3 L 0.36,0.35 L 0.36,0.5 M 0.5,0.0 L 0.35,0.0 M 0.25,0.0 L 0.25,5.0e-2 L 0.3,5.0e-2 M 0.35,0.0 L 0.35,5.0e-2 L 0.3,5.0e-2 L 0.3,7.0e-2 L 0.35,7.0e-2 L 0.35,0.25 L 0.33,0.23 L 0.33,0.21 M 0.33,0.23 L 0.31,0.23 M 0.35,0.25 L 0.38,0.25 M 0.35,0.25 L 0.32,0.27 L 0.32,0.29 L 0.34,0.3 M 0.35,0.25 L 0.35,0.27 L 0.34,0.28 M 0.35,0.27 L 0.36,0.28 L 0.36,0.3 M 0.35,0.25 L 0.38,0.27 L 0.38,0.29 L 0.415,0.31 L 0.415,0.5 M 0.35,0.25 L 0.37,0.23 L 0.37,0.21 M 0.37,0.23 L 0.39,0.23 M 0.0,0.49 L 1.0e-2,0.5 M 0.0,0.47 L 3.0e-2,0.5 M 0.0,0.45 L 5.0e-2,0.5 M 0.0,0.43 L 7.0e-2,0.5 M 0.0,0.4 L 4.142135623730951e-2,0.4 L 0.1,0.4585786437626905 L 0.1,0.5 M 0.0,0.38 L 4.970562748477141e-2,0.38 L 0.12,0.4502943725152286 L 0.12,0.5 M 0.0,0.36 L 5.7989898732233314e-2,0.36 L 0.14,0.4420101012677667 L 0.14,0.5 M 0.0,0.34 L 6.627416997969522e-2,0.34 L 0.16,0.4337258300203048 L 0.16,0.5 M 0.0,0.3 L 0.2,0.3 L 0.0,0.5 M 0.2,0.3 L 0.2,0.5 M 0.2,0.5 L 0.415,0.5 M 0.2,0.475 L 0.36,0.475 M 0.2,0.45 L 0.36,0.45 M 0.28,0.45 L 0.28,0.39 L 0.25,0.39 M 0.28,0.39 L 0.31,0.39 M 0.28,0.39 L 0.28,0.36 " id="HaskellSvgIcons-wireTile" />
    </defs>
    <use xlink:href="#HaskellSvgIcons-wireTile" />
    <use xlink:href="#HaskellSvgIcons-wireTile" transform="matrix(1,0,0,-1,0,1)" />
    <use xlink:href="#HaskellSvgIcons-wireTile" transform="matrix(-1,0,0,1,1,0)" />
    <use xlink:href="#HaskellSvgIcons-wireTile" transform="rotate(180.0,0.5,0.5)" />
</svg>
