<?xml version="1.0" encoding="UTF-8"?>
<!DOCTYPE svg PUBLIC "-//W3C//DTD SVG 1.1//EN"
    "http://www.w3.org/Graphics/SVG/1.1/DTD/svg11.dtd">

<svg viewBox="-1 -1 2 2" height="300px" width="300px" xmlns="http://www.w3.org/2000/svg" xmlns:xlink="http://www.w3.org/1999/xlink">
    <path d="M 5.0e-2,0.11666666666666665 L 0.95,0.11666666666666665 L 0.95,0.21666666666666667 L 5.0e-2,0.21666666666666667 Z" stroke="none" />
    <path d="M 0.25,0.2833333333333333 L 0.75,0.2833333333333333 L 0.75,0.3833333333333333 L 0.25,0.3833333333333333 Z" stroke="none" />
    <path d="M 5.0e-2,0.45 L 0.95,0.45 L 0.95,0.55 L 5.0e-2,0.55 Z" stroke="none" opacity="0.4" />
    <path d="M 0.25,0.6166666666666666 L 0.75,0.6166666666666666 L 0.75,0.7166666666666667 L 0.25,0.7166666666666667 Z" stroke="none" opacity="0.4" />
    <path d="M 5.0e-2,0.7833333333333332 L 0.95,0.7833333333333332 L 0.95,0.8833333333333333 L 5.0e-2,0.8833333333333333 Z" stroke="none" opacity="0.4" />
    <path fill="none" stroke="black" stroke-width="0.002" d="M -1.0,-1.0 L -1.0,1.0 L 1.0,1.0 L 1.0,-1.0 ZM 0.0,-1.0 L 0.0,1.0 M -1.0,0.0 L 1.0,0.0 " />
</svg>
