<?xml version="1.0" encoding="UTF-8"?>
<!DOCTYPE svg PUBLIC "-//W3C//DTD SVG 1.1//EN"
    "http://www.w3.org/Graphics/SVG/1.1/DTD/svg11.dtd">

<svg viewBox="-1 -1 2 2" height="300px" width="300px" xmlns="http://www.w3.org/2000/svg" xmlns:xlink="http://www.w3.org/1999/xlink">
    <path stroke="none" d="M 5.0e-2,0.116666675 L 0.95,0.116666675 L 0.95,0.21666667 L 5.0e-2,0.21666667 Z" opacity="0.4" />
    <path stroke="none" d="M 0.25,0.28333333 L 0.75,0.28333333 L 0.75,0.38333336 L 0.25,0.38333336 Z" opacity="0.4" />
    <rect x="5.0e-2" y="0.45" width="0.1" height="0.1" stroke="none" />
    <rect x="0.25" y="0.45" width="0.1" height="0.1" stroke="none" />
    <rect x="0.45" y="0.45" width="0.1" height="0.1" stroke="none" />
    <rect x="0.65" y="0.45" width="0.1" height="0.1" stroke="none" />
    <rect x="0.84999996" y="0.45" width="0.1" height="0.1" stroke="none" />
    <path stroke="none" d="M 0.25,0.6166667 L 0.75,0.6166667 L 0.75,0.7166667 L 0.25,0.7166667 Z" opacity="0.4" />
    <path stroke="none" d="M 5.0e-2,0.78333336 L 0.95,0.78333336 L 0.95,0.8833334 L 5.0e-2,0.8833334 Z" opacity="0.4" />
    <path fill="none" stroke="black" stroke-width="0.002" d="M -1.0,-1.0 L -1.0,1.0 L 1.0,1.0 L 1.0,-1.0 ZM 0.0,-1.0 L 0.0,1.0 M -1.0,0.0 L 1.0,0.0 " />
</svg>
