<?xml version="1.0" encoding="UTF-8"?>
<!DOCTYPE svg PUBLIC "-//W3C//DTD SVG 1.1//EN"
    "http://www.w3.org/Graphics/SVG/1.1/DTD/svg11.dtd">

<svg viewBox="-1 -1 2 2" height="300px" width="300px" xmlns="http://www.w3.org/2000/svg" xmlns:xlink="http://www.w3.org/1999/xlink">
    <g transform="rotate(45.0,0.5,0.5)" fill="none" stroke="black" stroke-width="4.0e-2">
        <path d="M 0.3,0.35 L 0.3,8.999999999999997e-2 A 0.2,0.2 0.0 1,1 0.7,8.999999999999997e-2 L 0.7,0.46 A 0.2,0.2 0.0 0,1 0.5,0.65 A 5.500000000000001e-2,5.500000000000001e-2 0.0 0,1 0.5,0.54 A 9.0e-2,9.0e-2 0.0 0,0 0.59,0.46 L 0.59,8.999999999999997e-2 A 9.0e-2,9.0e-2 0.0 1,0 0.41000000000000003,8.999999999999997e-2 L 0.41000000000000003,0.3 Z" stroke="none" />
        <path d="M 0.3,0.35 L 0.3,8.999999999999997e-2 A 0.2,0.2 0.0 1,1 0.7,8.999999999999997e-2 L 0.7,0.46 A 0.2,0.2 0.0 0,1 0.5,0.65 A 5.500000000000001e-2,5.500000000000001e-2 0.0 0,1 0.5,0.54 A 9.0e-2,9.0e-2 0.0 0,0 0.59,0.46 L 0.59,8.999999999999997e-2 A 9.0e-2,9.0e-2 0.0 1,0 0.41000000000000003,8.999999999999997e-2 L 0.41000000000000003,0.3 Z" stroke="none" transform="rotate(180,0,0)" />
    </g>
    <path fill="none" stroke="black" stroke-width="0.002" d="M -1.0,-1.0 L -1.0,1.0 L 1.0,1.0 L 1.0,-1.0 ZM 0.0,-1.0 L 0.0,1.0 M -1.0,0.0 L 1.0,0.0 " />
</svg>
