<?xml version="1.0" encoding="UTF-8"?>
<!DOCTYPE svg PUBLIC "-//W3C//DTD SVG 1.1//EN"
    "http://www.w3.org/Graphics/SVG/1.1/DTD/svg11.dtd">

<svg viewBox="-1 -1 2 2" height="300px" width="300px" xmlns="http://www.w3.org/2000/svg" xmlns:xlink="http://www.w3.org/1999/xlink">
    <path d="M 1.459999999999989e-2,0.5 C 1.459999999999989e-2,0.35 1.459999999999989e-2,0.22 0.12459999999999989 0.2S 0.2145999999999999,0.19 0.5,0.18000000000000002 L 0.51,0.51 Z" stroke="none" />
    <path d="M 1.459999999999989e-2,0.5 C 1.459999999999989e-2,0.35 1.459999999999989e-2,0.22 0.12459999999999989 0.2S 0.2145999999999999,0.19 0.5,0.18000000000000002 L 0.51,0.51 Z" stroke="none" transform="rotate(180,0,0)" />
    <g transform="matrix(-1,0,0,1,1,0)">
        <path d="M 1.459999999999989e-2,0.5 C 1.459999999999989e-2,0.35 1.459999999999989e-2,0.22 0.12459999999999989 0.2S 0.2145999999999999,0.19 0.5,0.18000000000000002 L 0.51,0.51 Z" stroke="none" />
        <path d="M 1.459999999999989e-2,0.5 C 1.459999999999989e-2,0.35 1.459999999999989e-2,0.22 0.12459999999999989 0.2S 0.2145999999999999,0.19 0.5,0.18000000000000002 L 0.51,0.51 Z" stroke="none" transform="rotate(180,0,0)" />
    </g>
    <polygon fill="#ffffff" points="0.41,0.37 0.41,0.63 0.6699999999999999,0.5" stroke="none" />
    <path fill="none" stroke="black" stroke-width="0.002" d="M -1.0,-1.0 L -1.0,1.0 L 1.0,1.0 L 1.0,-1.0 ZM 0.0,-1.0 L 0.0,1.0 M -1.0,0.0 L 1.0,0.0 " />
</svg>
