<?xml version="1.0" encoding="UTF-8"?>
<!DOCTYPE svg PUBLIC "-//W3C//DTD SVG 1.1//EN"
    "http://www.w3.org/Graphics/SVG/1.1/DTD/svg11.dtd">

<svg viewBox="-1 -1 2 2" height="100px" width="100px" xmlns="http://www.w3.org/2000/svg" xmlns:xlink="http://www.w3.org/1999/xlink">
    <g class="HaskellSvgIcons__starPolygonOverlap" fill="silver" stroke="black" stroke-width="0.03">
        <path class="HaskellSvgIcons__starPolygonWithBorder" d="M 0.0,-0.9 L 0.52900666,0.7281153 L -0.85595083,-0.2781154 L 0.8559509,-0.2781151 L -0.5290069,0.72811514 ZM 0.0,-0.59223163 L -0.34810516,0.47912535 L 0.5632458,-0.18300952 L -0.5632457,-0.18300971 L 0.34810498,0.4791255 Z" stroke="none" />
        <g>
            <path d="M 0.0,-0.9 L -0.52900666,0.7281153 L -0.34810495,0.47912544 L 0.0,-0.5922316 Z" stroke="none" />
            <path d="M 0.0,-0.9 L -0.52900666,0.7281153 M -0.34810495,0.47912544 L 0.0,-0.5922316 " stroke-linecap="round" />
        </g>
        <g>
            <path d="M -0.8559509,-0.27811527 L 0.52900684,0.7281152 L 0.34810504,0.47912538 L -0.5632457,-0.18300961 Z" stroke="none" />
            <path d="M -0.8559509,-0.27811527 L 0.52900684,0.7281152 M 0.34810504,0.47912538 L -0.5632457,-0.18300961 " stroke-linecap="round" />
        </g>
        <g>
            <path d="M -0.52900666,0.7281153 L 0.85595083,-0.2781154 L 0.56324565,-0.1830097 L -0.34810495,0.47912544 Z" stroke="none" />
            <path d="M -0.52900666,0.7281153 L 0.85595083,-0.2781154 M 0.56324565,-0.1830097 L -0.34810495,0.47912544 " stroke-linecap="round" />
        </g>
        <g>
            <path d="M 0.52900684,0.7281152 L -1.57361e-7,-0.9 L -1.03549056e-7,-0.5922316 L 0.34810504,0.47912538 Z" stroke="none" />
            <path d="M 0.52900684,0.7281152 L -1.57361e-7,-0.9 M -1.03549056e-7,-0.5922316 L 0.34810504,0.47912538 " stroke-linecap="round" />
        </g>
        <g>
            <path d="M 0.85595083,-0.2781154 L -0.8559509,-0.2781151 L -0.5632458,-0.1830095 L 0.56324565,-0.1830097 Z" stroke="none" />
            <path d="M 0.85595083,-0.2781154 L -0.8559509,-0.2781151 M -0.5632458,-0.1830095 L 0.56324565,-0.1830097 " stroke-linecap="round" />
        </g>
        <g>
            <path stroke="none" d="M 0.0,-0.9 L -0.26450336,-8.594234e-2 L -0.17405249,-5.6553077e-2 L 0.0,-0.5922316 Z" />
            <path stroke-linecap="round" d="M 0.0,-0.9 L -0.26450336,-8.594234e-2 M -0.17405249,-5.6553077e-2 L 0.0,-0.5922316 " />
        </g>
    </g>
</svg>
