<?xml version="1.0" encoding="UTF-8"?>
<!DOCTYPE svg PUBLIC "-//W3C//DTD SVG 1.1//EN"
    "http://www.w3.org/Graphics/SVG/1.1/DTD/svg11.dtd">

<svg viewBox="0 0 1000 700" width="300" height="210" xmlns="http://www.w3.org/2000/svg" xmlns:xlink="http://www.w3.org/1999/xlink">
    <rect x="0.0" y="0.0" width="320.0" height="700.0" stroke="none" fill="#10069F" />
    <rect x="320.0" y="0.0" width="360.0" height="700.0" stroke="none" fill="#FEDD00" />
    <rect x="680.0" y="0.0" width="320.0" height="700.0" stroke="none" fill="#D50032" />
    <g>
        <path fill="#C6AA76" d="M469.3,188.4c12.0,0,16.9,10.3,29.0,10.3  c7.4,0,11.7-2.4,18.2-6.0c4.5-2.5,7.4-3.9,12.6-3.9  c5.3,0,8.5,1.6,11.3,6.1c1.5,2.5,2.8,7.6,2.1,10.5  c-0.9,4.4-2.3,8.8-4.2,12.9c-1.0,2.4-2.0,3.8-2.0,6.5  c0,6.3,8.7,8.5,14.6,8.6c1.2,0.0,12.1,0.1,18.8-6.5  c-3.6-0.1-7.6-2.9-7.6-6.5c0-4.0,2.8-6.8,6.7-8.0  c0.7-0.2,2.0,0.4,2.6,0.0c0.9-0.4,0.5-1.5,1.3-2.2  c1.9-1.5,3.2-2.5,5.6-2.5c1.3-0.0,2.7,0.3,3.8,1.1  c0.6,0.4,0.9,1.1,1.7,1.1c1.7,0,2.6-1.1,4.4-1.1  c1.2-0.0,2.5,0.2,3.6,0.8c1.0,0.5,1.0,2.3,2.2,2.3  c0.6,0,3.7-1.2,5.4-1.2c3.4,0,5.2,1.2,7.5,3.8  c0.5,0.7,0.9,2.1,1.5,2.1c2.1,0.1,4.2,1.0,5.8,2.5  c0.6,0.6,1.2,1.2,1.6,2.0c0.4,0.6,1.0,2.2,1.7,2.5  c0.9,0.1,1.8,0.5,2.6,0.9c2.6,1.6,4.2,4.5,4.3,7.6  c-0.1,1.1-0.3,2.2-0.7,3.3c-2.9,10.2-9.9,13.5-17.0,22.3  c-3.0,3.7-5.3,6.7-5.3,11.5c0,1.1,1.4,3.3,2.0,4.2  c-0.3-2.2,0.6-5.0,3.0-5.1c3.2-0.1,5.9,2.3,6.2,5.5  c0.0,0.9-0.1,1.9-0.5,2.8c1.8-1.1,4.0-1.9,6.2-2.2  c0.9-0.1,1.9-0.1,2.9-0.1c5.2,0.1,11.0,3.0,14.5,6.0  c10.7,9.1,12.0,22.4,11.4,26.2  c-1.3,8.2-0.4,23.1-21.5,29.1c3.8,1.6,6.5,4.5,6.5,8.1  c0.0,3.9-3.0,7.1-6.9,7.2c-2.0,0.1-3.9-0.6-5.3-2.1  c-4.3,4.3-5.2,8.8-5.2,15.0c-0.0,3.2,0.7,6.4,2.2,9.2  c1.6,3.5,2.8,5.6,5.7,8.2c1.5-2.3,3.2-4.1,6.0-4.1  c2.7,0,5.0,0.8,6.2,3.3c0.3,0.7,0.0,1.3,0.4,2.1  c0.4,0.9,1.3,1.1,1.8,2.1c0.7,1.4,0.0,2.7,0.7,4.2  c0.4,0.9,1.4,1.1,1.8,2.1c0.6,1.3,0.9,2.7,0.8,4.2  c0,4.7-4.2,8.0-8.9,8.0c-1.4,0-2.1-0.5-3.6-0.4  c2.6,2.6,4.7,3.8,6.7,7.0c2.9,4.6,3.7,7.9,4.3,13.4  c0.1,0.8,0.1,1.7,0.1,2.6c0,7.0-1.0,11.2-4.2,17.5  c-3.0,6.0-5.5,9.3-11.0,13.2c-8.5,6.1-14.7,7.8-25.0,9.8  c-5.6,1.1-11.3,1.9-17.1,2.2c-8.5,0.5-13.4,0.5-22.0,1.1  c-11.2,0.7-19.0,2.3-27,10.3c3.7,2.7,6.3,5.4,6.3,10.1  c0,4.7-2.9,8.1-7.4,9.6c-1.0,0.3-1.8,0.0-2.8,0.5  c-1.1,0.6-1.1,1.9-2.2,2.6c-1.7,1.1-3.8,1.6-5.9,1.5  c-4.2,0-7.0-0.9-10.0-3.9c-3.4,2.8-4.6,5.4-8.4,7.6  c-1.2,0.7-1.9,1.6-3.3,1.6c-2.3,0-3.3-1.4-5.2-2.8  c-2.5-1.8-4.9-3.9-6.9-6.3c-3.5,2.1-5.6,3.8-9.7,3.8  c-2.2,0.1-4.3-0.4-6.2-1.6c-1.1-0.6-1.2-1.7-2.4-2.4  c-1.1-0.7-2.1-0.4-3.3-0.9c-4.7-2.0-7.7-5.5-7.7-10.6  c0-4.5,2.8-7.3,6.9-9.2c-7.8-7.8-15.5-9.1-26.5-9.8  c-8.5-0.5-13.3-0.5-21.9-1.1c-5.7-0.4-11.5-1.1-17.2-2.2  c-5.0-0.8-8.0-1.0-12.7-3.2c-15.9-7.4-26.1-17.6-28.2-35.1  c-0.1-1.2-0.1-2.5-0.1-3.8c0-9.1,3.5-14.6,10.0-21.1  c-1.6-0.3-2.7,0.1-4.3-0.4c-4.0-1.4-6.9-4.2-6.9-8.5  c-0.1-1.3,0.1-2.7,0.8-4.0c0.5-0.9,1.5-1.1,1.8-2.2  c0.3-1.4-0.1-2.4,0.5-3.8c0.4-0.8,1.2-1.0,1.6-1.9  c1.3-2.8,3.1-5.2,6.3-5.2c2.7,0,4.5,1.4,5.9,3.8  c2.6-1.2,3.4-3.2,4.9-5.7c2.5-4.2,3.6-7.1,3.6-12.0  c0.0-2.9-0.4-5.9-1.4-8.6c-0.7-2.3-1.0-3.9-2.8-5.6  c-1.3,1.4-3.3,2.2-5.3,2.1c-4.4-0.1-8.0-3.8-7.9-8.3  c-0.1-3.1,1.7-6.0,4.6-7.2c-2.4-2.0-4.5-2.2-7.2-3.9  c-4.0-2.5-5.5-5.3-8.1-9.3c-1.7-2.6-2.2-4.4-3.1-7.4  c-1.0-3.0-1.6-6.3-1.6-9.6c-0.0-0.8,0.0-1.7,0.1-2.5  c1.0-7.6,2.3-12.4,7.2-18.5c2.8-3.5,4.8-5.7,9.0-7.6  c3.6-1.5,5.7-2.6,9.6-2.6c1.0-0.0,2.0,0.0,3.0,0.1  c1.5,0.0,3.1,0.5,4.5,1.2c0.6,0.3,1.6,1.3,1.6,0.6  c0-0.8-0.4-1.2-0.4-2.0c0-3.2,2.3-6.2,5.5-6.2  c2.3,0,3.3,2.0,4.4,4.1c0.7-1.0,1.1-2.2,1.1-3.5  c0-5.3-2.8-8.1-6.2-12.2c-7.2-9.1-16.3-13.3-16.3-25.0  c0-3.4,1.6-5.8,4.6-7.6c0.8-0.5,2.0,0,2.8-0.5  c0.7-0.4,0.6-1.3,1.1-2.1c0.6-0.9,1.4-1.8,2.3-2.5  c1.6-1.4,3.1-1.0,4.9-2.2c0.9-0.6,1.1-1.4,1.8-2.3  c2.0-2.4,3.8-3.6,7.1-3.6c1.3-0.1,2.7,0.1,4.0,0.6  c0.5,0.1,1.4,0.9,1.5,0.8c0.6-0.7,1.3-1.3,2.2-1.8  c1.0-0.6,2.2-0.9,3.4-0.9c1.7,0,2.8,0.9,4.5,0.9  c0.6,0,0.7-0.6,1.2-0.9c1.5-1.0,2.4-1.6,4.2-1.6  c1.5,0.0,3.0,0.5,4.3,1.5c1.4,0.9,1.6,2.1,3.1,2.9  c0.8,0.4,1.5,0.2,2.4,0.5c4.0,1.3,7.0,4.0,7.0,8.2  c0.1,2.0-0.6,4.0-2.2,5.4c-1.3,1.2-2.6,0.9-4.3,1.5  c5.6,4.4,10.5,5.6,17.6,5.6c6.5,0,14.6-2.6,14.6-9.2  c0-3.0-1.6-4.6-2.8-7.5c-2.1-5-3.3-7.9-3.3-13.3  c0-4.3,0.4-6.9,2.9-10.4c2.5-3.6,5.7-4.4,10.1-4.4  L469.3,188.4z" />
        <path fill="none" stroke="#713F2A" stroke-width="1" stroke-linejoin="round" d="M425.5,223.4   c0.5,1.8,1.9,3.2,3.8,3.8c2.2,0.5,4.5-0.3,5.9-2.1   c1.2-1.8,1.5-4.1,0.8-6.2c-0.5-1.4-1.4-2.6-2.6-3.4   l-7.9,8.0l-0.0,0.0L425.5,223.4z M626.6,343.9   c-1.8-4.5-6.6-2.4-6.9,0c-0.6,5.7,4.3,7.4,7.9,6.5   c1.6-0.4,3.0-1.5,3.8-3.0c0.9-1.7,1.1-3.8,0.6-5.8   c-0.5-1.8-1.7-3.4-3.3-4.4c-1.3-0.8-2.8-0.9-5.2-0.9   c-8.7,0-16.3,10.2-18.8,20.9c-1.4,6.1-1.5,12.5-0.3,18.8   c1.2,6.6,4.4,12.7,9.1,17.5c2.6,2.5,5.7,4.7,8.9,6.4   c2.0,1.0,4.2,1.9,6.4,2.6c2.0,0.5,4.1,0.6,6.1,0.1   c5.1-1.1,7.5-5.9,4.9-10.8c-2.1-4.0-8.3-6.2-11.3-1.0   c-0.4,0.7-0.6,1.5-0.6,2.4c-0.0,1.3,0.5,2.7,1.5,3.6   c2.2,1.4,5.8,1.0,5.6-2 M603.7,421.4    c-0.4-1.7-0.0-3.3,1.3-5.2c1.8-2.4,5.6-3.3,9.1-1.3    c1.5,0.7,2.9,1.8,3.9,3.2c0.5,0.6,1.3,1.7,1.7,2.4    c0.7,1.2,1.2,2.5,1.7,3.8c3.8,10.9-2.2,22.7-10.2,27.5    c-6.2,3.6-13.6,5.3-22.4,6.3c-3.9,0.4-6.2,0.4-10.2,0.6    c-3.2,0.1-6.0,0.0-8.6,0.0c-2.1-0.0-4.2-0.0-6.2-0.0    c-3.7-0.1-7.5-0.0-11.2,0.1c-4.5,0.3-7.9,0.4-11.8,1.0    c-2.5,0.4-5.4,0.8-8.5,1.5c-0.9,0.2-1.8,0.3-2.8,0.6    c-0.6,0.1-1.2,0.3-1.8,0.5c-5.3,1.4-10.4,3.6-15.2,6.5    c-1.3,0.7-2.6,1.6-3.8,2.7c-0.6,0.6-1.4,1.2-2.1,1.8    c-2.9,2.9-6.0,6.1-6.7,10.4c-0.1,0.8-0.1,1.6-0.1,2.5    c0,2.7,2.2,6.6,8.4,7.8 M516.3,229.1    c1.2,2.3,1.9,3.7,1.2,6.1c-0.8,2.7-2.7,4.3-5.5,4.3    c-6.2,0-9.8-7.3-7.0-12.0c4.9-8.3,14.5-3.6,23.4,0.4    c-0.4-2.1-1.1-2.8-1.0-5.4c0.1-6.5,5.0-9.5,7.0-15.6    c1.1-3.6,1.6-6.7-1.0-9.3c-2.3-2.2-4.9-2.2-7.9-1.0    c-6.0,2.3-13.2,9.1-25.9,9.3c-12.7-0.1-20.0-6.9-26.0-9.3    c-3.0-1.1-5.6-1.2-7.9,1.0c-2.6,2.5-2.1,5.7-1.0,9.3    c1.9,6.0,6.8,9.0,7.0,15.6c0.0,2.6-0.6,3.3-1.0,5.4    c8.8-4.1,18.7-9.2,23.4-0.4c2.5,4.8-0.8,12.0-7.0,12.0    c-2.7,0-4.6-1.7-5.5-4.3c-0.6-2.1-0.1-4.4,1.2-6 M491.5,224.7    c2.4,1.8,4.1,4.1,3.8,7.7c-0.3,3.9-1.2,4.9-4.3,7.0 M494.6,233.6c0.0,2.2-1.3,4.2-3.5,4 M430.0,220.5   c-0.4-2.5-3.4-3.1-4.6-1.5c-1.7,2.3-0.4,6.2,3.1,7.4   c2.2,0.5,4.5-0.3,5.9-2.1c2.1-3.0,1.4-7.2-1.5-9.4   c-0.0-0.0-0.1-0.1-0.2-0.1c-4.2-3.2-11.1-2.4-13.3,2.9   c-2.9,7.0,3.4,12.2,9.2,16.2c7.3,4.9,15.7,5.8,22.0,5.8   c14.3-0.1,25.1-6.9,32.2-10.8c1.6-0.9,3.3-0.7,4.1,0.3   c1.0,1.3,0.8,3.1-0.3,4 M387.6,414.3l-3.1,1.1   l-3.2,2.4l-1.3,1.9l-1.7,3.1l-0.7,2.3l-0.6,2.8l-0.3,2.1    M405.9,414.6l-0.2,2.7L405.2,419.4l-1.3,3.3l-2.1,2.8   l-2.3,1.8l-1.7,0.8l-2.4,0 M499.6,489.2   c-0.5,2.5-3.0,5.5-8.2,6.6l-1.0,0 M631.5,406.5   c3.4,3.3,6.0,7.5,7.4,12.1c0.9,2.9,1.3,5.9,1.3,9.0   c-0.1,5.6-1.5,11.7-3.0,14.6c-1.3,2.5-4.8,13.9-23.9,21.8   c-11.1,4.5-28.2,5.6-40.1,6.1   c-16.0,0.6-30.8,1.2-39.5,11 M605.4,416.9   c1.1-1.6,5.5-3.6,9.0-1.7c1.4,0.7,2.7,1.8,3.7,3 M627.5,402.7   c0.7,0.2,1.5,0.5,2.2,0.7c1.9,0.6,4.1,0.6,6.1,0.1   c4.4-1.3,7.2-5.4,4.9-10.8c-0.6-1.3-1.5-2.4-2.7-3 M375.4,287.1   c-2.9,1.8-5.1,2.2-7.4,4.9c-1.8,3.3-3.2,6.9-4.1,10.6 M435.8,221.9c0,2.6-1.9,4.3-4.6,4 M620.4,275.0   c7.3-0.1,28.8,5.6,29.0,30.8   c0.1,24.9-15.3,28.9-21.6,30 M622.4,275.0   c12.7-0.5,25.8,8.8,26.4,32.2   c0.4,18.2-12.5,26.5-18.7,28 M615.3,363.1l0.1-2.5l0.8-3.9   l1.1-3.0l1.3-2.5l1.7-2.0 M632.7,343.6l-0.1,2.4l-0.7,1.6   l-1.0,1.5l-1.2,0.9l-1.9,0.7l-1.6,0.1l-1.2-0.1    M602.3,268.4l0.5-2.6l1.1-2.4l1.5-2.4l2.6-3.3l2.0-2.2   l3.3-3.3l2.8-2.9l1.8-2.0l2.4-2.9l2.1-3.2l1.2-2.6   l0.7-3.4l0.2-4.2l-0.3-1.2 M605.4,429.4l2.5-0.5l1.9-1.0   l1.0-1.0l0.7-1.2l0.5-1.9l0.0-1.3 M364.9,403.3l1.8,0.1   l2.4-0.1l2.4-0.8 M379.4,345.3l-0.3,2.1l-0.5,0.9l-0.7,0.9   l-1.0,0.7l-1.1,0.5l-1.4,0.2l-1.0,0.0 M388.7,326.6   l-0.5,3.3l-0.6,1.4l-1.3,1.8l-1.8,1.3l-1.8,0.9l-3.6,0.8    M402.7,274.4l-0.7,2.0l-0.8,1.4l-1.1,1.6l-1.6,1.4   l-1.9,0.9l-1.6,0.3l-1.0-0.0 M394.4,272.6l0.0,1 M397.3,325.0    c-0.9,0.8-2.0,1.5-3.2,2.0 M629.2,397.1    c0.1,0.1,0.5,0.2,0.7,0.3c2.2,1.3,6.5-0.3,5.2-3 M621.5,349.3    c1.5,2.0,4.5,2.5,6.8,1.9c1.6-0.4,3.0-1.5,3.8-3.0    c0.9-1.7,1.1-3.8,0.6-5.8c-0.2-0.9-0.7-1.8-1.3-2.5    c-0.5-0.8-1.3-1.5-2.1-2.2c-0.1-0.1-0.3-0.2-0.5-0.3     M638.9,390.4c0.3-2.1-0.3-4.2-1.9-5.7    c-0.4-0.4-0.8-0.8-1.3-1.2 M636.4,384.2    c-0.0-2.9-2.4-4.9-5.4-5.5 M624.5,383.1    c-0.7-0.5-1.3-1.0-2.0-1.6c-4.2-4.5-6.6-10.4-6.7-16.6    c-0.0-6.4,2.5-13.0,5.5-15.6 M533.0,481.4l2.7-2.5    l1.9-1.4l3.6-2.2l3.4-1.6l2.4-0.6l4.8-1.0l5.5-0.8     M511.6,501.2c-2.0,3.1-6.8,7.7-11.8,9.6    c-5.0-1.8-9.8-6.5-11.8-9 M491.2,494.7    c-0.6,2.3-1.8,4.6-3.4,6 M491.7,491.4l-0.7,3.4     M487.4,501.4l-1.4,1.4l-2.6,1.4l-3.0,0.9 M471.4,227.4    c0.5-1.2,0.7-2.6,0.7-4.0c-0.1-6.5-5.0-9.5-7.0-15.6    c-1.1-3.6-1.6-6.7,1.0-9.3c2.3-2.2,4.9-2.2,7.9-1.0    c6.0,2.3,13.3,9.1,26.0,9.3c-12.7-0.1-20.0-6.9-26.0-9.3    c-3.0-1.1-5.9-1.5-8.2,0.7c-2.6,2.5-1.9,6.0-0.7,9.6    c1.9,6.0,6.5,9.0,6.7,15.6c0.0,1.3-0.2,2.7-0.8,4.0     M500.1,206.3c12.5-0.6,23.2-9.0,26.7-9.7    c3.0-0.6,4.8-0.3,7.0,1.7c-2.2-2.0-4.8-1.9-7.7-0.8    c-6.0,2.3-13.2,9.1-25.9,9.3 M624.5,383.2    c-6.0-4.5-9.6-11.6-9.7-19.2c-0.0-6.4,2.5-13.0,5.5-15.6     M511.1,500.7c-2.0,3.1-6.8,7.7-11.8,9.6    c-5.0-1.8-9.8-6.5-11.8-9 M479.1,230.7    c1.3-0.7,2.5-1.4,3.6-2.0c1.6-0.9,3.6-0.7,4.4,0.3    c1.0,1.3,0.9,3.2-0.2,4 M460.4,239.4    c8.5-1.7,15.5-5.6,20.8-8.5 M531.7,487.4    c0.4,0.4,0.8,0.9,1.1,1.4c0.2,0.4,0.3,0.8,0.5,1.3    c0.4,1.8-0.7,3.6-2.5,4.0c-0.1,0.0-0.3,0.0-0.5,0.0    c-2.3,0.2-4.5-1.0-5.4-3.1 M460.0,239.0    c8.5-1.7,15.5-5.6,20.8-8.5 M633.3,397.4    c-1.6,0.6-2.5,0.5-4.5-0.3c-0.8-0.3-1.7-0.9-2.9-1.5    c-3.9-2.2-8.7-5.8-13.1-14.1c-1.1-2.2-2.0-4.5-2.6-6.9    c-0.4-1.7-0.6-3.4-0.7-5.2c-0.0-3.2,0.2-6.5,0.9-9.7    c0.9-5.1,3.1-10.0,6.3-14.1c1.7-2.4,3.3-3.9,6.6-4.0     M398.8,279.8c2.6,2.1,4.2,5.4,4.1,8.9    c0,4.8-4.0,12.7-14.0,15.5c-3.3,0.9-6.8,0.5-9.8-1 M400.4,296.2    c1.7,1.0,2.6,3.0,2.4,5.0c0,1.6-1.0,3.8-2.9,5.8    c-3.5,3.8-8.4,6.1-13.7,6.2c-3.3,0.0-6.6-0.8-9.4-2.7    c-2.9-1.9-5.1-4.9-5.9-8 M400.2,306.7    c2.0,1.8,2.6,4.1,2.6,7.1c0,4.2-1.7,7.6-5.7,11.1    c-0.9,0.8-1.9,1.5-3.0,2.1 M596.4,292.6v5.5 M595.9,291.2    v7.7 M596.4,274.4V284.6 M595.9,272.1v13.9 M592.9,414.1    c-1.5,3.3-3.8,6.3-6.5,8.8c-2.6,2.6-5.7,4.8-9.0,6.3    c-3.2,1.6-6.6,2.7-10.2,3.4c-3.5,0.8-7.1,1.2-10.7,1.3    c-3.3,0.1-6.6,0.0-9.9-0.2c-4.1-0.2-6.4-0.8-10.5-1.2    c-2.9-0.3-5.8-0.5-8.7-0.5c-3.0-0.0-6.0,0.1-8.9,0.6    c-2.7,0.4-5.4,1.1-8.0,2.2c-4.1,1.7-8.9,4.6-9.9,5.9    c-1.0-1.3-5.7-4.2-9.9-5.9c-2.5-1.0-5.3-1.8-8.0-2.2    c-2.9-0.5-5.9-0.7-8.9-0.6c-2.9,0.0-5.8,0.2-8.7,0.5    c-4.1,0.3-6.4,0.9-10.5,1.2c-3.2,0.3-6.6,0.3-9.9,0.2    c-3.6-0.0-7.2-0.5-10.7-1.3c-3.5-0.6-7.0-1.8-10.2-3.4    c-3.3-1.5-6.4-3.7-9.0-6.3c-0.3-0.3-0.6-0.6-0.9-0.9     M478.7,505.4l2.7-0.3 M528.9,501.4l2.8-0.2l2.6-1.0    l1.8-1.1l2.5-3.0l0.5-1.1l0.4-2.6l0.1-1.2 M613.2,277.3    c1.2-4.1-0.2-8.4-4.2-8.3 M402.7,341.7    c-0.9,3.0-2.9,5.6-5.6,7.2 M402.8,276.0    c-0.9,2.8-2.9,5.1-5.7,6.2c-2.8,1.3-6.2,0.0-8.0-1 M380.9,291.2    c2.3,1.2,4.8-0.5,4.3-3.6c-0.4-1.8-2.0-3.2-3.9-3 M390.8,422.8    c0.5,0.4,0.6,1.1,1.3,1.2c1.0,0.1,1.8,0.5,2.9-0.8    c1.2-1.7,0.5-4.4-0.7-6.0c-2.3-2.4-6.0-3.0-9.1-1.4    c-1.5,0.7-2.9,1.8-3.9,3.2c-0.5,0.6-1.3,1.7-1.7,2.4    c-0.7,1.2-1.2,2.5-1.7,3.8c-3.2,9.0,0.6,18.6,6.4,24 M531.5,487.2    c0.3,0.3,0.7,0.8,1.0,1.2c0.1,0.4,0.3,0.8,0.4,1.3    c0.4,1.8-0.7,3.6-2.5,4.0c-0.1,0.0-0.3,0.0-0.5,0.0    c-2.2,0.2-4.4-1.0-5.2-3" />
        <path fill="#C6AA76" d="M432.3,214.4l1.0,0.7l1.1,1.2l0.7,1.5   l0.3,1.3l0.0,1.7l-0.0,1.1l-0.3,1.3l-0.7,0.9l-0.9,1.0   l-1.3,0.6l-1.7,0.3l-1.4,0.2l-1.5-0.6l-1.3-1.0l-0.8-1.2   l-0.6-1.5v-0.6l7.6-7.2L432.3,214.4z" />
        <path fill="none" stroke="#713F2A" stroke-width="1" d="M608.5,216.8    c5.4,0.8,9.5,5.4,9.7,10.9c0,6.9-2.3,9.4-5.9,14.4    c-3.8,5.2-16.6,15.0-16.6,26.0c0,6.6,1.8,10.9,6.6,13.1    c3.1,1.4,6.7-0.1,8.3-1.6c4.0-3.6,2.4-10.0-1.7-10.8    c-5.1-0.9-6.0,7.1-1.0,6.6 M635.7,383.5    c-0.4-3.1-3.3-5.2-6.4-4.8c-2.8,0.4-4.9,2.9-4.8,5.8    c-0.0,1.5,0.5,2.9,1.6,4.0 M599.7,279.8    c-2.6,2.1-4.2,5.4-4.1,8.9c0,4.8,4.0,12.7,14.0,15.5    c3.8,1.0,7.4,0.9,9.7-0.4 M375.6,287.7    c-3.0,0.9-5.6,2.8-7.5,5.3c-1.8,2.6-2.9,6.2-3.6,9.4    c-0.5,3.4-0.4,6.9,0.2,10.4c0.6,3.1,1.8,6.1,3.6,8.8    c0.4,0.6,1.0,1.3,1.6,1.9c0.5,0.4,1.1,0.9,1.7,1.3     M471.7,469.0c7.5,3.3,13.1,5.8,17.8,13.3    c1.2,2.3,1.9,4.9,1.8,7.6c0.0,4.5-1.8,8.8-5.2,11.8    c-2.8,2.5-6.6,3.7-10.4,3.1c-3.0-0.2-5.8-2.4-6.2-4.0     M396.8,325.2c4.2,3.3,6.0,6.5,6.0,11.7    c0.1,4.7-2.1,9.1-6.2,11.6 M392.9,344.4    c6.3,7.9,9.7,12.6,9.9,22.0c0.1,8.8-2.6,14.9-7.9,21.3 M515.2,239.5    c1.2-0.8,2.0-2.0,2.4-3.4c0.7-2.3,0.7-4.3-0.4-6.0    c1.5,2.0,1.6,3.7,1.2,6.1c-0.2,1.5-1.2,2.3-2.4,3.4     M596.4,374.2v25.2h0.0c-0.0,1.2-0.0,2.5-0.2,3.8    c-0.1,0.9-0.2,1.8-0.4,2.7 M595.9,371.8v27.2h0.0    c-0.0,1.2-0.0,2.5-0.2,3.8c-0.2,1.5-0.4,2.8-0.7,4.1     M595.9,339.9v22.7 M596.4,341.7v18.4 M596.4,318.2v13.8     M595.9,316.6v17.0 M596.4,304.0v5.3 M595.9,303.0v7.7     M593.0,412.6c-0.1,0.3-0.3,0.7-0.5,1.0    c-1.5,3.3-3.8,6.3-6.5,8.8c-2.6,2.6-5.7,4.8-9.0,6.3    c-3.2,1.6-6.6,2.7-10.2,3.4c-3.5,0.8-7.1,1.2-10.7,1.3    c-3.3,0.1-6.6,0.0-9.9-0.2c-4.1-0.2-6.4-0.8-10.5-1.2    c-2.9-0.3-5.8-0.5-8.7-0.5c-3.0-0.0-6.0,0.1-8.9,0.6    c-2.7,0.4-5.4,1.1-8.0,2.2c-4.1,1.7-8.9,4.6-9.9,5.9    c-1.0-1.3-5.7-4.2-9.9-5.9c-2.5-1.0-5.3-1.8-8.0-2.2    c-2.9-0.5-5.9-0.7-8.9-0.6c-2.9,0.0-5.8,0.2-8.7,0.5    c-4.1,0.3-6.4,0.9-10.5,1.2c-3.2,0.3-6.6,0.3-9.9,0.2    c-3.6-0.0-7.2-0.5-10.7-1.3c-3.5-0.6-7.0-1.8-10.2-3.4    c-3.3-1.5-6.4-3.7-9.0-6.3c-1.4-1.3-2.6-2.7-3.8-4.3     M406.4,413.2c0.5,4.3-0.7,8.6-3.5,12.0    c-1.3,1.3-4.2,4.0-7.7,4.1c-5.9,0.0-7.6-3.9-8.0-4.9 M399.3,410.7    c1.1,1.1,2.1,2.5,2.8,3.9c1.4,2.7,1.0,7.4-0.1,9.6    c-0.1,0.2-0.3,0.5-0.4,0.7 M370.0,453.2    c3.5,3.6,8.8,7.6,16.9,11.0c11.1,4.5,28.2,5.6,40.1,6.1    c15.7,0.6,30.1,1.2,39.0,10.9 M493.2,475.0    c2.5,2.5,5.2,5.2,6.3,8.7 M488.1,501.7    c-2.9,3.1-7.2,4.6-11.5,4.2c-2.6-0.3-5.1-1.8-6.6-4.0     M461.6,497.3c0.1,0.1,0.2,0.3,0.4,0.5    c2.0,2.2,4.9,3.6,7.9,3.8 M512.0,501.6    c-2.0,3.1-6.8,7.7-11.8,9.6c-5.0-1.8-9.8-6.5-11.8-9.6    l-0.4-0.7 M512.1,501.6c0.3,0.3,0.7,0.7,1.1,1.1    c2.8,2.5,6.6,3.7,10.4,3.1c2.6-0.2,4.9-1.7,6.3-4.0    c0.3-0.3,0.5-0.7,0.6-1.1 M529.7,500.9l-1.1,1.8l-1.7,1.4    l-2.6,1.1l-2.4,0.1 M536.0,483.2    c1.5,1.1,2.7,2.7,3.5,4.5c0.4,1.1,0.7,2.4,0.7,3.6    c0.1,2.3-0.6,4.6-2.2,6.4c-2.1,2.3-5.2,3.7-8.4,3.8    c-0.2,0.0-0.4,0.0-0.7,0 M529.3,501.3    c-3.0,0.0-6.0-1.1-8.0-3.3 M620.7,391.9    c-3.0-2.9-5.5-6.3-7.5-10.0c-1.1-2.2-2.0-4.5-2.6-6.9    c-0.4-1.7-0.6-3.4-0.7-5.2c-0.0-3.2,0.2-6.5,0.9-9.7    c0.9-5.1,3.1-10.0,6.3-14.1c0.9-1.3,2.0-2.4,3.2-3.4     M618.2,223.8c3.9,0.3,7.6,4.5,7.5,8.7    c-0.0,6.0-2.1,8.5-6.8,14.5    c-4.1,5.1-16.4,14.1-16.1,22.7c0.1,1.6,0.7,3.1,1.8,4.3     M599.5,279.7c0.9,0.9,2.0,1.6,3.2,2.1    c2.1,0.8,4.6,0.6,6.6-0.4 M576.3,213.8    c1.5,0.9,2.6,2.4,3.4,4.0c2.9,7.0-3.4,12.2-9.2,16.2    c-3.9,2.6-8.3,4.3-12.9,5.1 M569.6,227.4    c-1.9-0.0-3.6-0.8-4.9-2.3c-0.4-0.4-0.8-0.9-1.1-1.5     M540.4,231.1c-0.7-0.3-1.4-0.8-2.0-1.5    c-1.7-1.8-2.2-4.5-1.2-6.8c0.9-2.9,5.7-11.2,5.9-17.0    c0.3-8.7-3.0-13.9-8.3-16 M542.6,203.8    l-0.2,3.3l-0.8,3.3l-1.7,4.6l-1.3,2.9l-1.3,2.9    l-0.6,2.0l-0.2,1.5l0.2,1.4 M595.8,423.3    c0.2,0.4,0.5,0.9,0.9,1.3c1.0,1.6,4.9,4.6,8.5,4.7    c5.9,0.0,7.3-4.0,7.4-4.9c0.7-4.5-0.7-5.7-3.1-7.0    c-0.9-0.4-1.9-0.5-2.9-0.4 M370.2,403.6    c-1.8,0.5-3.8,0.5-5.7,0.0c-4.4-1.3-8.0-5.5-6.1-10.8     M379.2,343.1c0.3,0.4,0.6,1.0,0.6,1.6    c0.6,5.7-4.3,7.4-7.9,6.4c-1.9-0.6-3.5-1.8-4.7-3.5    c-0.6-1.0-0.9-2.3-0.9-3.6 M400.7,307.1    c0.8,0.7,1.5,1.7,1.9,2.7 M400.8,296.6    c0.7,0.5,1.3,1.2,1.8,2.0 M402.9,303.9    c-0.5,1.3-1.4,2.6-2.4,3.7c-3.5,3.8-8.4,6.1-13.7,6.2    c-3.3,0.0-6.6-0.8-9.4-2.7c-3.1-2.0-5.4-5.1-6.3-8.7 M399.1,280.1    c1.6,1.3,2.9,3.2,3.6,5.2 M402.8,292.5    c-2.0,6.1-7.1,10.8-13.4,12.2c-3.8,0.9-8.7-0.2-10.3-1.6 M375.0,291.4    c0.4,4.1,3.1,7.2,8.4,7.3c7.3,0.1,11.8-10.5,5.2-18.0 M358.5,327.3    c1.0,1.3,2.3,2.5,3.6,3.6c2.7,2.3,5.8,4.0,9.2,5.1     M379.6,336.9c6.5-0.7,10.2-5.6,9.5-11.4    c-0.5-4.3-4.5-7.7-7.2-7.9 M390.3,268.9    c2.4,0.0,4.4,2.0,4.4,4.4c-0.0,0.0-0.0,0.1-0.0,0.1 M389.7,229.8    c1.4,3.8,4.2,7.0,7.8,9.0 M622.8,287.2    c2.6,3.6,0.9,10.9-6.3,11.0c-2.8-0.0-5.4-1.4-6.9-3.9 M596.4,239.2v24.6 M380.8,291.1    c2.2,1.6,5.1-1.1,4.0-4.0c-0.7-1.9-3.5-4.1-7.4-1.4    c-4.2,2.9-3.1,12.1,5.1,12.2    c7.3,0.1,11.8-10.5,5.2-18.0    c-6.2-7.2-17.7-5.5-25.1,0.3    c-5.5,4.6-9.4,11.0-11.0,18.1c-0.6,2.5-0.9,5.2-0.9,7.9    c0.1,6.4,2.0,12.8,5.5,18.2c0.6,0.9,1.2,1.7,2.0,2.5    c0.9,1.0,1.9,2.0,2.9,3.0c4.2,3.5,9.6,6.2,16.3,5.9    c7.3-0.3,11.5-5.4,10.7-11.5c-0.7-5.8-6.6-8.8-10.5-6.0    c-2.6,1.8-3.5,7.6,1.0,9.0c2.6,0.7,4.9-2.5,3.1-4.5     M584.4,210.6c4.2-2.2,7.4-1.8,9.8,1.4    c2.2,3.3,3.0,7.3,2.4,11.2c-0.8,4.1-2.0,5.9-5.4,8.9 M594.5,212.5    c4.8-3.1,10.0-1.8,12.9,2.4c2.0,3.1,2.6,5.7,2.4,9.5    c-0.3,6.0-3.6,11.4-8.9,14.3 M617.2,223.6    c4.1,0.4,7.1,3.9,7.1,8.0c0,5.9-1.6,8.5-6.4,14.5    c-4.1,5.1-16.4,14.1-16.1,22.7c0.1,3.2,2.8,6.3,5.2,6.5 M617.7,291.1    c-2.2,1.6-5.1-1.0-3.8-3.8c0.8-1.9,3.4-4.3,7.3-1.7    c4.2,2.9,3.1,12.1-5.1,12.2    c-7.3,0.1-12.3-10.2-5.2-18.0    c6.4-7.1,18.3-5.7,25.7,0.2c3.1,2.5,9.5,9.4,10.9,18.5    c1.6,11.0,1.4,24.5-9.9,32.9c-4.8,3.3-10.6,4.9-16.5,4.6    c-7.3-0.3-11.5-5.4-10.7-11.5c0.7-5.8,6.4-8.3,10.5-6.0    c4.3,2.3,3.5,8.4-1.0,9.0c-2.7,0.3-4.9-2.5-3.1-4.5 M613.8,287.3    c1.2-5.4,5.8-5.9,9.6-5.9c10.2,0.1,17.4,12.3,17.5,24.1    c0.1,14.9-6.3,23.7-17.2,24.1c-2.8,0.1-7.6-1.2-7.7-4.6 M620.2,284.8    c10.8,2.4,14.6,12.1,14.6,21.5c0,7.6-0.7,18.0-15.5,21.6 M638.1,389.5    c0.6-3.3-1.5-6.5-4.8-7.1s-6.5,1.5-7.1,4.8    c-0.4,2.2,0.4,4.5,2.2,5.9 M616.3,380.3    c2.3,3.8,5.7,7.0,9.7,9.2 M624.1,406.0    c-5.1-3.3-14.8-7.7-23.6-3.4c-3.2,1.6-5.4,3.5-6.6,6.8    c-1.7,5.1-0.6,10.7,2.7,14.9c1.3,1.3,4.2,4.0,7.7,4.1    c5.9,0.0,7.3-4.0,7.4-4.9c0.7-4.2-1.7-5.9-3.1-6.4    c-1.0-0.3-4.3-0.2-5.0,2.0c-0.3,1.0-0.1,2.1,0.3,3.1 M531.9,488.1    c1.6,3.3-0.2,5.0-2.4,5.2c-3.3,0.3-5.1-2.2-5.3-4.6    c-0.2-3.7,2.5-7.0,6.3-7.3c0.1-0.0,0.3-0.0,0.5-0.0    c3.4,0.1,6.4,2.2,7.7,5.4c0.4,1.1,0.7,2.4,0.7,3.6    c0.1,2.3-0.6,4.6-2.2,6.4c-2.1,2.3-5.2,3.7-8.4,3.8    c-6.5,0.2-11.7-5.9-11.7-12.2c0-12.0,17.8-18.6,24.9-20.3    c8.7-2.0,14.0-2.8,27.9-3.6c5.5-0.3,9.6-0.1,15.8-0.7    c4.7-0.3,9.4-1.0,14.0-2.1c7.2-1.5,14.0-4.9,19.5-9.9    c4.5-4.1,7.1-7.0,9.2-12.7c1.8-4.8,2.6-14.5-1.9-21.7    c-3.5-5.7-9.4-9.6-16.1-10.5c-5.8-0.8-10.9,1.6-13.9,7.4    c-1.4,2.7-1.0,7.4,0.1,9.6c1.5,2.7,4.3,4.4,7.4,4.6    c5.9,0.0,7.3-4.0,7.4-4.9c0.7-4.2-1.7-5.9-3.1-6.4    c-1.0-0.3-4.3-0.2-5.0,2.0c-0.3,1.0-0.1,2.1,0.3,3.1 M526.9,469.0    c-7.5,3.3-13.1,5.8-17.8,13.3c-1.2,2.3-1.9,4.9-1.8,7.6    c-0.0,4.5,1.8,8.8,5.2,11.8c2.8,2.5,6.6,3.7,10.4,3.1    c3.0-0.2,5.8-2.4,6.2-4.0 M601.7,325.2    c-3.5,1.1-6.0,6.5-6.0,11.7c-0.1,4.7,2.1,9.1,6.2,11.6 M605.6,344.4    c-6.3,7.9-9.7,12.6-9.9,22.0c-0.1,8.8,2.6,14.9,7.9,21.3 M571.6,212.5l0.5-0.8    c2.6-3.8,7.3-4.9,10.7-2.3c4.1,3.1,5.1,8.4,4.0,13.9    c-0.8,3.5-3.1,6.6-6.3,8.5 M414.2,210.6    c-4.0-1.8-7.3-1.5-9.8,1.4c-2.8,3.4-2.9,8.4-2.4,11.2    c0.8,4.1,2.0,5.9,5.4,8.9 M404.0,212.5    c-4.8-3.1-10.0-1.8-12.9,2.4c-2.1,3.1-2.6,5.7-2.4,9.5    c0.3,6.0,3.6,11.4,8.9,14.3 M390.1,216.8    c-5.3,0.6-9.3,5.0-9.3,10.4c0,6.9,1.7,9.7,5.5,15.0    c3.8,5.2,16.6,15.0,16.6,26.0c0,6.6-1.8,10.9-6.6,13.1    c-3.1,1.4-6.7-0.1-8.3-1.6c-4.0-3.6-2.4-10.0,1.7-10.8    c5.1-0.9,6.0,7.1,1.0,6.6 M381.3,223.6    c-3.9,0.3-7.8,3.7-7.8,7.9c0,5.9,2.3,8.7,7.1,14.7    c4.1,5.1,15.7,13.9,15.4,22.6c-0.1,3.2-2.3,7.2-4.4,6.7 M372,343.9    c1.8-4.5,6.6-2.4,6.9,0c0.6,5.7-4.3,7.4-7.9,6.5    c-1.6-0.4-3.0-1.5-3.8-3.0c-0.9-1.7-1.1-3.8-0.6-5.8    c0.2-0.9,0.7-1.8,1.3-2.5c0.5-0.7,1.2-1.3,1.9-1.8    c1.3-0.8,2.8-0.9,5.2-0.9c8.7,0,16.3,10.2,18.8,20.9    c1.4,6.1,1.5,12.5,0.3,18.8c-1.2,6.6-4.4,12.7-9.1,17.5    c-2.6,2.5-5.7,4.7-8.9,6.4c-2.0,1.0-4.2,1.9-6.4,2.6    c-1.9,0.6-4.1,0.6-6.1,0.1c-4.4-1.3-7.2-5.4-4.9-10.8    c1.7-4.1,8.3-6.2,11.3-1.0c0.4,0.7,0.6,1.5,0.6,2.4    c0.0,1.3-0.5,2.7-1.5,3.6c-2.2,1.4-5.8,1.0-5.6-2.9 M365.2,397.4    c1.6,0.6,2.5,0.5,4.5-0.3c0.8-0.3,1.7-0.9,2.9-1.5    c3.9-2.2,8.7-5.8,13.1-14.1c1.1-2.2,2.0-4.5,2.6-6.9    c0.4-1.7,0.6-3.4,0.7-5.2c0.0-3.2-0.2-6.5-0.9-9.7    c-0.9-5.1-3.1-10.0-6.3-14.1c-1.7-2.4-3.3-3.9-6.6-4.0     M360.5,389.5c-0.6-3.3,1.5-6.5,4.8-7.1    c3.3-0.6,6.5,1.5,7.1,4.8c0.4,2.2-0.4,4.5-2.2,5.9 M362.8,383.5    c0.4-3.1,3.3-5.2,6.4-4.8c2.8,0.4,4.9,2.9,4.8,5.8    c0.0,1.5-0.5,2.9-1.6,4.0 M374.0,383.2    c6.0-4.5,9.6-11.6,9.7-19.2c0.0-6.4-2.5-13.0-5.5-15.6 M382.2,380.3    c-2.3,3.8-5.7,7.0-9.7,9.2 M397.8,402.6    c-1.4-3.4-4.3-4.9-9.0-5.4c-4.6-0.4-8.6,0.7-12.8,3.0    c-8.0,4.3-12.5,8.9-15.5,17.6c-0.9,2.9-1.3,5.9-1.3,9.0    c0.1,5.6,1.5,11.7,3.0,14.6c1.3,2.5,4.8,13.9,23.9,21.8    c11.1,4.5,28.2,5.6,40.1,6.1    c16.2,0.6,31.2,1.2,39.9,11.9 M374.5,406.0    c5.1-3.3,14.8-7.7,23.6-3.4c3.2,1.6,5.4,3.5,6.6,6.8    c1.7,5.1,0.6,10.7-2.7,14.9c-1.3,1.3-4.2,4.0-7.7,4.1    c-5.9,0.0-7.3-4.0-7.4-4.9c-0.7-4.2,1.7-5.9,3.1-6.4    c1.0-0.3,4.3-0.2,5.0,2.0c0.3,1.0,0.1,2.1-0.3,3.1" />
        <path fill="none" stroke="#713F2A" stroke-width="1" d="M394.8,421.4    c0.5-1.8,0.0-3.8-1.3-5.2c-2.4-2.3-6.1-2.9-9.1-1.3    c-1.5,0.7-2.9,1.8-3.9,3.2c-0.5,0.6-1.3,1.7-1.7,2.4    c-0.7,1.2-1.2,2.5-1.7,3.8c-3.8,10.9,2.4,22.5,10.2,27.5    c6.8,4.3,13.8,5.5,22.4,6.3c3.9,0.3,6.2,0.4,10.2,0.6    c3.2,0.1,6.0,0.0,8.6,0.0c2.1-0.0,4.2-0.0,6.2-0.0    c3.7-0.1,7.5-0.0,11.2,0.1c4.5,0.3,7.9,0.4,11.8,1.0    c2.5,0.4,5.4,0.8,8.5,1.5c0.9,0.2,1.8,0.3,2.8,0.6    c0.6,0.1,1.2,0.3,1.8,0.5c5.3,1.4,10.4,3.6,15.2,6.5    c1.3,0.7,2.6,1.6,3.8,2.7c0.7,0.7,1.4,1.2,2.1,1.8    c2.9,2.9,6.0,6.1,6.7,10.4c0.1,0.8,0.1,1.6,0.1,2.5    c0,2.7-2.2,6.6-8.4,7.8 M466.6,488.1    c-1.6,3.3,0.2,5.0,2.4,5.2c3.3,0.3,5.1-2.2,5.3-4.6    c0.2-3.7-2.5-7.0-6.3-7.3c-0.1-0.0-0.3-0.0-0.5-0.0    c-3.4,0.1-6.4,2.2-7.7,5.4c-0.4,1.1-0.7,2.4-0.7,3.6    c-0.1,2.3,0.6,4.6,2.2,6.4c2.1,2.3,5.2,3.7,8.4,3.8    c6.6,0.2,11.7-5.9,11.7-12.2c0-12.0-17.8-18.6-24.9-20.3    c-8.7-2.0-14.0-2.8-27.9-3.6c-5.5-0.3-9.6-0.1-15.8-0.7    c-4.7-0.3-9.4-1.0-14.0-2.1c-7.2-1.5-14.0-4.9-19.5-9.9    c-4.5-4.1-7.1-7.0-9.2-12.7c-1.8-4.8-2.6-14.5,1.9-21.7    c3.5-5.7,9.4-9.6,16.1-10.5c5.8-0.8,10.9,1.6,13.9,7.4    c1.4,2.7,1.0,7.4-0.1,9.6c-1.5,2.7-4.3,4.4-7.4,4.6    c-5.9,0.0-7.3-4.0-7.4-4.9c-0.7-4.2,1.7-5.9,3.1-6.4    c1.0-0.3,4.3-0.2,5.0,2.0c0.3,1.0,0.1,2.1-0.3,3.1 M426.9,212.5    c-0.1-0.2-0.3-0.5-0.5-0.8c-2.6-3.8-7.3-4.9-10.7-2.3    c-4.1,3.1-5.1,8.4-4.0,13.9c0.8,3.5,3.1,6.6,6.3,8.5 M573.0,224.3    c-6.2,6.8-12.5,9.0-22.0,9.3c-2.9,0.0-8.5-0.9-11.8-3.2    c-2.0-1.4-4.4-4.0-2.9-8.4c0.9-2.9,5.7-11.2,5.9-17.0    c0.3-8.7-3.0-13.6-8.3-15.4c-9.7-3.4-20.2,6.2-26.5,8.3    c-2.5,0.9-5.2,1.3-8.0,1.2c-2.7,0.1-5.4-0.3-8.0-1.2    c-6.3-2.1-16.8-11.7-26.5-8.3c-5.2,1.8-8.6,6.6-8.3,15.4    c0.2,5.7,4.9,14.0,5.9,17.0c1.4,4.4-0.8,6.9-2.9,8.4    c-3.2,2.3-8.8,3.3-11.8,3.2c-9.4-0.3-15.7-2.4-22.0-9.3 M464.5,466.2    c1.2,0.4,0.3-0.2,8.1,3.2c7.5,3.3,12.9,6.2,17.6,13.7    c1.2,2.3,1.9,4.9,1.8,7.6c-0.0,1.2-0.1,2.5-0.4,3.8 M465.0,500.0    c1.5,0.7,3.3,1.2,5.0,1.2c6.6,0.2,11.7-5.9,11.7-12.2    c0-4.3-2.3-8.0-5.7-11 M466.5,488.1    c-1.5,3.5,0.6,5.4,2.9,5.7c2.6,0.3,5.1-1.6,5.4-4.3    c0.0-0.1,0.0-0.2,0.0-0.3c0.2-2.6-1.0-5.1-3.2-6.4 M609.5,216.8    c5.0,0,9.3,5.5,9.3,11.3c0,6.6-3.5,10.6-6.0,13.7    c-2.0,2.4-4.3,4.6-6.9,7.3 M603.5,211.5    c1.7,0.8,3.2,2.1,4.3,3.8c2.0,3.1,2.6,5.7,2.4,9.5    c-0.2,6.6-4.9,11.1-9.2,13.9 M593.7,211.5    c0.3,0.3,0.6,0.6,1,1.0c2.8,3.4,3.0,8.4,2.4,11.2    c-1.0,4.2-2.4,6.0-5.8,8.5 M583.3,209.8    c4.1,3.1,5.3,8.4,3.9,14.0c-0.9,3.9-3.4,6.3-6.5,8.2     M598.1,296.2c0.4,1.4,1.3,1.9,2.3,3.0    c2.6,2.6,5.9,4.5,9.6,5.5c3.3,0.9,6.9,0.4,9.8-1.3     M365.2,387.8c1.9-0.0,3.8,1.2,5.1,3.4    c0.4,0.7,0.6,1.5,0.6,2.4c0.0,1.3-0.5,2.6-1.5,3.4    c-2.2,1.4-6.2,0.8-6.0-3.1 M377.3,336.3    c7.7,1.4,15.1,10.7,17.5,20.8c1.4,6.1,1.5,12.5,0.3,18.8    c-1.2,6.6-4.4,12.7-9.1,17.5c-1.0,1.0-2.1,1.9-3.3,2.8    l-1.6,1.1 M368.7,378.6c3.1,0,5.9,3.0,5.9,6.2    c0.0,1.5-0.5,2.9-1.6,4.0 M366.6,382.3    c3.5,0.2,6.2,3.0,6.4,6.5c0.0,1.8-0.8,3.6-2.3,4.7 M396.8,349.2    c3.0,4.0,5.0,7.5,5.9,12.0 M402.6,374.5    c-0.4,2.1-1.2,4.3-2.2,6.3c-1.4,2.7-3.3,5.1-5.5,7.2 M397.3,325.5    c2.5,1.8,4.5,4.4,5.5,7.4 M402.8,317.9    c-0.7,2.6-2.5,4.6-5.2,7.1 M383.3,298.2l3.3-0.8l1.9-1.5    l1.2-1.8l1.1-2.8l0.4-2.3 M376.5,286.4    c-1.3,0.3-2.5,0.7-3.8,1.3c-2.2,1.0-4.0,2.5-5.5,4.5    c-1.8,2.6-2.9,6.2-3.6,9.4c-0.5,3.4-0.4,6.9,0.2,10.4    c0.6,3.1,1.8,6.1,3.6,8.8c0.4,0.7,1.0,1.4,1.6,2.0    c2.0,2.0,3.8,3.2,6.9,2.6 M395.3,271.5    c-0.5,2.0-1.6,4.4-4.7,4.2 M383.8,285.2    c-3.0-2.9-9.4-3.7-15.7,0.3c-0.8,0.5-1.6,1.1-2.4,1.8    c-0.8,0.7-1.6,1.5-2.2,2.4c-0.8,1.2-1.5,2.4-2.1,3.7    c-0.6,1.3-1.1,2.7-1.4,4.1c-0.8,3.1-1.1,6.4-1.0,9.7    c0.1,1.5,0.3,2.9,0.5,4.1c0.5,3.3,1.7,6.6,3.4,9.6    c1.4,2.3,4.9,7.6,12.0,8.3c2.8,0.2,7.6-1.0,7.7-4.6 M568.3,220.4    c0.4-2.5,3.5-3.0,4.7-1.5c1.7,2.3,0.6,6.3-3.0,7.5    c-2.2,0.5-4.5-0.3-5.9-2.1c-2.1-3.0-1.4-7.2,1.5-9.4    c0.0-0.0,0.1-0.1,0.2-0.1c4.2-3.2,11.1-2.4,13.3,2.9    c2.9,7.0-3.4,12.2-9.2,16.2c-7.3,4.9-15.7,5.8-22.0,5.8    c-14.3-0.1-25.1-6.9-32.2-10.8c-1.6-0.9-3.3-0.7-4.1,0.3    c-1.0,1.3-0.8,3.1,0.3,4.2 M571.2,218    c0.9-0.0,1.8,0.4,2.3,1.2c1.7,2.3,0.4,6.3-3.1,7.5     M598.3,307.3c-5.4,5.9-0.4,16.1,3.6,18.4    c1.4,1.0,2.0,0.5,3.1,1.1 M598.6,295.9    c-1.7,1.2-2.4,2.6-2.4,5.0c-0.1,2.3,0.6,4.5,2.2,6.2    c2.9,3.0,8.7,5.7,14.4,5.8c3.3,0.0,6.6-0.8,9.4-2.7    c2.9-1.9,5.1-4.9,5.9-8.3 M595.5,398.6    c-0.0,1.2-0.0,2.5-0.2,3.8c-0.9,7.4-4.3,14.4-9.7,19.6    c-2.6,2.6-5.7,4.8-9.0,6.3c-3.2,1.6-6.6,2.7-10.2,3.4    c-3.5,0.8-7.1,1.2-10.7,1.3c-3.3,0.1-6.6,0.0-9.9-0.2    c-4.1-0.2-6.4-0.8-10.5-1.2c-2.9-0.3-5.8-0.5-8.7-0.5    c-3.0-0.0-6.0,0.1-8.9,0.6c-2.7,0.4-5.4,1.1-8.0,2.2    c-4.1,1.7-8.9,4.6-9.9,5.9c-1.0-1.3-5.7-4.2-9.9-5.9    c-2.5-1.0-5.3-1.8-8.0-2.2c-2.9-0.5-5.9-0.7-8.9-0.6    c-2.9,0.0-5.8,0.2-8.7,0.5c-4.1,0.3-6.4,0.9-10.5,1.2    c-3.2,0.3-6.6,0.3-9.9,0.2c-3.6-0.0-7.2-0.5-10.7-1.3    c-3.5-0.6-7.0-1.8-10.2-3.4c-3.3-1.5-6.4-3.7-9.0-6.3    c-5.4-5.2-8.8-12.1-9.7-19.6c-0.1-1.2-0.2-2.5-0.2-3.8    V239.5h192.5v159.0h0.0H595.5z" />
        <path fill="#713F2A" stroke="#713F2A" stroke-width="0.3" d="M520.7,211.9   c-0.0-2.6-2.6-2.9-3.6-2.9c-2.8,0-3.6,1.8-7.2,3.7   c-4.5,2.4-6.4,2.9-10.4,2.9c-4.0-0.0-6.0-0.5-10.5-2.9   c-3.6-1.9-4.2-3.6-7.0-3.6c-2.0,0.0-3.5,1.7-3.5,3.7   c0.0,0.0,0.0,0.0,0.0,0.0c-0.0,0.4,0.0,0.9,0.0,1.3   c0.0,0.2,0.2,0.1,0.3,0.3c-0.0-0.9,0.1-1.8,0.7-2.6   c0.6-0.7,1.5-1.2,2.5-1.3c2.8,0,3.9,1.8,7.5,3.7   c4.5,2.4,6.4,2.9,10.4,2.9c4.0-0.0,6.0-0.5,10.5-2.9   c3.5-1.9,4.6-3.9,7.5-3.9c0.9,0.0,1.8,0.7,2.0,1.6   c0.1,0.4,0.1,0.8,0.1,1.2c0.0,0.1,0.1,0.1,0.2,0.2   c0.2-0.5,0.3-1.1,0.2-1.7L520.7,211.9z" />
        <path fill="#713F2A" d="M413.1,434.4c0.8-0.8,1.4-0.5,1.5-0.9   c0.1-0.2-0.1-0.3-0.4-0.4c-0.4-0.1-0.9-0.2-1.3-0.4   c-0.4-0.1-0.8-0.4-1.3-0.5c-0.1-0.0-0.6-0.2-0.7,0.0   c-0.2,0.6,1.6,0.5,0.9,2.2c-0.2,0.7-0.7,1.3-1.2,1.8   l-4.1,4.5c-0.0,0.1-0.2,0.3-0.3,0.2   c-0.0-0.0-0.0-0.3-0.0-0.4l0.0-6.3   c-0.0-0.8,0.0-1.7,0.3-2.6c0.2-0.7,1.1-0.1,1.2-0.5   c0.1-0.2,0.0-0.3-0.4-0.4c-0.2-0.0-0.7-0.1-1.7-0.5   c-0.5-0.2-1.0-0.4-1.5-0.6c-0.2-0.0-0.6-0.4-0.8,0.0   c-0.0,0.1,0.1,0.3,0.1,0.3c0.5,0.2,0.8,0.8,0.7,1.4   l0.1,11.6c0.0,0.8,0.1,1.0,0.2,1.1   c0.1,0.0,0.2-0.0,0.6-0.3l8.2-8.9L413.1,434.4z M417.9500122,436.2200012c0.5329895-1.6900024,1.5320129-0.67099,1.7229919-1.276001   c0.0669861-0.2139893-0.0010071-0.2749939-0.4819946-0.4259949c-0.9129944-0.2879944-1.5119934-0.3980103-2.0880127-0.5799866   c-0.5599976-0.177002-1.1629944-0.4450073-1.7879944-0.6419983c-0.1440125-0.04599-0.5270081-0.2250061-0.6229858,0.0769958   c-0.1960144,0.6229858,1.769989,0.6950073,1.2600098,2.3139954l-2.6929932,8.5419922   c-0.5329895,1.6900024-1.5400085,0.8640137-1.7359924,1.4859924c-0.0280151,0.0899963-0.0360107,0.223999,0.1090088,0.269989   c0.4159851,0.131012,1.1270142,0.2770081,1.8160095,0.493988c1.2489929,0.3940125,1.8190002,0.6520081,2.4119873,0.8389893   c0.3680115,0.1159973,0.5339966,0.0899963,0.5960083-0.1059875c0.1799927-0.5700073-1.8720093-0.3160095-1.1820068-2.5050049   l2.6759949-8.4869995L417.9500122,436.2200012z M423.730011,437.9299927c0.3179932-1.072998,0.8169861-0.9259949,1.4129944-0.75   c1.6260071,0.4830017,2.1350098,2.072998,1.6159973,3.8269958c-0.3129883,1.0549927-0.7059937,2.0280151-3.1530151,1.303009   c-0.4830017-0.1430054-1.07901-0.3200073-0.9460144-0.7659912l1.0700073-3.6140137H423.730011z M419.2960205,445.6260071   c-0.6669922,2.2539978-1.7969971,1.2780151-1.9660034,1.8500061c-0.1059875,0.3580017,0.2479858,0.4039917,0.4249878,0.4570007   c0.8049927,0.2380066,1.631012,0.4049988,2.5,0.6629944c0.677002,0.2000122,1.0899963,0.3999939,1.3640137,0.4809875   c0.3699951,0.1099854,0.5299988,0.0400085,0.57901-0.1199951c0.1900024-0.6440125-1.6210022-0.3829956-1.0539856-2.2969971   l0.9169922-3.0950012c0.1849976-0.6260071,0.1260071-0.7799988,0.9790039-0.5270081   c0.8049927,0.2380066,1.0469971,0.4849854,1.1839905,1.3819885l0.5150146,3.2269897   c0.1919861,1.1860046,0.3739929,2.4649963,1.644989,2.8420105c0.6440125,0.1900024,1.8240051,0.1119995,1.9880066-0.4429932   c0.0461121-0.1284485-0.0206604-0.2699585-0.1491089-0.3160706c-0.0062256-0.0022278-0.0125122-0.0041809-0.0188904-0.0059204   c-0.1600037-0.0480042-0.3529968,0.0109863-0.5140076-0.0360107c-0.241272-0.0409241-0.4355164-0.2206421-0.4949951-0.4580078   c-0.4909973-2.5969849-1.0920105-5.5960083-1.0599976-5.70401c0.053009-0.1789856,0.5679932-0.2009888,1.1560059-0.4750061   c0.7975464-0.3823242,1.382782-1.1006775,1.5960083-1.9590149c0.243988-0.822998,0.6700134-3.4400024-2.8559875-4.4849854   c-1.0799866-0.3200073-2.1950073-0.571991-3.2739868-0.8919983c-1.0140076-0.2999878-1.1220093-0.4100037-1.8619995-0.6300049   c-0.1929932-0.0559998-0.381012-0.0150146-0.4339905,0.1640015c-0.1900024,0.6440125,1.7600098,0.5020142,1.1669922,2.5050049   l-2.3320007,7.8720093L419.2960205,445.6260071z M432.460022,449.480011   c-0.5180054,2.1589966-2.1539917,0.8450012-2.3240051,1.552002c-0.0960083,0.3999939,0.1860046,0.447998,0.480011,0.5190125   c0.6530151,0.1560059,1.2099915,0.2130127,2.303009,0.4760132c1.0939941,0.2630005,1.6149902,0.4649963,2.2690125,0.6220093   c0.4729919,0.1130066,0.7869873,0.2460022,0.8909912-0.1900024c0.1220093-0.5069885-2.0939941-0.4830017-1.5580139-2.7149963   l1.9679871-8.2000122c0.2099915-0.8699951,0.394989-0.9219971,1.0639954-0.7609863l1.3880005,0.3330078   c1.894989,0.3779907,0.8890076,2.2669983,1.5419922,2.4230042c0.4249878,0.1019897,0.4150085-0.6480103,0.4349976-0.8739929   l0.2200012-1.7120056c0.0280151-0.1849976,0.0889893-0.4400024-0.1560059-0.4979858   c-1.5180054-0.3649902-2.6300049-0.5549927-5.0140076-1.1270142c-2.3840027-0.572998-3.4599915-0.9079895-4.9779968-1.2720032   c-0.2449951-0.0599976-0.3059998,0.1950073-0.3659973,0.3720093l-0.8359985,2.3320007   c-0.0899963,0.2279968-0.2829895,0.6040039,0.0599976,0.6860046c0.7340088,0.1759949,0.8150024-2.3179932,2.6600037-1.875   l1.3720093,0.3299866c0.6690063,0.1600037,0.8099976,0.2900085,0.6010132,1.1610107l-2.019989,8.4179993L432.460022,449.480011z    M452.3000183,444.4200134c0.6459961-1,1.3059998-0.7820129,1.3850098-1.20401   c0.0570068-0.3120117-0.1839905-0.2999878-0.5299988-0.3640137c-0.4630127-0.0859985-0.9389954-0.0979919-1.401001-0.1839905   c-0.4790039-0.0889893-0.928009-0.2479858-1.4060059-0.3370056c-0.197998-0.0369873-0.6669922-0.1799927-0.7319946,0.1679993   c-0.118988,0.6430054,1.6749878,0.2730103,1.355011,1.9970093c-0.1698303,0.743866-0.4859619,1.4465027-0.9299927,2.0669861   l-3.2950134,5.1579895c-0.072998,0.118988-0.1870117,0.3640137-0.2860107,0.3450012   c-0.1000061-0.0180054-0.1340027-0.2900085-0.1600037-0.428009l-1.052002-6.3049927   c-0.1909485-0.8689575-0.2442627-1.7625122-0.1579895-2.6480103c0.1430054-0.769989,1.0830078-0.3110046,1.1749878-0.8070068   c0.0570068-0.3120117-0.0289917-0.3089905-0.5570068-0.4070129c-0.2640076-0.0490112-0.756012-0.0639954-1.8129883-0.2600098   c-0.5610046-0.1040039-1.1099854-0.2810059-1.6539917-0.3819885c-0.2479858-0.04599-0.7319946-0.2879944-0.8139954,0.1520081   c-0.0239868,0.1289978,0.1700134,0.2789917,0.2170105,0.3059998c0.5661011,0.1993103,0.9551086,0.7215576,0.9840088,1.3210144   l2.1319885,11.4400024c0.1549988,0.8250122,0.2860107,1.0390015,0.4509888,1.0700073   c0.1820068,0.0339966,0.2850037-0.0610046,0.5549927-0.5050049l6.5339661-10.1929626H452.3000183z M453.230011,454.9300232   c0.0090027,0.4559937-0.0320129,0.6000061,0.3630066,0.7799988c0.8484802,0.4964294,1.7563477,0.8835144,2.7019958,1.1520081   c2.1690063,0.3619995,3.9670105-1.019989,4.3699951-3.4299927c0.3909912-2.3380127-0.5700073-3.3120117-2.196991-4.4729919   c-2.0369873-1.4570007-2.9079895-1.8500061-2.7019958-3.0820007c0.0591125-0.9782715,0.9000854-1.7234192,1.8783875-1.6643066   c0.095459,0.0057678,0.1903076,0.0192566,0.2835999,0.0403137c2.848999,0.4760132,2.5239868,3.9400024,2.9049988,4.0039978   c0.3640137,0.0610046,0.4500122-0.151001,0.4859924-0.5620117l0.230011-2.4960022   c0.0379944-0.4289856,0.1340027-0.696991-0.1149902-0.7380066c-0.2149963-0.0360107-0.6789856,0.1900024-0.8940125,0.1530151   c-0.4960022-0.0830078-1.071991-0.9169922-2.4299927-1.1440125c-1.9379883-0.3250122-3.5209961,1-3.875,3.1159973   c-0.3240051,1.9320068,0.5329895,2.8129883,1.8399963,3.75c2.447998,1.7529907,3.4519958,2.1669922,3.1900024,3.7309875   c-0.1183777,1.228302-1.210083,2.1280823-2.4384155,2.0097046c-0.0811157-0.0078125-0.1617737-0.0200806-0.2415771-0.0367126   c-1.8380127-0.3080139-2.5849915-2.1539917-2.8200073-4.0100098c-0.0249939-0.25-0.0299988-0.4200134-0.29599-0.4649963   c-0.4140015-0.0690002-0.3370056,0.4920044-0.3299866,0.7579956l0.0910034,2.6069946L453.230011,454.9300232z    M477.9500122,447.960022c0.5379944-1.0620117,1.2170105-0.9150085,1.2510071-1.3429871   c0.0249939-0.3160095-0.2139893-0.2789917-0.5660095-0.3059998c-0.4679871-0.0369873-0.9429932,0-1.4119873-0.0360107   c-0.4849854-0.0379944-0.947998-0.1499939-1.4330139-0.1879883c-0.2009888-0.0159912-0.6820068-0.1099854-0.7099915,0.2430115   c-0.0509949,0.651001,1.6940002,0.0960083,1.5559998,1.8450012c-0.0914612,0.7570801-0.3320923,1.4885254-0.7080078,2.1520081   l-2.7390137,5.473999c-0.0599976,0.1260071-0.1480103,0.381012-0.2479858,0.3739929   c-0.1000061-0.0100098-0.1640015-0.2749939-0.20401-0.4100037l-1.70401-6.1600037   c-0.2816162-0.8440552-0.4284058-1.7272339-0.4349976-2.6170044c0.0620117-0.7799988,1.0440063-0.4230042,1.0840149-0.9249878   c0.0239868-0.3160095-0.0599976-0.3039856-0.5960083-0.3460083c-0.2680054-0.019989-0.7600098,0.0159912-1.8299866-0.0700073   c-0.5700073-0.0440063-1.1329956-0.1629944-1.6849976-0.2070007c-0.2510071-0.019989-0.7590027-0.2099915-0.7940063,0.2369995   c-0.0109863,0.1300049,0.1990051,0.2600098,0.2470093,0.2820129c0.584259,0.138092,1.0264282,0.6166687,1.1180115,1.2099915   l3.3160095,11.1539917c0.2399902,0.8049927,0.3930054,1.0039978,0.5599976,1.0169983   c0.1839905,0.0140076,0.2770081-0.0910034,0.4989929-0.5599976l5.4330139-10.8200073H477.9500122z" />
        <path fill="#713F2A" d="M480.6,457c-0.0,1.9-1.6,1.5-1.6,2.2 c-0.0,0.3,0.3,0.2,0.5,0.2c0.4,0,0.9-0.0,1.4-0.0 c0.5,0.0,1.1,0.0,1.9,0.0c0.2,0,0.6,0.0,0.6-0.2 c0.0-0.8-2.1,0.3-2.1-3.2l0.0-6.3 c0-0.1,0.0-0.2,0.1-0.2c0.0,0,0.1,0.0,0.2,0.2l7.9,9.7 c0.0,0.1,0.2,0.2,0.4,0.2c0.2,0,0.2-0.1,0.2-0.5 l0.0-10.4c0.0-1.9,1.4-1.4,1.4-2.0 c0-0.0,0.0-0.2-0.3-0.2c-0.1,0-0.7,0.0-1.7,0.0 c-1.1-0.0-1.6-0.0-1.9-0.0c-0.2,0-0.2,0.1-0.2,0.3 c-0.0,0.6,2.0,0.2,2.0,1.9l-0.0,6.2 c-0.0,0.4-0.0,0.6-0.1,0.6c-0.1-0.0-0.2-0.2-0.5-0.4 l-6.6-8.2c-0.2-0.3-0.0-0.4-0.6-0.4 c-0.8-0.0-1.3,0.0-1.7,0.0c-0.3,0-0.6-0.0-0.9-0.0 c-0.1-0.0-0.2,0.1-0.2,0.2c-0.0,0.0,0.0,0.0,0.0,0.0 c-0.0,0.8,1.8-0.3,1.8,3.2l-0.0,7.0V457z M496.8,448.6 c0.0-1.7,1.2-1.0,1.2-1.7c0.0-0.2-0.0-0.2-0.5-0.2 c-0.9-0.0-1.5,0.0-2.1,0.0c-0.5,0-1.2-0.0-1.8-0.0 c-0.1-0.0-0.5-0.0-0.5,0.2c-0.0,0.6,1.8,0.1,1.7,1.8 l0.0,8.9c-0.0,1.7-1.2,1.2-1.2,1.9 c-0.0,0.0,0.0,0.2,0.1,0.2c0.4,0.0,1.1-0.0,1.8-0.0 c1.3,0.0,1.9,0.0,2.5,0.0c0.3,0,0.5-0.0,0.5-0.2 c0.0-0.5-1.8,0.2-1.8-2.0L496.8,448.6z M503.9,457.2 c0.0,2.2-1.8,1.3-1.8,2.0c0.0,0.4,0.2,0.3,0.5,0.3 c0.6-0.0,1.2-0.0,2.3-0.0s1.6,0.0,2.3,0.0 c0.4,0,0.8,0.0,0.8-0.3c-0.0-0.5-2.1,0.0-2.1-2.2 l-0.0-8.4c-0.0-0.8,0.1-0.9,0.8-0.9l1.4-0.0 c1.9-0.0,1.4,1.9,2.0,1.9c0.4,0,0.2-0.7,0.2-0.9 l-0.2-1.7c-0.0-0.1-0.0-0.4-0.2-0.4 c-1.5,0.0-2.6,0.0-5.1,0.1c-2.4,0.0-3.5-0.0-5.1-0.0 c-0.2,0-0.2,0.2-0.2,0.4l-0.2,2.4 c-0.0,0.2-0.1,0.6,0.2,0.6c0.7-0.0,0.2-2.4,2.1-2.4 l1.4-0.0c0.6-0.0,0.8,0.0,0.8,0.9l0.0,8.6L503.9,457.2z  M513.6,453.7c-0.3,0.0-0.5,0.0-0.5-0.1 c-0.0-0.2,0.0-0.4,0.1-0.7l1.0-3.3 c0.0-0.2,0.1-0.2,0.1-0.2c0.0-0.0,0.0,0,0.1,0.1 l1.6,3.2c0.1,0.2,0.2,0.4,0.2,0.6 c0.0,0.1-0.2,0.1-0.5,0.2l-2.2,0.1V453.7z M516.5,454.5 c0.4-0.0,0.5,0.1,1.2,1.5c0.2,0.3,0.3,0.7,0.4,1.2 c0.0,1.1-1.1,1.0-1.0,1.5c0.0,0.2,0.2,0.2,0.5,0.1 c0.4-0.0,1.0-0.1,1.8-0.2c1.1-0.0,1.5-0.0,2.1-0.0 c0.4-0.0,0.6-0.0,0.5-0.3c-0.0-0.6-0.8,0.1-1.5-1.0 l-5.4-11.0c-0.2-0.5-0.2-0.5-0.4-0.5 c-0.2,0.0-0.2,0.3-0.3,0.6l-3.6,11.6 c-0.3,1.0-1.1,1.0-1.1,1.4c0.0,0.2,0.2,0.1,0.5,0.1 c0.4-0.0,0.9-0.1,1.4-0.1c0.5-0.0,1.0-0.0,1.5-0.0 c0.3-0.0,0.8,0.0,0.8-0.3c-0.0-0.5-1.8-0.0-1.9-1.4 c0.0-0.5,0.0-1.0,0.2-1.4c0.2-1.2,0.6-1.3,0.9-1.3 l3.2-0.2L516.5,454.5z M529.5,446.7 c-0.1-1.2-0.1-1.3,1.9-1.5c3.2-0.4,2.2,1.9,2.9,1.8 c0.3-0.0,0.2-0.6,0.1-0.8l-0.3-1.8 c-0.0-0.1-0.1-0.3-0.3-0.3c-0.0,0.0-0.0,0.0-0.0,0.0 c-1.4,0.1-2.6,0.4-3.7,0.5c-2.5,0.3-3.7,0.4-4.4,0.5 c-0.1,0.0-0.3,0.1-0.3,0.3c0.0,0.0,0.0,0.0,0.0,0.0 c0.0,0.7,1.9-0.1,2.1,1.5l1.1,8.6 c0.2,2.2-1.0,1.4-0.9,2.2c0.0,0.1,0.1,0.1,0.3,0.1 c0.9-0.1,1.6-0.2,2.1-0.3c0.7-0.0,1.3-0.1,1.9-0.1 c0.4-0.0,0.7-0.0,0.7-0.3c-0.0-0.5-1.8,0.2-2.1-1.8 l-0.3-2.7c-0.1-1.0-0.2-1.2,0.5-1.3l1.2-0.1 c1.7-0.2,1.5,1.7,2.0,1.7c0.4-0.0,0.2-0.7,0.1-0.9 l-0.5-3.2c-0.0-0.4-0.2-0.4-0.3-0.4 c-0.3,0.0-0.1,1.7-1.5,1.9l-1.0,0.1 c-0.7,0.0-0.7-0.0-0.8-0.8l-0.3-2.5H529.5z M535.6,451.0 c0.6,3.7,3.3,5.7,6.6,5.1c5.2-0.9,5.4-5.6,4.9-8.2 c-0.7-3.8-3.6-5.7-6.8-5.1c-3.9,0.7-5.5,4.2-4.8,8.2 H535.6z M537.5,449.6c-0.4-2.6-0.1-5.3,2.6-5.9 c2.1-0.4,4.5,1.3,5.2,5.3c0.5,3.0,0.0,5.6-2.7,6.2 C539.7,455.9,538.0,452.2,537.5,449.6z M550.5,443.1 c-0.2-1.0,0.2-1.2,0.8-1.3c1.6-0.3,2.8,0.7,3.3,2.5 c0.2,1.0,0.4,2.1-2.0,2.7c-0.4,0.1-1.0,0.2-1.2-0.1 l-0.8-3.6L550.5,443.1z M550.5,451.9 c0.5,2.2-0.9,2.0-0.7,2.5c0.0,0.3,0.4,0.2,0.5,0.1 c0.8-0.1,1.6-0.4,2.4-0.6c0.6-0.1,1.1-0.1,1.4-0.2 c0.3-0.0,0.4-0.2,0.4-0.3c-0.1-0.6-1.5,0.4-2.0-1.4 l-0.7-3.1c-0.1-0.6-0.2-0.7,0.5-0.9 c0.6-0.2,1.3-0.0,1.7,0.6l2.0,2.5 c0.7,0.9,1.5,1.9,2.8,1.6c0.6-0.1,1.6-0.8,1.5-1.3 c-0.0-0.1-0.1-0.2-0.2-0.1c-0.0,0.0-0.0,0.0-0.0,0.0 c-0.1,0.0-0.2,0.1-0.4,0.2c-0.2,0.0-0.4,0.0-0.6-0.1 c-1.7-2.0-3.7-4.2-3.7-4.4c-0.0-0.1,0.3-0.4,0.7-0.9 c0.5-0.7,0.6-1.6,0.4-2.4c-0.2-0.8-1.1-3.3-4.7-2.4 c-1.0,0.2-2.1,0.6-3.2,0.8c-1.0,0.2-1.1,0.2-1.9,0.3 c-0.1,0.0-0.3,0.1-0.2,0.3c0.1,0.6,1.7-0.4,2.2,1.5 l1.9,7.9L550.5,451.9z M564.0,448.9 c0.5,2.1-1.5,1.7-1.3,2.4c0.1,0.3,0.3,0.3,0.6,0.2 c0.6-0.1,1.1-0.3,2.2-0.6c1.0-0.2,1.6-0.3,2.2-0.5 c0.4-0.1,0.8-0.1,0.6-0.5c-0.1-0.5-2.0,0.5-2.6-1.6 l-2.1-8.1c-0.2-0.8-0.0-1,0.5-1.1l1.3-0.3 c1.8-0.5,1.8,1.5,2.5,1.4c0.4-0.1,0.0-0.7-0.0-0.9 l-0.6-1.6c-0.0-0.1-0.1-0.4-0.3-0.3 c-1.5,0.3-2.5,0.7-4.9,1.3c-2.3,0.6-3.4,0.8-4.9,1.2 c-0.2,0.0-0.1,0.3-0.1,0.5l0.3,2.4 c0.0,0.2,0.0,0.6,0.3,0.5c0.7-0.1-0.3-2.4,1.4-2.9 l1.3-0.3c0.6-0.1,0.8-0.1,1.0,0.7l2.1,8.3H564.0z  M572.6,437.5c-0.4-1.7,0.9-1.3,0.7-2.0 c-0.0-0.2-0.1-0.2-0.6-0.0c-0.9,0.2-1.4,0.4-2.0,0.6 c-0.5,0.1-1.2,0.2-1.8,0.4c-0.1,0.0-0.5,0.0-0.4,0.4 c0.1,0.6,1.8-0.3,2.3,1.2l2.3,8.6 c0.4,1.7-0.8,1.5-0.6,2.1c0.0,0.0,0.0,0.2,0.2,0.1 c0.4-0.1,1.0-0.3,1.7-0.5c1.2-0.3,1.8-0.4,2.4-0.6 c0.3-0.1,0.4-0.2,0.4-0.4c-0.1-0.5-1.7,0.7-2.3-1.4 l-2.3-8.5H572.6z M576.1,441.6c1.2,3.5,4.1,5.2,7.3,4.1 c5.0-1.7,4.5-6.3,3.7-8.8c-1.2-3.7-4.3-5.2-7.4-4.1 c-3.7,1.3-4.9,4.9-3.6,8.8V441.6z M577.8,440.0 c-0.8-2.5-0.8-5.2,1.7-6.2c2.0-0.7,4.6,0.6,5.9,4.5 c0.9,2.9,0.8,5.6-1.8,6.5 C580.9,445.9,578.6,442.6,577.8,440.0z M589.7,431.5 c-0.4-1.0,0.0-1.2,0.6-1.4c1.5-0.6,2.9,0.3,3.6,2.0 c0.4,1.0,0.6,2.0-1.6,2.9c-0.4,0.1-1.0,0.4-1.2-0.0 l-1.3-3.5V431.5z M590.9,440.3c0.8,2.1-0.6,2.1-0.4,2.6 c0.1,0.3,0.4,0.1,0.6,0.0c0.7-0.3,1.5-0.6,2.3-1.0 c0.6-0.2,1.1-0.3,1.3-0.4c0.3-0.1,0.4-0.2,0.3-0.4 c-0.2-0.6-1.5,0.6-2.2-1.1l-1.1-3.0 c-0.2-0.6-0.3-0.6,0.4-1.0c0.5-0.3,1.3-0.2,1.7,0.3 l2.3,2.2c0.8,0.8,1.8,1.7,3.0,1.2 c0.6-0.2,1.5-1.0,1.2-1.5c-0.0-0.1-0.1-0.2-0.3-0.1 c-0.0,0.0-0.0,0.0-0.0,0.0c-0.1,0.0-0.2,0.2-0.4,0.2 c-0.2,0.1-0.4,0.0-0.6-0.0c-1.9-1.7-4.3-3.7-4.3-3.8 c-0.0-0.1,0.3-0.5,0.6-1.0c0.3-0.7,0.4-1.7,0.0-2.5 c-0.3-0.7-1.5-3.1-5.0-1.7c-1.0,0.4-2.0,0.8-3.1,1.3 c-0.9,0.3-1.1,0.3-1.8,0.6c-0.1,0.0-0.3,0.2-0.2,0.3 c0.2,0.6,1.6-0.6,2.4,1.2l3.0,7.6H590.9z" />
        <g>
            <path fill="#D52B1E" d="M412.6,249.2h82.1v82.0h-82.1V249.2z" />
            <path fill="#FFFFFF" d="M451.2,313.8c-0.0,1.7-0.3,3.5-0.8,5.2   c-0.9,2.7-0.9,2.7-1.7,4.0c-0.9,1.5-2.2,2.8-3.8,3.8   c-1.7,1.2-3.8,1.8-5.9,1.7c-5.4-0.4-8.0-6.4-9.2-11.2   c-1.3-5.1-5.0-7.9-7.4-6.0c-1.3,1.0-1.4,2.9-0.3,4.6   c1.0,1.2,2.4,2.2,4.0,2.7l-2.9,3.7   c-3.8-0.6-6.8-3.5-7.5-7.3c-0.4-2.4,0.7-7.1,4.8-8.5   c5.2-1.7,8.6,2.0,10.3,5.1c2.2,4.3,3.2,12.4,9.4,11.1   c3.3-0.6,4.9-5.5,4.9-7.8l2.4-2.6l3.6,1.1l0.0,0.0   L451.2,313.8z M456.3,313.8c0.0,1.7,0.3,3.5,0.8,5.2   c0.9,2.7,0.9,2.7,1.7,4.0c0.9,1.5,2.2,2.8,3.8,3.8   c1.7,1.2,3.8,1.8,5.9,1.7c5.4-0.4,8.0-6.4,9.2-11.2   c1.3-5.1,5.0-7.9,7.4-6.0c1.3,1.0,1.4,2.9,0.3,4.6   c-1.0,1.2-2.4,2.2-4.0,2.7l2.9,3.7   c3.8-0.6,6.8-3.5,7.5-7.3c0.4-2.4-0.7-7.1-4.8-8.5   c-5.2-1.7-8.6,2.0-10.3,5.1c-2.2,4.3-3.2,12.4-9.4,11.1   c-3.3-0.6-4.9-5.5-4.9-7.8l-2.4-2.6l-3.6,1.1l-0.0,0.0   L456.3,313.8z" />
            <path fill="#FEDD00" d="M461.1,278.9l10.7-11.6   c0.9-0.8,1.5-2.0,1.6-3.4l-2.2,0.3l-0.4-1.1l-0.1-1.1   l2.9-0.6c0.0-0.4,0.0-0.8,0.0-1.3   c0.0-0.4,0.1-0.7,0.3-1.2l-3.2,0.2   c0.1-0.5,0.1-0.8,0.3-1.4c0.1-0.3,0.2-0.7,0.5-1.1   c0.6-0.0,1.1-0.2,1.9-0.3c0.7-0.0,1.1-0.0,1.8-0.0   c1.7-3.3,9.1-6.3,14.4-0.9c3.8,3.9,2.9,11.2-1.9,13.1   c-2.3,1.0-5.0,0.5-6.8-1.1l1.9-3.8   c2.7,1.6,4.9-0.3,4.8-2.4c-0.0-2.4-1.9-4.3-4.3-4.5   c-2.2-0.1-3.8,1.0-4.8,3.1c-0.6,1.2-0.3,2.1-0.5,3.5   c-0.0,1.2-0.2,2.5-0.5,3.8c-0.4,1.3-1.2,2.6-2.3,3.5   l-11.0,11.9l-42.9,46.4l-3.2-2.9l43.2-46.7V278.9z" />
            <path fill="#FFFFFF" d="M429.5,283.0c0,0,2.7,13.3,11.8,33.4   c4.6-1.7,7.4-2.7,12.3-2.7c4.9,0,7.6,0.9,12.3,2.7   c9.1-20.0,11.8-33.4,11.8-33.4l-24.2-31.1L429.5,283.0z" />
            <path fill="#FEDD00" d="M456.1,262.4l16.8,21.6c0,0-2.2,10.5-9.0,26.3   c-2.5-0.6-5.1-1.0-7.7-1.3l-0.0-46.6V262.4z M451.3,262.4   l-16.8,21.6c0,0,2.2,10.5,9.0,26.3   c2.5-0.6,5.1-1.0,7.7-1.3l0.0-46.6V262.4z" />
        </g>
        <g>
            <path fill="#FEDD00" d="M503.6,249.2h82.1v82.0h-82.1V249.2z" />
            <path fill="#D52B1E" d="M515.1,249.2h12.2v82.0h-12.2V249.2z M538.5,249.2h12.2   v82.0h-12.2L538.5,249.2z M562.0,249.2h12.2v82.0h-12.2L562.0,249.2z" />
        </g>
        <g>
            <path fill="#FEDD00" d="M412.9,402.4c0.3,2.3,1.0,4.5,2.1,6.6   c1.4,2.3,0.9,2.2,4.2,6c1.8,1.8,3.9,3.3,6.2,4.4   c2.1,1.1,4.4,1.9,6.8,2.4c5.3,1.4,10.9,1.9,16.5,1.5   c3.4-0.1,6.8-0.5,10.2-1.0c3.6-0.5,7.3-0.8,11.1-1.0   c2.1-0.0,4.1-0.1,6.1,0c2.4,0.1,4.8,0.4,7.3,1.0   c3.7,0.7,7.3,1.8,10.9,3.1l0.0-85.6l-82.1-0.0v58.5   c0,0,0.1,2.8,0.3,3.8H412.9z" />
            <path fill="#D52B1E" d="M422.5,417.4l3.8,2.2   l5.2,1.8l-0.0-81.5h-9.1L422.5,417.4z M468.1,421.1l0.0-81.0   h-9.1v82.3c0,0,6.2-0.8,9.1-0.9L468.1,421.1z M486.4,340.0h-9.1   v81.3c3.0,0.3,6.1,0.8,9.1,1.6L486.4,340.0z M449.9,340.0   v83.3c-3.0,0.1-6.1,0.1-9.1-0.0l0.0-83.3L449.9,340.0z" />
        </g>
        <path fill="#FEDD00" d="M585.4,402.3c-0.3,2.3-1.0,4.5-2.1,6.6  c-1.4,2.3-0.9,2.2-4.2,6.0c-1.8,1.8-3.9,3.3-6.2,4.4  c-2.1,1.1-4.4,1.9-6.8,2.4c-5.3,1.4-10.9,1.9-16.5,1.5  c-3.4-0.1-6.8-0.5-10.2-1.0c-3.6-0.5-7.3-0.8-11.1-1.0  c-2.1-0.0-4.1-0.1-6.1,0c-2.4,0.1-4.8,0.4-7.3,1.0  c-3.7,0.8-7.4,1.8-11.0,3.1l0.0-85.6l82.1-0.0v58.5  c0,0-0.1,2.8-0.3,3.8L585.4,402.3z" />
        <g id="HaskellSvgIcons-adCoA-cow">
            <path fill="#D52B1E" d="M524.6,346.9c0,0-0.3,0.1-0.5,0.2   c-0.2,0.2-0.5,0.5-0.7,0.8c-0.3,0.3-0.8,0.5-1.2,0.8   c-0.2,0.1-0.4,0.2-0.5,0.4c-0.2,0.3-0.0,0.6-0.2,1   c-0.1,0.3-0.3,0.6-0.6,0.9c-0.3,0.3-0.6,0.6-1.0,1   c-0.3,0.3-0.6,0.7-1.0,1c-0.1,0.0-0.2,0.1-0.3,0.1   c-0.2,0.0-0.3-0.0-0.5,0.0c-0.3,0.1-0.5,0.5-0.7,0.7   c0.1,0.2,0.1,0.3,0.2,0.5c0.1,0.3,0.7,1.2,0.8,1.4   c0.2,0.3,0.2,0.7,0.5,0.7c0.4,0.1,0.8,0.1,1.3,0.1   c0.6,0.0,1.3,0.2,2.0,0.4c0.6,0.2,0.8,0.5,1.4,0.8   c0.4,0.2,0.8,0.3,1.2,0.4c0.3,0.0,0.6,0.1,1,0.0   c0.2-0.0,0.3-0.1,0.6-0.1c0.0-0.0,0.0-0.0,0.1,0l-0.0,0.3   c-0.0,0,0.0,0.0,0,0.0v0.0h0.0l2.0,0.9   c-0.2,0.3-0.3,0.7-0.2,1.2c0.6,1.8,1.1,3.0,1.4,3.1   c0.6,0.2,0.8,0.8,1.1,1.5c-0.1,0.1-0.2,0.2-0.3,0.3   c-0.6,0.5-1.1,1.1-1.6,1.8c-0.7,1.1-1.2,1.2-0.3,2.7   c0.5,0.9,0.8,1.1,1.5,2.4c0.3,0.6,0.6,1.2,0.7,1.9   c0.1,0.6,0.2,1.3,0.3,1.9l0.9,0.3l0.6-0.6l0.6-1.1   l0.0-0.9c-0.2-0.1-0.3-0.4-0.2-0.7   c0.0-0.3,0.5-0.2,0.7-0.6c0.2-0.4-0.3-0.7-0.6-1.0   c-0.6-0.6-1.4-0.8-1.6-1.8c-0.0-0.2,0.0-0.4,0.3-0.7   c0.8-0.8,1.1-0.9,1.9-1.8c0.2,0.1,0.6,0.1,0.9,0.1   c0.2-0.0,0.5,0.1,1.4,0.3c0.3,0.1,0.8,0.1,1.2,0.0   l0.3-0.0c0.0,0.2,0.1,0.4,0.1,0.6c0.0,1.0-0.1,2.9,0.1,3.5   c0.1,0.1,0.2,0.3,0.2,0.5c0.1,0.2,0.1,0.4,0.2,0.6   c0.0,0.6,0.0,1.1,0,1.8c-0.0,0.5-0.1,1.1-0.2,1.7   c-0.0,0.3-0.1,0.7-0.4,1.0c-0.2,0.3-0.5,0.4-0.9,0.6   l-0.0,1l1.1,0.4l1.2,0.3l0.6-0.2c-0.0-0.2,0.0-0.4,0.1-0.6   c0.1-0.2,0.2-0.4,0.4-0.5c0.3-0.1,0.7,0.1,0.9-0.0   c0.1-0.2,0.0-0.3,0.0-0.7c-0.0-0.6-0.1-0.9-0.2-1.6   c-0.1-0.9-0.2-1.8-0.1-2.7c0.0-0.5,0.0-1.0,0.1-1.5   c0.1-0.8,0.4-1.3,0.6-2.1c0.1-0.8,0.2-1.6,0.3-2.4   c3.1,0.4,6.2,0.3,9.3-0.3c0.1-0.0,0.7-0.2,0.7-0.2   c0.7,0.7,1.7,1.2,2.7,1.6c-0.0,0.1-0.0,0.8,0,0.9   c0.0,0.2-0.0,0.4,0.1,0.7c0.0,0.1,0.2,0.2,0.3,0.2   c0.2,0.0,0.4,0.0,0.6-0.1c0.2-0.2,0.1-0.4,0.2-0.7   c0.0-0.2,0.0-0.4,0-0.6c0.2,0.0,0.5,0.0,0.8,0.0   c0.2,0.0,0.5,0.0,0.8-0.0c0.0,0.0,0.0,0.3,0.0,0.4   c0.0,0.2-0.0,0.4,0.0,0.6c0.0,0.2,0.2,0.3,0.5,0.4   c0.1,0.0,0.3,0.0,0.5-0.0c0.2-0.1,0.2-0.4,0.3-0.8   c0.0-0.1,0.0-0.6,0-0.7c0.2-0.0,0.8-0.2,1.0-0.3   c-0.0,0.2-0.0,0.5-0.0,0.8c-0.0,0.3-0.1,0.6-0.2,0.9   c-0.1,0.4-0.4,0.9-0.7,1.3c-0.3,0.5-0.6,1.0-1.0,1.5   c-0.2,0.2-0.3,0.3-0.5,0.6c-0.2,0.3-0.3,0.5-0.5,0.9   c-0.2,0.3-0.5,0.7-0.9,1.0c-0.6,0.5-1.1,0.1-2.0,0.8   l-0.2,1.0l1.4,0.5l1.2,0.2l0.4-0.2   c-0.0-0.2,0.0-0.5,0.2-0.7c0.1-0.2,0.4-0.3,0.7-0.4   c0.3-0.0,0.7,0.0,1.0-0.2c0.3-0.3,0.3-0.9,0.6-1.4   c0.7-1.4,1.7-2.8,3-3.9c0.6-0.5,1.1-0.7,1.6-1.4   c0.2-0.3,0.5-0.4,0.5-0.8c0.0-0.2-0.1-0.4-0.2-0.6   c-0.0-0.3-0.1-0.6-0.1-1c1.5,0.7,0.9,0.6,1.2,1.4   c0.2,0.6-0.0,1.0,0.0,1.6c0.1,0.7,0.4,1.1,0.5,1.8   c0.0,0.7-0.0,1.5-0.3,2.3c-0.0,0.6-0.2,1.3-0.4,2   c-0.2,0.6-0.6,1.1-1.1,1.5c-0.2,0.1-0.3,0.2-0.5,0.4   l-0.1,1.0l1.1,0.3l1.6,0.4l0.3-0.3c0.1-0.6-0.0-1.6,0.4-1.6   c0.4-0.0,0.6,0,0.7-0.3c0.0-0.2,0.0-0.4,0.0-0.6   c0.2-1.8,0.4-3.6,0.6-4.5c0.2-0.9,0.2-1.1,0.4-1.9   c0.0-0.5,0.1-1.1,0.4-1.6c0.7-2.0-0.2-2.3-1.0-3.6   c-0.3-0.4-0.6-0.9-0.6-1.5c-0.0-0.8,0.1-1.4,0.1-2.7   c-0.0-0.9-0.0-1.9,0-2.8c0.1-0.0,0.2-0.1,0.3-0.1   c1.1-0.4,1.9-1.3,2.3-2.4c0.2-0.4,0.3-0.9,0.3-1.4   c-0.0-0.3-0.0-0.6-0.0-1.0c-0.0-0.3-0.1-0.6-0.3-0.9   c-0.1-0.3-0.3-0.5-0.5-0.8c-0.7-0.7-1.6-1.2-2.7-1.4   c-1.3-0.3-2.7-0.5-4.1-0.5c-1.4-0.1-2.8-0.1-4.2-0.0   c-2.0,0.1-3.1,0.5-5.1,0.7c-1.6,0.2-3.2,0.3-4.9,0.4   c-2.2,0.0-4.4-0.4-5.7-0.3c-2.4,0.2-2.4,0.7-6.1,1.0   c-1.2,0.0-2.5,0.1-3.8,0.1l-2.1-0.6   c0.6-0.1,1.1-0.5,1.4-1.0c0.2-0.3,0.2-0.6,0.5-1.0   c0.2-0.3,0.4-0.6,0.7-0.9c-0.2-0.2-0.5-0.3-0.9-0.4   c-0.3-0.0-0.6-0.0-0.9,0c-0.4,0.0-0.8,0.1-1.2,0.3   c-0.3,0.1-0.6,0.3-0.8,0.5c-0.7-0.4-1.4-0.8-2.1-1.2   c-0.9-0.4-1.9-0.7-3-0.9V346.9z M526.5,358.8h0.0   c-0.0,0.0-0.0,0.0-0.0,0.0L526.5,358.8z" />
            <path fill="none" stroke="#FEDF00" stroke-width="0.9" stroke-linecap="round" d="M568.7,359.5l-0.7,0.2    c-0.8,0.3-1.7,0.5-2.5,0.4c-2.6,0.2-4.2-1.0-6.9-0.8    c-1.4,0.1-2.0,1.1-3.4,1.5c-0.5,0.1-1.1,0.2-1.7,0.2    l0.5-1.0c-0.6,0.1-1.4,0.2-2.1,0.2    c-0.5,0.0-1.0-0.0-1.5-0.1l1.0-0.9    c-0.4-0.0-0.8-0.1-1.2-0.3c-0.3-0.1-0.7-0.3-1.0-0.6    c0.5-0.0,1.1-0.2,1.6-0.3c1.5-0.3,2.0-1.1,3.8-1.3    c1.1-0.1,3.0-0.0,7.6,0.7c3.0,0.5,4.3,0.2,5.5-0.2    c0.6-0.3,1.1-1.0,1.1-1.7c0.0-0.7-0.3-1.3-0.8-1.8    c-0.3-0.2-0.7-0.3-1.1-0.3" />
            <path fill="#FCD900" stroke="#FEDF00" stroke-width="0.5" d="M524.7,350.6    c-0.4-0.0-0.9,0.0-1.3,0.2c-0.4,0.2-0.5,0.6-0.8,1.1    c0.4,0.1,0.6,0.3,1.1,0.2c0.3-0.0,0.5-0.2,0.7-0.5    c0.2-0.3,0.4-0.7,0.4-1.1l-0.1-0.0H524.7z M517.7,354.5    c0.2,0.0,0.4,0.0,0.7,0.0c0.3-0.0,0.4-0.2,0.8-0.2    c0.2-0.0,0.4-0.0,0.6,0.1c0.1,0.0,0.2,0.2,0.2,0.3    c0.1,0.1,0.1,0.3,0.1,0.4c-0.0,0.2-0.3,0.4-0.6,0.4    c-0.2,0.0-0.4-0.0-0.5-0.2c-0.0-0.1-0.0-0.2-0.0-0.3    c-0.5,0.1-1.1-0.0-1.4-0.4H517.7z" />
            <path fill="none" stroke="#FEDF00" stroke-width="1" stroke-linecap="round" d="M536.0,363.7    c0,0,0.2,0.4,0.4,0.7c0.2,0.4,0.3,0.9,0.5,1.4    c0.1,0.6,0.1,1.3,0.2,2.0c0.0,0.1,0.0,0.2,0.0,0.3    l-0.0,1.1 M544.0,362.7c0,0-0.2,0.8-0.3,1.3    c-0.3,1.3-0.6,2.0-0.9,3.4c-0.0,0.2-0.0,0.4-0.1,0.6     M531.7,364.1c0.7,0.1,0.5,3.3,1.7,4.0 M560.1,369.7l0.3-0.2    c1.0-0.4,1.9-1.0,2.6-1.7 M552.3,368.0h0.0    c3.5-0.8,5.8-2.6,7.5-2.8 M555.9,363.6    c0.2-0.0,0.5-0.0,0.8-0.0c1.4-0.2,1.7,0.6,2.7,1.2    c1.8,1.0,2.0,2.3,4.2,3.3c0.1,0.0,0.2,0.1,0.3,0.1    l0.8,0.4" />
            <path fill="#005EB8" d="M525.1,364.1c-0.6-0.2-1.3-0.5-1.9-0.8   c0.3-0.2,0.5-0.2,0.8-0.5c0.3-0.4,0.3-0.7,0.5-1.3   c0.2-0.5,0.1-0.9,0.6-1.3c0.3-0.2,0.7-0.2,1.1-0.1   c0.3,0.1,0.7,0.3,0.8,0.7c0.1,0.5-0.1,0.8-0.2,1.4   c-0.1,0.4-0.2,0.9-0.1,1.4c0.0,0.3,0.2,0.6,0.3,0.9   c-0.6-0.0-1.3-0.2-2.0-0.3L525.1,364.1z M524.1,365.1   c-0.0-0.3,0.2-0.6,0.6-0.6c0.3-0.0,0.6,0.2,0.6,0.6   s-0.2,0.6-0.6,0.6c-0.3,0.0-0.6-0.2-0.6-0.6L524.1,365.1   z M522.3,348.6c0,0-0.0-0.0-0.1-0.1   c-0.3-0.3-0.4-0.6-0.6-1.1c-0.1-0.3-0.2-0.7-0.3-1.1   c-0.0-0.3-0.0-0.6,0-1.0c0.0-0.3,0.0-0.6,0-0.9   c0.0-0.3-0.0-0.6-0.2-0.9c-0.0-0.1-0.3-0.3-0.3-0.4   c0.0-0.0,0.2-0.0,0.4,0c0.3,0.0,0.6,0.1,0.9,0.4   c0.3,0.2,0.5,0.6,0.6,1.0c0.1,0.5,0.2,0.8,0.4,1.4   c0.0,0.2,0.1,0.5,0.2,0.7c0.1,0.2,0.3,0.4,0.5,0.6   l-0.0,0.0c-0.2,0.2-0.5,0.5-0.7,0.8   c-0.2,0.2-0.5,0.4-0.8,0.5l-0.0-0.0L522.3,348.6z    M525.9,359.2l2.2,1.0c1.5-0.9,2.7-2.3,3.4-3.9   c0.6-1.3,1.1-2.8,1.3-4.3l-1.7-0.5l-0.3,0.0   c-0.3,1.4-0.8,2.8-1.6,4.1c-0.6,1.1-1.5,2.1-2.6,3.0   l-0.6,0.4H525.9z M530.9,377.3c0.2-0.4,0.5-0.8,0.9-1.2   c0.4-0.4,0.8-0.7,1.3-1.1c0.1-0.0,0.3,0.0,0.4,0.0   c-0.0,0.5-0.0,1.0-0.1,1.5c-0.0,0.4-0.2,0.8-0.3,1.2   c-0.0,0.3-0.2,0.6-0.3,0.9c-0.1,0.1-0.3,0.3-0.4,0.5   c-0.5-0.7-1.3-1.2-1.3-1.9L530.9,377.3z M563.9,379.2   c1.0,0.2,2.0,0.7,2.9,1.4c0.0,0.1,0.0,0.3,0.0,0.4   c-0.5,0.1-1.0,0.2-1.5,0.2c-0.4,0.0-0.8,0.0-1.2,0   c-0.3,0.0-0.7-0.0-1.0-0.1c-0.2-0.0-0.4-0.1-0.6-0.3   c0.5-0.6,0.8-1.6,1.4-1.7V379.2z M554.1,377.1   c1.0,0.2,2.0,0.7,2.9,1.4c0.0,0.1,0.0,0.3,0.0,0.4   c-0.5,0.1-1.0,0.2-1.5,0.2c-0.4,0.0-0.8,0.0-1.2,0   c-0.3,0.0-0.7-0.0-1.0-0.1c-0.2-0.0-0.4-0.1-0.6-0.3   C553.2,378.2,553.5,377.3,554.1,377.1z M536.8,379.3   c0.5,0.1,0.9,0.3,1.4,0.5c0.5,0.2,1.0,0.5,1.4,0.9   c0.0,0.1,0.0,0.3,0.0,0.4c-0.5,0.1-1.0,0.2-1.5,0.2   c-0.4,0.0-0.8,0.0-1.2,0c-0.3,0.0-0.7-0.0-1.0-0.1   c-0.2-0.0-0.4-0.1-0.6-0.3c0.5-0.6,0.8-1.6,1.4-1.7   L536.8,379.3z M527.8,349.5c-0.6-0.2-1.0-1.0-0.6-1.5   c0.1-0.2,0.4-0.1,0.5-0.3c0.1-0.2,0.1-0.5,0.1-0.8   c-0.0-0.3-0.1-0.6-0.2-0.9c-0.0-0.3-0.1-0.6-0.1-1.0   c-0.0-0.5,0.0-1.1,0.3-1.5c0.2-0.2,0.4-0.4,0.8-0.6   c0.1,0.1-0.0,0.5-0.0,0.8c0.0,0.3,0.1,0.7,0.2,1.1   c0.2,0.5,0.4,0.8,0.7,1.3c0.2,0.4,0.3,0.8,0.4,1.3   c0.0,0.3-0.0,0.7-0.2,1.1c-0.1,0.3-0.3,0.6-0.6,0.8   c-0.2,0.2-0.5,0.3-0.7,0.4c-0.2,0.0-0.4-0.0-0.6-0.1   L527.8,349.5z" />
        </g>
        <use xlink:href="#HaskellSvgIcons-adCoA-cow" transform="translate(0.0 36.5)" />
        <path fill="none" stroke="#713F2A" stroke-width="0.8" d="M412.6,249.2h82.1v82.0h-82.1V249.2z   M503.6,249.2h82.1v82.0h-82.1V249.2z M412.9,402.4  c0.3,2.3,1.0,4.5,2.1,6.6c1.4,2.3,0.9,2.2,4.2,6  c1.8,1.8,3.9,3.3,6.2,4.4c2.1,1.1,4.4,1.9,6.8,2.4  c5.3,1.4,10.9,1.9,16.5,1.5c3.4-0.1,6.8-0.5,10.2-1.0  c3.6-0.5,7.3-0.8,11.1-1.0c2.1-0.0,4.1-0.1,6.1,0  c2.4,0.1,4.8,0.4,7.3,1.0c3.7,0.7,7.3,1.8,10.9,3.1  l0.0-85.6l-82.1-0.0v58.5c0,0,0.1,2.8,0.3,3.8H412.9z   M585.4,402.3c-0.3,2.3-1.0,4.5-2.1,6.6  c-1.4,2.3-0.9,2.2-4.2,6.0c-1.8,1.8-3.9,3.3-6.2,4.4  c-2.1,1.1-4.4,1.9-6.8,2.4c-5.3,1.4-10.9,1.9-16.5,1.5  c-3.4-0.1-6.8-0.5-10.2-1.0c-3.6-0.5-7.3-0.8-11.1-1.0  c-2.1-0.0-4.1-0.1-6.1,0c-2.4,0.1-4.8,0.4-7.3,1.0  c-3.7,0.8-7.4,1.8-11.0,3.1l0.0-85.6l82.1-0.0v58.5  c0,0-0.1,2.8-0.3,3.8L585.4,402.3z" />
    </g>
</svg>
