<?xml version="1.0" encoding="UTF-8"?>
<!DOCTYPE svg PUBLIC "-//W3C//DTD SVG 1.1//EN"
    "http://www.w3.org/Graphics/SVG/1.1/DTD/svg11.dtd">

<svg viewBox="0 0 90 45" width="400px" height="200px" xmlns="http://www.w3.org/2000/svg" xmlns:xlink="http://www.w3.org/1999/xlink">
    <rect x="10.0" y="0.0" width="80.0" height="30.0" stroke="none" fill="#CF101A" />
    <rect x="10.0" y="30.0" width="80.0" height="15.0" stroke="none" fill="#007D2C" />
    <rect x="1.0" y="0.0" width="9.0" height="45.0" stroke="none" fill="#FFFFFF" />
    <path fill="none" stroke="#CF101A" stroke-width="0.4347826" d="M 1.9565216,0.0 v 0.73770493 M 2.3913043,0.0 v 0.73770493 M 2.8260868,0.0 v 0.73770493 M 5.0,0.0 v 0.73770493 M 8.043479,0.0 v 0.73770493 M 7.6086955,0.0 v 0.73770493 M 7.173913,0.0 v 0.73770493 M 0.2173913,0.73770493 v 0.73770493 M 1.521739,0.73770493 v 0.73770493 M 1.9565216,0.73770493 v 0.73770493 M 2.3913043,0.73770493 v 0.73770493 M 2.8260868,0.73770493 v 0.73770493 M 3.2608695,0.73770493 v 0.73770493 M 5.0,0.73770493 v 0.73770493 M 9.782609,0.73770493 v 0.73770493 M 8.478261,0.73770493 v 0.73770493 M 8.043479,0.73770493 v 0.73770493 M 7.6086955,0.73770493 v 0.73770493 M 7.173913,0.73770493 v 0.73770493 M 6.7391305,0.73770493 v 0.73770493 M 1.0869565,1.4754099 v 0.73770493 M 1.521739,1.4754099 v 0.73770493 M 1.9565216,1.4754099 v 0.73770493 M 2.8260868,1.4754099 v 0.73770493 M 3.2608695,1.4754099 v 0.73770493 M 3.695652,1.4754099 v 0.73770493 M 8.913044,1.4754099 v 0.73770493 M 8.478261,1.4754099 v 0.73770493 M 8.043479,1.4754099 v 0.73770493 M 7.173913,1.4754099 v 0.73770493 M 6.7391305,1.4754099 v 0.73770493 M 6.3043475,1.4754099 v 0.73770493 M 0.6521739,2.2131147 v 0.73770493 M 1.0869565,2.2131147 v 0.73770493 M 1.521739,2.2131147 v 0.73770493 M 3.2608695,2.2131147 v 0.73770493 M 3.695652,2.2131147 v 0.73770493 M 4.1304345,2.2131147 v 0.73770493 M 9.347826,2.2131147 v 0.73770493 M 8.913044,2.2131147 v 0.73770493 M 8.478261,2.2131147 v 0.73770493 M 6.7391305,2.2131147 v 0.73770493 M 6.3043475,2.2131147 v 0.73770493 M 5.8695655,2.2131147 v 0.73770493 M 0.2173913,2.9508197 v 0.73770493 M 0.6521739,2.9508197 v 0.73770493 M 1.0869565,2.9508197 v 0.73770493 M 2.3913043,2.9508197 v 0.73770493 M 3.695652,2.9508197 v 0.73770493 M 4.1304345,2.9508197 v 0.73770493 M 4.5652175,2.9508197 v 0.73770493 M 9.782609,2.9508197 v 0.73770493 M 9.347826,2.9508197 v 0.73770493 M 8.913044,2.9508197 v 0.73770493 M 7.6086955,2.9508197 v 0.73770493 M 6.3043475,2.9508197 v 0.73770493 M 5.8695655,2.9508197 v 0.73770493 M 5.4347825,2.9508197 v 0.73770493 M 0.6521739,3.6885247 v 0.73770493 M 1.0869565,3.6885247 v 0.73770493 M 1.521739,3.6885247 v 0.73770493 M 3.2608695,3.6885247 v 0.73770493 M 3.695652,3.6885247 v 0.73770493 M 4.1304345,3.6885247 v 0.73770493 M 9.347826,3.6885247 v 0.73770493 M 8.913044,3.6885247 v 0.73770493 M 8.478261,3.6885247 v 0.73770493 M 6.7391305,3.6885247 v 0.73770493 M 6.3043475,3.6885247 v 0.73770493 M 5.8695655,3.6885247 v 0.73770493 M 1.0869565,4.4262295 v 0.73770493 M 1.521739,4.4262295 v 0.73770493 M 1.9565216,4.4262295 v 0.73770493 M 2.8260868,4.4262295 v 0.73770493 M 3.2608695,4.4262295 v 0.73770493 M 3.695652,4.4262295 v 0.73770493 M 8.913044,4.4262295 v 0.73770493 M 8.478261,4.4262295 v 0.73770493 M 8.043479,4.4262295 v 0.73770493 M 7.173913,4.4262295 v 0.73770493 M 6.7391305,4.4262295 v 0.73770493 M 6.3043475,4.4262295 v 0.73770493 M 0.2173913,5.1639347 v 0.73770493 M 1.521739,5.1639347 v 0.73770493 M 1.9565216,5.1639347 v 0.73770493 M 2.3913043,5.1639347 v 0.73770493 M 2.8260868,5.1639347 v 0.73770493 M 3.2608695,5.1639347 v 0.73770493 M 5.0,5.1639347 v 0.73770493 M 9.782609,5.1639347 v 0.73770493 M 8.478261,5.1639347 v 0.73770493 M 8.043479,5.1639347 v 0.73770493 M 7.6086955,5.1639347 v 0.73770493 M 7.173913,5.1639347 v 0.73770493 M 6.7391305,5.1639347 v 0.73770493 M 1.9565216,5.9016395 v 0.73770493 M 2.3913043,5.9016395 v 0.73770493 M 2.8260868,5.9016395 v 0.73770493 M 5.0,5.9016395 v 0.73770493 M 8.043479,5.9016395 v 0.73770493 M 7.6086955,5.9016395 v 0.73770493 M 7.173913,5.9016395 v 0.73770493 M 1.0869565,6.639344 v 0.73770493 M 2.3913043,6.639344 v 0.73770493 M 3.695652,6.639344 v 0.73770493 M 8.913044,6.639344 v 0.73770493 M 7.6086955,6.639344 v 0.73770493 M 6.3043475,6.639344 v 0.73770493 M 0.6521739,7.3770494 v 0.73770493 M 1.0869565,7.3770494 v 0.73770493 M 1.521739,7.3770494 v 0.73770493 M 3.2608695,7.3770494 v 0.73770493 M 3.695652,7.3770494 v 0.73770493 M 4.1304345,7.3770494 v 0.73770493 M 9.347826,7.3770494 v 0.73770493 M 8.913044,7.3770494 v 0.73770493 M 8.478261,7.3770494 v 0.73770493 M 6.7391305,7.3770494 v 0.73770493 M 6.3043475,7.3770494 v 0.73770493 M 5.8695655,7.3770494 v 0.73770493 M 0.2173913,8.114755 v 0.73770493 M 0.6521739,8.114755 v 0.73770493 M 1.521739,8.114755 v 0.73770493 M 1.9565216,8.114755 v 0.73770493 M 2.8260868,8.114755 v 0.73770493 M 3.2608695,8.114755 v 0.73770493 M 4.1304345,8.114755 v 0.73770493 M 4.5652175,8.114755 v 0.73770493 M 9.782609,8.114755 v 0.73770493 M 9.347826,8.114755 v 0.73770493 M 8.478261,8.114755 v 0.73770493 M 8.043479,8.114755 v 0.73770493 M 7.173913,8.114755 v 0.73770493 M 6.7391305,8.114755 v 0.73770493 M 5.8695655,8.114755 v 0.73770493 M 5.4347825,8.114755 v 0.73770493 M 0.6521739,8.852459 v 0.73770493 M 1.0869565,8.852459 v 0.73770493 M 1.521739,8.852459 v 0.73770493 M 3.2608695,8.852459 v 0.73770493 M 3.695652,8.852459 v 0.73770493 M 4.1304345,8.852459 v 0.73770493 M 9.347826,8.852459 v 0.73770493 M 8.913044,8.852459 v 0.73770493 M 8.478261,8.852459 v 0.73770493 M 6.7391305,8.852459 v 0.73770493 M 6.3043475,8.852459 v 0.73770493 M 5.8695655,8.852459 v 0.73770493 M 1.0869565,9.590164 v 0.73770493 M 2.3913043,9.590164 v 0.73770493 M 3.695652,9.590164 v 0.73770493 M 8.913044,9.590164 v 0.73770493 M 7.6086955,9.590164 v 0.73770493 M 6.3043475,9.590164 v 0.73770493 M 1.9565216,10.327869 v 0.73770493 M 2.3913043,10.327869 v 0.73770493 M 2.8260868,10.327869 v 0.73770493 M 5.0,10.327869 v 0.73770493 M 8.043479,10.327869 v 0.73770493 M 7.6086955,10.327869 v 0.73770493 M 7.173913,10.327869 v 0.73770493 M 0.2173913,11.065574 v 0.73770493 M 1.521739,11.065574 v 0.73770493 M 1.9565216,11.065574 v 0.73770493 M 2.3913043,11.065574 v 0.73770493 M 2.8260868,11.065574 v 0.73770493 M 3.2608695,11.065574 v 0.73770493 M 5.0,11.065574 v 0.73770493 M 9.782609,11.065574 v 0.73770493 M 8.478261,11.065574 v 0.73770493 M 8.043479,11.065574 v 0.73770493 M 7.6086955,11.065574 v 0.73770493 M 7.173913,11.065574 v 0.73770493 M 6.7391305,11.065574 v 0.73770493 M 1.0869565,11.803279 v 0.73770493 M 1.521739,11.803279 v 0.73770493 M 1.9565216,11.803279 v 0.73770493 M 2.3913043,11.803279 v 0.73770493 M 2.8260868,11.803279 v 0.73770493 M 3.2608695,11.803279 v 0.73770493 M 3.695652,11.803279 v 0.73770493 M 8.913044,11.803279 v 0.73770493 M 8.478261,11.803279 v 0.73770493 M 8.043479,11.803279 v 0.73770493 M 7.6086955,11.803279 v 0.73770493 M 7.173913,11.803279 v 0.73770493 M 6.7391305,11.803279 v 0.73770493 M 6.3043475,11.803279 v 0.73770493 M 0.6521739,12.540984 v 0.73770493 M 1.0869565,12.540984 v 0.73770493 M 1.521739,12.540984 v 0.73770493 M 1.9565216,12.540984 v 0.73770493 M 2.3913043,12.540984 v 0.73770493 M 2.8260868,12.540984 v 0.73770493 M 3.2608695,12.540984 v 0.73770493 M 3.695652,12.540984 v 0.73770493 M 4.1304345,12.540984 v 0.73770493 M 9.347826,12.540984 v 0.73770493 M 8.913044,12.540984 v 0.73770493 M 8.478261,12.540984 v 0.73770493 M 8.043479,12.540984 v 0.73770493 M 7.6086955,12.540984 v 0.73770493 M 7.173913,12.540984 v 0.73770493 M 6.7391305,12.540984 v 0.73770493 M 6.3043475,12.540984 v 0.73770493 M 5.8695655,12.540984 v 0.73770493 M 0.2173913,13.278688 v 0.73770493 M 0.6521739,13.278688 v 0.73770493 M 1.0869565,13.278688 v 0.73770493 M 1.521739,13.278688 v 0.73770493 M 1.9565216,13.278688 v 0.73770493 M 2.3913043,13.278688 v 0.73770493 M 2.8260868,13.278688 v 0.73770493 M 3.2608695,13.278688 v 0.73770493 M 3.695652,13.278688 v 0.73770493 M 4.1304345,13.278688 v 0.73770493 M 4.5652175,13.278688 v 0.73770493 M 9.782609,13.278688 v 0.73770493 M 9.347826,13.278688 v 0.73770493 M 8.913044,13.278688 v 0.73770493 M 8.478261,13.278688 v 0.73770493 M 8.043479,13.278688 v 0.73770493 M 7.6086955,13.278688 v 0.73770493 M 7.173913,13.278688 v 0.73770493 M 6.7391305,13.278688 v 0.73770493 M 6.3043475,13.278688 v 0.73770493 M 5.8695655,13.278688 v 0.73770493 M 5.4347825,13.278688 v 0.73770493 M 0.2173913,14.016394 v 0.73770493 M 0.6521739,14.016394 v 0.73770493 M 1.0869565,14.016394 v 0.73770493 M 1.521739,14.016394 v 0.73770493 M 3.2608695,14.016394 v 0.73770493 M 3.695652,14.016394 v 0.73770493 M 4.1304345,14.016394 v 0.73770493 M 4.5652175,14.016394 v 0.73770493 M 5.0,14.016394 v 0.73770493 M 9.782609,14.016394 v 0.73770493 M 9.347826,14.016394 v 0.73770493 M 8.913044,14.016394 v 0.73770493 M 8.478261,14.016394 v 0.73770493 M 6.7391305,14.016394 v 0.73770493 M 6.3043475,14.016394 v 0.73770493 M 5.8695655,14.016394 v 0.73770493 M 5.4347825,14.016394 v 0.73770493 M 0.6521739,14.754099 v 0.73770493 M 1.0869565,14.754099 v 0.73770493 M 1.521739,14.754099 v 0.73770493 M 1.9565216,14.754099 v 0.73770493 M 2.3913043,14.754099 v 0.73770493 M 3.695652,14.754099 v 0.73770493 M 4.1304345,14.754099 v 0.73770493 M 4.5652175,14.754099 v 0.73770493 M 5.0,14.754099 v 0.73770493 M 9.347826,14.754099 v 0.73770493 M 8.913044,14.754099 v 0.73770493 M 8.478261,14.754099 v 0.73770493 M 8.043479,14.754099 v 0.73770493 M 7.6086955,14.754099 v 0.73770493 M 6.3043475,14.754099 v 0.73770493 M 5.8695655,14.754099 v 0.73770493 M 5.4347825,14.754099 v 0.73770493 M 1.0869565,15.491803 v 0.73770493 M 1.521739,15.491803 v 0.73770493 M 1.9565216,15.491803 v 0.73770493 M 4.1304345,15.491803 v 0.73770493 M 4.5652175,15.491803 v 0.73770493 M 5.0,15.491803 v 0.73770493 M 8.913044,15.491803 v 0.73770493 M 8.478261,15.491803 v 0.73770493 M 8.043479,15.491803 v 0.73770493 M 5.8695655,15.491803 v 0.73770493 M 5.4347825,15.491803 v 0.73770493 M 0.2173913,16.22951 v 0.73770493 M 1.521739,16.22951 v 0.73770493 M 3.695652,16.22951 v 0.73770493 M 4.1304345,16.22951 v 0.73770493 M 4.5652175,16.22951 v 0.73770493 M 5.0,16.22951 v 0.73770493 M 9.782609,16.22951 v 0.73770493 M 8.478261,16.22951 v 0.73770493 M 6.3043475,16.22951 v 0.73770493 M 5.8695655,16.22951 v 0.73770493 M 5.4347825,16.22951 v 0.73770493 M 3.2608695,16.967213 v 0.73770493 M 3.695652,16.967213 v 0.73770493 M 4.1304345,16.967213 v 0.73770493 M 4.5652175,16.967213 v 0.73770493 M 6.7391305,16.967213 v 0.73770493 M 6.3043475,16.967213 v 0.73770493 M 5.8695655,16.967213 v 0.73770493 M 5.4347825,16.967213 v 0.73770493 M 0.2173913,17.704918 v 0.73770493 M 2.8260868,17.704918 v 0.73770493 M 3.2608695,17.704918 v 0.73770493 M 3.695652,17.704918 v 0.73770493 M 4.1304345,17.704918 v 0.73770493 M 9.782609,17.704918 v 0.73770493 M 7.173913,17.704918 v 0.73770493 M 6.7391305,17.704918 v 0.73770493 M 6.3043475,17.704918 v 0.73770493 M 5.8695655,17.704918 v 0.73770493 M 0.2173913,18.442623 v 0.73770493 M 0.6521739,18.442623 v 0.73770493 M 2.3913043,18.442623 v 0.73770493 M 2.8260868,18.442623 v 0.73770493 M 3.2608695,18.442623 v 0.73770493 M 3.695652,18.442623 v 0.73770493 M 5.0,18.442623 v 0.73770493 M 9.782609,18.442623 v 0.73770493 M 9.347826,18.442623 v 0.73770493 M 7.6086955,18.442623 v 0.73770493 M 7.173913,18.442623 v 0.73770493 M 6.7391305,18.442623 v 0.73770493 M 6.3043475,18.442623 v 0.73770493 M 0.2173913,19.180328 v 0.73770493 M 0.6521739,19.180328 v 0.73770493 M 1.0869565,19.180328 v 0.73770493 M 1.9565216,19.180328 v 0.73770493 M 2.3913043,19.180328 v 0.73770493 M 2.8260868,19.180328 v 0.73770493 M 3.2608695,19.180328 v 0.73770493 M 9.782609,19.180328 v 0.73770493 M 9.347826,19.180328 v 0.73770493 M 8.913044,19.180328 v 0.73770493 M 8.043479,19.180328 v 0.73770493 M 7.6086955,19.180328 v 0.73770493 M 7.173913,19.180328 v 0.73770493 M 6.7391305,19.180328 v 0.73770493 M 0.6521739,19.918034 v 0.73770493 M 1.0869565,19.918034 v 0.73770493 M 1.521739,19.918034 v 0.73770493 M 1.9565216,19.918034 v 0.73770493 M 2.3913043,19.918034 v 0.73770493 M 2.8260868,19.918034 v 0.73770493 M 4.1304345,19.918034 v 0.73770493 M 9.347826,19.918034 v 0.73770493 M 8.913044,19.918034 v 0.73770493 M 8.478261,19.918034 v 0.73770493 M 8.043479,19.918034 v 0.73770493 M 7.6086955,19.918034 v 0.73770493 M 7.173913,19.918034 v 0.73770493 M 5.8695655,19.918034 v 0.73770493 M 1.0869565,20.655739 v 0.73770493 M 1.521739,20.655739 v 0.73770493 M 1.9565216,20.655739 v 0.73770493 M 2.3913043,20.655739 v 0.73770493 M 4.1304345,20.655739 v 0.73770493 M 4.5652175,20.655739 v 0.73770493 M 8.913044,20.655739 v 0.73770493 M 8.478261,20.655739 v 0.73770493 M 8.043479,20.655739 v 0.73770493 M 7.6086955,20.655739 v 0.73770493 M 5.8695655,20.655739 v 0.73770493 M 5.4347825,20.655739 v 0.73770493 M 1.521739,21.393442 v 0.73770493 M 1.9565216,21.393442 v 0.73770493 M 2.3913043,21.393442 v 0.73770493 M 4.5652175,21.393442 v 0.73770493 M 5.0,21.393442 v 0.73770493 M 8.478261,21.393442 v 0.73770493 M 8.043479,21.393442 v 0.73770493 M 7.6086955,21.393442 v 0.73770493 M 5.4347825,21.393442 v 0.73770493 M 1.9565216,22.131147 v 0.73770493 M 2.3913043,22.131147 v 0.73770493 M 3.2608695,22.131147 v 0.73770493 M 5.0,22.131147 v 0.73770493 M 8.043479,22.131147 v 0.73770493 M 7.6086955,22.131147 v 0.73770493 M 6.7391305,22.131147 v 0.73770493 M 1.521739,22.868853 v 0.73770493 M 1.9565216,22.868853 v 0.73770493 M 2.3913043,22.868853 v 0.73770493 M 4.5652175,22.868853 v 0.73770493 M 5.0,22.868853 v 0.73770493 M 8.478261,22.868853 v 0.73770493 M 8.043479,22.868853 v 0.73770493 M 7.6086955,22.868853 v 0.73770493 M 5.4347825,22.868853 v 0.73770493 M 1.0869565,23.606558 v 0.73770493 M 1.521739,23.606558 v 0.73770493 M 1.9565216,23.606558 v 0.73770493 M 2.3913043,23.606558 v 0.73770493 M 4.1304345,23.606558 v 0.73770493 M 4.5652175,23.606558 v 0.73770493 M 8.913044,23.606558 v 0.73770493 M 8.478261,23.606558 v 0.73770493 M 8.043479,23.606558 v 0.73770493 M 7.6086955,23.606558 v 0.73770493 M 5.8695655,23.606558 v 0.73770493 M 5.4347825,23.606558 v 0.73770493 M 0.6521739,24.344263 v 0.73770493 M 1.0869565,24.344263 v 0.73770493 M 1.521739,24.344263 v 0.73770493 M 1.9565216,24.344263 v 0.73770493 M 2.3913043,24.344263 v 0.73770493 M 2.8260868,24.344263 v 0.73770493 M 4.1304345,24.344263 v 0.73770493 M 9.347826,24.344263 v 0.73770493 M 8.913044,24.344263 v 0.73770493 M 8.478261,24.344263 v 0.73770493 M 8.043479,24.344263 v 0.73770493 M 7.6086955,24.344263 v 0.73770493 M 7.173913,24.344263 v 0.73770493 M 5.8695655,24.344263 v 0.73770493 M 0.2173913,25.081968 v 0.73770493 M 0.6521739,25.081968 v 0.73770493 M 1.0869565,25.081968 v 0.73770493 M 1.9565216,25.081968 v 0.73770493 M 2.3913043,25.081968 v 0.73770493 M 2.8260868,25.081968 v 0.73770493 M 3.2608695,25.081968 v 0.73770493 M 9.782609,25.081968 v 0.73770493 M 9.347826,25.081968 v 0.73770493 M 8.913044,25.081968 v 0.73770493 M 8.043479,25.081968 v 0.73770493 M 7.6086955,25.081968 v 0.73770493 M 7.173913,25.081968 v 0.73770493 M 6.7391305,25.081968 v 0.73770493 M 0.2173913,25.819674 v 0.73770493 M 0.6521739,25.819674 v 0.73770493 M 2.3913043,25.819674 v 0.73770493 M 2.8260868,25.819674 v 0.73770493 M 3.2608695,25.819674 v 0.73770493 M 3.695652,25.819674 v 0.73770493 M 5.0,25.819674 v 0.73770493 M 9.782609,25.819674 v 0.73770493 M 9.347826,25.819674 v 0.73770493 M 7.6086955,25.819674 v 0.73770493 M 7.173913,25.819674 v 0.73770493 M 6.7391305,25.819674 v 0.73770493 M 6.3043475,25.819674 v 0.73770493 M 0.2173913,26.557377 v 0.73770493 M 2.8260868,26.557377 v 0.73770493 M 3.2608695,26.557377 v 0.73770493 M 3.695652,26.557377 v 0.73770493 M 4.1304345,26.557377 v 0.73770493 M 9.782609,26.557377 v 0.73770493 M 7.173913,26.557377 v 0.73770493 M 6.7391305,26.557377 v 0.73770493 M 6.3043475,26.557377 v 0.73770493 M 5.8695655,26.557377 v 0.73770493 M 3.2608695,27.295082 v 0.73770493 M 3.695652,27.295082 v 0.73770493 M 4.1304345,27.295082 v 0.73770493 M 4.5652175,27.295082 v 0.73770493 M 6.7391305,27.295082 v 0.73770493 M 6.3043475,27.295082 v 0.73770493 M 5.8695655,27.295082 v 0.73770493 M 5.4347825,27.295082 v 0.73770493 M 0.2173913,28.032787 v 0.73770493 M 1.521739,28.032787 v 0.73770493 M 3.695652,28.032787 v 0.73770493 M 4.1304345,28.032787 v 0.73770493 M 4.5652175,28.032787 v 0.73770493 M 5.0,28.032787 v 0.73770493 M 9.782609,28.032787 v 0.73770493 M 8.478261,28.032787 v 0.73770493 M 6.3043475,28.032787 v 0.73770493 M 5.8695655,28.032787 v 0.73770493 M 5.4347825,28.032787 v 0.73770493 M 1.0869565,28.770493 v 0.73770493 M 1.521739,28.770493 v 0.73770493 M 1.9565216,28.770493 v 0.73770493 M 4.1304345,28.770493 v 0.73770493 M 4.5652175,28.770493 v 0.73770493 M 5.0,28.770493 v 0.73770493 M 8.913044,28.770493 v 0.73770493 M 8.478261,28.770493 v 0.73770493 M 8.043479,28.770493 v 0.73770493 M 5.8695655,28.770493 v 0.73770493 M 5.4347825,28.770493 v 0.73770493 M 0.6521739,29.508198 v 0.73770493 M 1.0869565,29.508198 v 0.73770493 M 1.521739,29.508198 v 0.73770493 M 1.9565216,29.508198 v 0.73770493 M 2.3913043,29.508198 v 0.73770493 M 3.695652,29.508198 v 0.73770493 M 4.1304345,29.508198 v 0.73770493 M 4.5652175,29.508198 v 0.73770493 M 5.0,29.508198 v 0.73770493 M 9.347826,29.508198 v 0.73770493 M 8.913044,29.508198 v 0.73770493 M 8.478261,29.508198 v 0.73770493 M 8.043479,29.508198 v 0.73770493 M 7.6086955,29.508198 v 0.73770493 M 6.3043475,29.508198 v 0.73770493 M 5.8695655,29.508198 v 0.73770493 M 5.4347825,29.508198 v 0.73770493 M 0.2173913,30.245903 v 0.73770493 M 0.6521739,30.245903 v 0.73770493 M 1.0869565,30.245903 v 0.73770493 M 1.521739,30.245903 v 0.73770493 M 3.2608695,30.245903 v 0.73770493 M 3.695652,30.245903 v 0.73770493 M 4.1304345,30.245903 v 0.73770493 M 4.5652175,30.245903 v 0.73770493 M 5.0,30.245903 v 0.73770493 M 9.782609,30.245903 v 0.73770493 M 9.347826,30.245903 v 0.73770493 M 8.913044,30.245903 v 0.73770493 M 8.478261,30.245903 v 0.73770493 M 6.7391305,30.245903 v 0.73770493 M 6.3043475,30.245903 v 0.73770493 M 5.8695655,30.245903 v 0.73770493 M 5.4347825,30.245903 v 0.73770493 M 0.2173913,30.983606 v 0.73770493 M 0.6521739,30.983606 v 0.73770493 M 1.0869565,30.983606 v 0.73770493 M 1.521739,30.983606 v 0.73770493 M 1.9565216,30.983606 v 0.73770493 M 2.3913043,30.983606 v 0.73770493 M 2.8260868,30.983606 v 0.73770493 M 3.2608695,30.983606 v 0.73770493 M 3.695652,30.983606 v 0.73770493 M 4.1304345,30.983606 v 0.73770493 M 4.5652175,30.983606 v 0.73770493 M 9.782609,30.983606 v 0.73770493 M 9.347826,30.983606 v 0.73770493 M 8.913044,30.983606 v 0.73770493 M 8.478261,30.983606 v 0.73770493 M 8.043479,30.983606 v 0.73770493 M 7.6086955,30.983606 v 0.73770493 M 7.173913,30.983606 v 0.73770493 M 6.7391305,30.983606 v 0.73770493 M 6.3043475,30.983606 v 0.73770493 M 5.8695655,30.983606 v 0.73770493 M 5.4347825,30.983606 v 0.73770493 M 0.6521739,31.721312 v 0.73770493 M 1.0869565,31.721312 v 0.73770493 M 1.521739,31.721312 v 0.73770493 M 1.9565216,31.721312 v 0.73770493 M 2.3913043,31.721312 v 0.73770493 M 2.8260868,31.721312 v 0.73770493 M 3.2608695,31.721312 v 0.73770493 M 3.695652,31.721312 v 0.73770493 M 4.1304345,31.721312 v 0.73770493 M 9.347826,31.721312 v 0.73770493 M 8.913044,31.721312 v 0.73770493 M 8.478261,31.721312 v 0.73770493 M 8.043479,31.721312 v 0.73770493 M 7.6086955,31.721312 v 0.73770493 M 7.173913,31.721312 v 0.73770493 M 6.7391305,31.721312 v 0.73770493 M 6.3043475,31.721312 v 0.73770493 M 5.8695655,31.721312 v 0.73770493 M 1.0869565,32.45902 v 0.73770493 M 1.521739,32.45902 v 0.73770493 M 1.9565216,32.45902 v 0.73770493 M 2.3913043,32.45902 v 0.73770493 M 2.8260868,32.45902 v 0.73770493 M 3.2608695,32.45902 v 0.73770493 M 3.695652,32.45902 v 0.73770493 M 8.913044,32.45902 v 0.73770493 M 8.478261,32.45902 v 0.73770493 M 8.043479,32.45902 v 0.73770493 M 7.6086955,32.45902 v 0.73770493 M 7.173913,32.45902 v 0.73770493 M 6.7391305,32.45902 v 0.73770493 M 6.3043475,32.45902 v 0.73770493 M 0.2173913,33.19672 v 0.73770493 M 1.521739,33.19672 v 0.73770493 M 1.9565216,33.19672 v 0.73770493 M 2.3913043,33.19672 v 0.73770493 M 2.8260868,33.19672 v 0.73770493 M 3.2608695,33.19672 v 0.73770493 M 5.0,33.19672 v 0.73770493 M 9.782609,33.19672 v 0.73770493 M 8.478261,33.19672 v 0.73770493 M 8.043479,33.19672 v 0.73770493 M 7.6086955,33.19672 v 0.73770493 M 7.173913,33.19672 v 0.73770493 M 6.7391305,33.19672 v 0.73770493 M 1.9565216,33.934425 v 0.73770493 M 2.3913043,33.934425 v 0.73770493 M 2.8260868,33.934425 v 0.73770493 M 5.0,33.934425 v 0.73770493 M 8.043479,33.934425 v 0.73770493 M 7.6086955,33.934425 v 0.73770493 M 7.173913,33.934425 v 0.73770493 M 1.0869565,34.67213 v 0.73770493 M 2.3913043,34.67213 v 0.73770493 M 3.695652,34.67213 v 0.73770493 M 8.913044,34.67213 v 0.73770493 M 7.6086955,34.67213 v 0.73770493 M 6.3043475,34.67213 v 0.73770493 M 0.6521739,35.409836 v 0.73770493 M 1.0869565,35.409836 v 0.73770493 M 1.521739,35.409836 v 0.73770493 M 3.2608695,35.409836 v 0.73770493 M 3.695652,35.409836 v 0.73770493 M 4.1304345,35.409836 v 0.73770493 M 9.347826,35.409836 v 0.73770493 M 8.913044,35.409836 v 0.73770493 M 8.478261,35.409836 v 0.73770493 M 6.7391305,35.409836 v 0.73770493 M 6.3043475,35.409836 v 0.73770493 M 5.8695655,35.409836 v 0.73770493 M 0.2173913,36.14754 v 0.73770493 M 0.6521739,36.14754 v 0.73770493 M 1.521739,36.14754 v 0.73770493 M 1.9565216,36.14754 v 0.73770493 M 2.8260868,36.14754 v 0.73770493 M 3.2608695,36.14754 v 0.73770493 M 4.1304345,36.14754 v 0.73770493 M 4.5652175,36.14754 v 0.73770493 M 9.782609,36.14754 v 0.73770493 M 9.347826,36.14754 v 0.73770493 M 8.478261,36.14754 v 0.73770493 M 8.043479,36.14754 v 0.73770493 M 7.173913,36.14754 v 0.73770493 M 6.7391305,36.14754 v 0.73770493 M 5.8695655,36.14754 v 0.73770493 M 5.4347825,36.14754 v 0.73770493 M 0.6521739,36.885246 v 0.73770493 M 1.0869565,36.885246 v 0.73770493 M 1.521739,36.885246 v 0.73770493 M 3.2608695,36.885246 v 0.73770493 M 3.695652,36.885246 v 0.73770493 M 4.1304345,36.885246 v 0.73770493 M 9.347826,36.885246 v 0.73770493 M 8.913044,36.885246 v 0.73770493 M 8.478261,36.885246 v 0.73770493 M 6.7391305,36.885246 v 0.73770493 M 6.3043475,36.885246 v 0.73770493 M 5.8695655,36.885246 v 0.73770493 M 1.0869565,37.62295 v 0.73770493 M 2.3913043,37.62295 v 0.73770493 M 3.695652,37.62295 v 0.73770493 M 8.913044,37.62295 v 0.73770493 M 7.6086955,37.62295 v 0.73770493 M 6.3043475,37.62295 v 0.73770493 M 1.9565216,38.360657 v 0.73770493 M 2.3913043,38.360657 v 0.73770493 M 2.8260868,38.360657 v 0.73770493 M 5.0,38.360657 v 0.73770493 M 8.043479,38.360657 v 0.73770493 M 7.6086955,38.360657 v 0.73770493 M 7.173913,38.360657 v 0.73770493 M 0.2173913,39.098362 v 0.73770493 M 1.521739,39.098362 v 0.73770493 M 1.9565216,39.098362 v 0.73770493 M 2.3913043,39.098362 v 0.73770493 M 2.8260868,39.098362 v 0.73770493 M 3.2608695,39.098362 v 0.73770493 M 5.0,39.098362 v 0.73770493 M 9.782609,39.098362 v 0.73770493 M 8.478261,39.098362 v 0.73770493 M 8.043479,39.098362 v 0.73770493 M 7.6086955,39.098362 v 0.73770493 M 7.173913,39.098362 v 0.73770493 M 6.7391305,39.098362 v 0.73770493 M 1.0869565,39.836067 v 0.73770493 M 1.521739,39.836067 v 0.73770493 M 1.9565216,39.836067 v 0.73770493 M 2.8260868,39.836067 v 0.73770493 M 3.2608695,39.836067 v 0.73770493 M 3.695652,39.836067 v 0.73770493 M 8.913044,39.836067 v 0.73770493 M 8.478261,39.836067 v 0.73770493 M 8.043479,39.836067 v 0.73770493 M 7.173913,39.836067 v 0.73770493 M 6.7391305,39.836067 v 0.73770493 M 6.3043475,39.836067 v 0.73770493 M 0.6521739,40.573772 v 0.73770493 M 1.0869565,40.573772 v 0.73770493 M 1.521739,40.573772 v 0.73770493 M 3.2608695,40.573772 v 0.73770493 M 3.695652,40.573772 v 0.73770493 M 4.1304345,40.573772 v 0.73770493 M 9.347826,40.573772 v 0.73770493 M 8.913044,40.573772 v 0.73770493 M 8.478261,40.573772 v 0.73770493 M 6.7391305,40.573772 v 0.73770493 M 6.3043475,40.573772 v 0.73770493 M 5.8695655,40.573772 v 0.73770493 M 0.2173913,41.311478 v 0.73770493 M 0.6521739,41.311478 v 0.73770493 M 1.0869565,41.311478 v 0.73770493 M 2.3913043,41.311478 v 0.73770493 M 3.695652,41.311478 v 0.73770493 M 4.1304345,41.311478 v 0.73770493 M 4.5652175,41.311478 v 0.73770493 M 9.782609,41.311478 v 0.73770493 M 9.347826,41.311478 v 0.73770493 M 8.913044,41.311478 v 0.73770493 M 7.6086955,41.311478 v 0.73770493 M 6.3043475,41.311478 v 0.73770493 M 5.8695655,41.311478 v 0.73770493 M 5.4347825,41.311478 v 0.73770493 M 0.6521739,42.049183 v 0.73770493 M 1.0869565,42.049183 v 0.73770493 M 1.521739,42.049183 v 0.73770493 M 3.2608695,42.049183 v 0.73770493 M 3.695652,42.049183 v 0.73770493 M 4.1304345,42.049183 v 0.73770493 M 9.347826,42.049183 v 0.73770493 M 8.913044,42.049183 v 0.73770493 M 8.478261,42.049183 v 0.73770493 M 6.7391305,42.049183 v 0.73770493 M 6.3043475,42.049183 v 0.73770493 M 5.8695655,42.049183 v 0.73770493 M 1.0869565,42.786884 v 0.73770493 M 1.521739,42.786884 v 0.73770493 M 1.9565216,42.786884 v 0.73770493 M 2.8260868,42.786884 v 0.73770493 M 3.2608695,42.786884 v 0.73770493 M 3.695652,42.786884 v 0.73770493 M 8.913044,42.786884 v 0.73770493 M 8.478261,42.786884 v 0.73770493 M 8.043479,42.786884 v 0.73770493 M 7.173913,42.786884 v 0.73770493 M 6.7391305,42.786884 v 0.73770493 M 6.3043475,42.786884 v 0.73770493 M 0.2173913,43.52459 v 0.73770493 M 1.521739,43.52459 v 0.73770493 M 1.9565216,43.52459 v 0.73770493 M 2.3913043,43.52459 v 0.73770493 M 2.8260868,43.52459 v 0.73770493 M 3.2608695,43.52459 v 0.73770493 M 5.0,43.52459 v 0.73770493 M 9.782609,43.52459 v 0.73770493 M 8.478261,43.52459 v 0.73770493 M 8.043479,43.52459 v 0.73770493 M 7.6086955,43.52459 v 0.73770493 M 7.173913,43.52459 v 0.73770493 M 6.7391305,43.52459 v 0.73770493 M 1.9565216,44.262295 v 0.73770493 M 2.3913043,44.262295 v 0.73770493 M 2.8260868,44.262295 v 0.73770493 M 5.0,44.262295 v 0.73770493 M 8.043479,44.262295 v 0.73770493 M 7.6086955,44.262295 v 0.73770493 M 7.173913,44.262295 v 0.73770493 " />
</svg>
