<?xml version="1.0" encoding="UTF-8"?>
<!DOCTYPE svg PUBLIC "-//W3C//DTD SVG 1.1//EN"
    "http://www.w3.org/Graphics/SVG/1.1/DTD/svg11.dtd">

<svg viewBox="0 0 450 300" width="300" height="200" xmlns="http://www.w3.org/2000/svg" xmlns:xlink="http://www.w3.org/1999/xlink">
    <rect x="0" y="0" width="450" height="300" fill="#003893" />
    <rect x="0" y="150" width="450" height="75" fill="#FFFFFF" />
    <rect x="0" y="175" width="450" height="25" fill="#CF2027" />
    <g>
        <path d="M 168.75,250.0 L 171.55643,258.6373 L 180.63821,258.6373 L 173.2909,263.97543 L 176.09732,272.6127 L 168.75,267.27457 L 161.40268,272.6127 L 164.2091,263.97543 L 156.86179,258.6373 L 165.94357,258.6373 Z" fill="#F7D116" />
        <path d="M 124.66611,235.67627 L 127.472534,244.31355 L 136.55432,244.31355 L 129.207,249.65169 L 132.01343,258.28897 L 124.66611,252.95085 L 117.31879,258.28897 L 120.12521,249.65169 L 112.7779,244.31355 L 121.85968,244.31355 Z" fill="#F7D116" />
        <path d="M 97.42076,198.17627 L 100.22719,206.81355 L 109.30897,206.81355 L 101.961655,212.15169 L 104.768074,220.78899 L 97.42076,215.45085 L 90.07344,220.78899 L 92.87987,212.15169 L 85.532555,206.81355 L 94.614334,206.81355 Z" fill="#F7D116" />
        <path d="M 97.42076,151.82373 L 100.22719,160.46101 L 109.30897,160.46101 L 101.961655,165.79915 L 104.768074,174.43645 L 97.42076,169.09831 L 90.07344,174.43645 L 92.87987,165.79915 L 85.532555,160.46101 L 94.614334,160.46101 Z" fill="#F7D116" />
        <path d="M 124.66611,114.323715 L 127.472534,122.961006 L 136.55432,122.961006 L 129.207,128.29913 L 132.01343,136.93643 L 124.66611,131.5983 L 117.31879,136.93643 L 120.12521,128.29913 L 112.7779,122.961 L 121.85968,122.961 Z" fill="#F7D116" />
        <path d="M 168.75,100.0 L 171.55643,108.63729 L 180.63821,108.63729 L 173.2909,113.975426 L 176.09732,122.61272 L 168.75,117.274574 L 161.40268,122.61271 L 164.2091,113.975426 L 156.86179,108.63728 L 165.94357,108.63728 Z" fill="#F7D116" />
        <path d="M 212.8339,114.32373 L 215.64032,122.96102 L 224.7221,122.96102 L 217.37479,128.29915 L 220.18121,136.93645 L 212.8339,131.59831 L 205.48657,136.93645 L 208.293,128.29915 L 200.94568,122.96101 L 210.02747,122.96101 Z" fill="#F7D116" />
        <path d="M 240.07925,151.82375 L 242.88568,160.46103 L 251.96747,160.46103 L 244.62015,165.79916 L 247.42657,174.43646 L 240.07925,169.09833 L 232.73193,174.43646 L 235.53836,165.79916 L 228.19104,160.46103 L 237.27283,160.46103 Z" fill="#F7D116" />
        <path d="M 240.07924,198.17628 L 242.88567,206.81357 L 251.96744,206.81357 L 244.62013,212.1517 L 247.42656,220.789 L 240.07924,215.45087 L 232.73192,220.789 L 235.53835,212.1517 L 228.19104,206.81357 L 237.27281,206.81357 Z" fill="#F7D116" />
        <path d="M 212.8339,235.67627 L 215.64032,244.31355 L 224.7221,244.31355 L 217.37479,249.65169 L 220.18121,258.28897 L 212.8339,252.95085 L 205.48657,258.28897 L 208.293,249.65169 L 200.94568,244.31355 L 210.02747,244.31355 Z" fill="#F7D116" />
    </g>
</svg>
