<?xml version="1.0" encoding="UTF-8"?>
<!DOCTYPE svg PUBLIC "-//W3C//DTD SVG 1.1//EN"
    "http://www.w3.org/Graphics/SVG/1.1/DTD/svg11.dtd">

<svg viewBox="0 0 900 600" width="300px" height="200px" xmlns="http://www.w3.org/2000/svg" xmlns:xlink="http://www.w3.org/1999/xlink">
    <rect x="0.0" y="0.0" width="900.0" height="600.0" stroke="none" fill="#FFFFFF" />
    <defs>
        <path id="HaskellSvgIcons-cyFlagBranch" stroke="none" stroke-width="0" fill="#4E5B31" d="M 463.1,506.74 c -0.13,-0.05 -0.25,-0.14 -0.34,-0.24 l -0.12,-0.11 c -0.55,-0.51 -1.08,-1.06 -1.58,-1.64 c -1.33,-1.51 -3.11,-3.72 -4.69,-5.68 c -3.11,-3.88 -5.68,-7.22 -6.17,-7.85 l -0.79,-1.03 l -7.76,-2.39 l -5.67,-2.64 l 3.03,-3.40 l 10.40,4.45 l 7.76,1.59 l 14.36,10.56 l -0.01,0.00 c -0.02,0.02 -2.08,1.73 -4.13,3.6 c -0.91,0.83 -2.06,1.9 -2.87,2.78 c -0.33,0.35 -0.64,0.74 -0.93,1.14 c -0.17,0.28 -0.32,0.57 -0.46,0.88 M 409.76,490.72 c -7.00,-0.06 -13.87,-1.98 -19.89,-5.56 h -0.00 v -0.00 c 0.73,-1.22 1.71,-2.27 2.87,-3.1 c 1.94,-1.42 5.44,-3.12 11.1,-3.15 h 0.11 c 6.7,0 14.9,2.27 24.37,6.77 C 422.71,489.00 416.29,490.75 409.76,490.72 l 0.01,0.01 L 409.76,490.72 z M 380.39,484.21 c -1.19,0.02 -2.34,-0.46 -3.17,-1.33 c -0.70,-0.82 -1.19,-1.81 -1.42,-2.87 c -0.32,-1.38 -0.43,-2.80 -0.35,-4.21 c 0.49,-0.21 1.02,-0.33 1.56,-0.35 h 0.11 c 2.51,0 4.49,2.17 5.33,4.33 c 0.46,0.95 0.56,2.04 0.27,3.06 c -0.42,0.89 -1.35,1.43 -2.34,1.37 L 380.39,484.21 z M 432.07,478.22 c -17.35,-2.47 -24.71,-8.75 -27.83,-13.58 c -1.97,-2.93 -2.90,-6.43 -2.63,-9.96 v -0.01 h 0.01 c 0.87,-0.2 1.76,-0.29 2.65,-0.29 c 4.61,0 16.43,2.32 27.8,23.84 l 0.00,0.01 l -0.02,-0.01 L 432.07,478.22 z M 396.49,474.78 c -7.41,0 -13.06,-1.28 -16.78,-3.8 c -1.58,-1.01 -2.85,-2.44 -3.68,-4.12 c -0.30,-0.63 -0.50,-1.32 -0.59,-2.02 c 2.47,-1.00 5.1,-1.56 7.76,-1.65 c 0.38,-0.01 0.76,-0.02 1.17,-0.03 c 5.73,0 14.44,1.87 23.64,10.78 l 0.00,0.00 h -0.01 c -3.82,0.52 -7.67,0.80 -11.53,0.84 L 396.49,474.78 z M 360.58,473.40 c -7.82,0 -18.56,-2.38 -25.26,-9.08 l -0.00,-0.00 h 0.02 c 5.09,-1.20 10.29,-1.89 15.52,-2.06 c 0.48,-0.01 0.98,-0.01 1.47,-0.01 c 7.33,0 12.94,1.42 16.68,4.22 c 1.04,0.62 1.82,1.61 2.17,2.78 c 0.08,0.85 -0.32,1.69 -1.05,2.15 c -1.68,1.27 -4.69,1.94 -8.94,2.01 l -0.6,0.02 L 360.58,473.40 z M 335.24,460.40 c -0.95,0.00 -1.86,-0.42 -2.47,-1.16 c -0.56,-0.74 -0.94,-1.60 -1.10,-2.52 c -0.25,-1.20 -0.35,-2.44 -0.29,-3.67 v -0.01 c 0.38,-0.17 0.79,-0.27 1.21,-0.27 l 0,0 c 0.98,0.03 1.90,0.45 2.58,1.15 c 0.75,0.74 1.33,1.64 1.68,2.64 c 0.35,0.83 0.41,1.76 0.18,2.63 c -0.29,0.73 -1.00,1.21 -1.8,1.21 L 335.24,460.40 z M 393.77,459.08 c -1.19,0.02 -2.34,-0.46 -3.17,-1.33 c -0.70,-0.82 -1.19,-1.81 -1.42,-2.87 c -0.32,-1.38 -0.43,-2.80 -0.35,-4.21 c 0.49,-0.21 1.02,-0.33 1.56,-0.35 h 0.11 c 2.51,0 4.49,2.17 5.33,4.33 c 0.46,0.95 0.56,2.04 0.27,3.06 c -0.42,0.89 -1.35,1.43 -2.34,1.37 L 393.77,459.08 z M 365.26,457.90 c -15.73,-0.55 -23.9,-5.02 -27.98,-8.68 c -1.74,-1.53 -3.18,-3.37 -4.24,-5.44 c -0.39,-0.77 -0.69,-1.59 -0.90,-2.43 l 0.02,-0.00 c 1.26,-0.38 2.56,-0.57 3.88,-0.57 h 0.36 c 5.30,0 16.11,2.22 28.85,17.15 v 0.01 L 365.26,457.90 z M 382.35,456.31 c -12.66,-1.92 -19.83,-7.36 -23.62,-11.58 c -2.33,-2.51 -4.11,-5.48 -5.21,-8.73 c 1.28,-0.29 2.58,-0.45 3.9,-0.46 c 0.16,0 0.34,-0.00 0.52,-0.00 s 0.36,0 0.55,0.00 c 6.36,0.13 17.93,3.02 23.85,20.78 h 0.01 L 382.35,456.31 z M 317.35,450.23 c -4.03,0.01 -8.04,-0.46 -11.96,-1.43 c -6.62,-1.65 -9.47,-4.18 -10.69,-6.02 c -0.52,-0.75 -0.87,-1.62 -1.03,-2.53 c -0.05,-0.35 -0.06,-0.71 -0.03,-1.07 l 0.03,-0.01 c 3.42,-0.84 6.93,-1.29 10.46,-1.32 c 0.23,0 0.48,-0.00 0.72,-0.00 c 2.87,-0.00 5.74,0.27 8.56,0.83 c 6.39,1.33 12.09,4.93 16.05,10.14 v 0.00 h -0.01 c -3.96,0.97 -8.03,1.44 -12.12,1.42 L 317.35,450.23 z M 346.74,439.55 c -1.19,0.03 -2.34,-0.44 -3.17,-1.3 c -0.71,-0.83 -1.2,-1.83 -1.42,-2.90 c -0.32,-1.37 -0.43,-2.78 -0.35,-4.18 c 0.49,-0.21 1.02,-0.33 1.56,-0.35 h 0.11 c 2.50,0 4.48,2.17 5.33,4.33 c 0.45,0.94 0.53,2.02 0.24,3.03 c -0.40,0.89 -1.32,1.44 -2.31,1.38 L 346.74,439.55 z M 324.64,436.52 c -4.20,-1.19 -8.23,-2.94 -11.96,-5.22 c -5.54,-3.41 -12.32,-9.45 -13.15,-18.83 l 0,0 h 0.01 c 0.42,-0.09 0.84,-0.14 1.27,-0.15 c 0.1,0 0.21,-0.00 0.33,-0.00 c 1.65,0 5.04,0.46 9.14,3.58 c 5.22,3.98 10.04,10.92 14.35,20.65 L 324.64,436.52 z M 339.07,435.99 c -3.43,-1.56 -6.62,-3.60 -9.46,-6.08 c -7.35,-6.33 -13.08,-14.33 -16.71,-23.33 c 0.90,-0.42 1.88,-0.66 2.88,-0.71 c 0.1,-0.00 0.2,-0.00 0.30,-0.00 c 0.15,0 0.30,0 0.46,0.00 c 2.41,0.06 6.08,1.07 10.15,5.46 c 4.67,5.04 8.85,13.34 12.4,24.65 l 0.01,0.03 l -0.03,-0.01 L 339.07,435.99 z M 301.68,434.90 c -4.82,0 -6.47,-2.61 -6.95,-3.74 c -0.48,-1.17 -0.67,-2.44 -0.55,-3.70 v -0.02 c 0.78,-0.19 1.59,-0.30 2.4,-0.31 h 0.16 c 3.15,-0.07 6.15,1.34 8.08,3.84 c 0.25,0.37 1.03,1.69 0.39,2.72 c -0.52,0.81 -1.7,1.22 -3.53,1.22 L 301.68,434.90 z M 291,421.43 c -3.73,0.00 -7.46,-0.31 -11.14,-0.95 c -4.29,-0.78 -6.72,-4.43 -8.01,-7.35 c -0.86,-1.99 -1.46,-4.10 -1.8,-6.25 h 0.01 c 13.28,0.39 19.55,4.27 22.47,7.45 c 1.81,1.88 2.94,4.32 3.20,6.92 h -0.00 c -0.02,0 -1.89,0.18 -4.74,0.18 L 291,421.43 z M 304.83,407.61 c -0.01,-0.02 -1.53,-1.9 -3.03,-4.22 c -1.57,-2.44 -3.02,-5 -3.02,-7.08 c 0,-2.01 -0.47,-6.26 -0.75,-8.61 c -0.35,-2.98 -0.72,-5.54 -0.75,-5.75 h 0.01 c 0.33,0.12 8.30,3.11 8.30,10.59 s -0.73,15.01 -0.74,15.08 v 0.01 H 304.82 L 304.83,407.61 z M 294.5,406.90 c -0.08,-0 -0.16,-0.00 -0.25,-0.02 c -2.35,-0.39 -6.5,-2.19 -11.07,-4.81 c -5.08,-2.91 -9.20,-6.03 -11.62,-8.79 c -2.2,-2.51 -3.5,-6.45 -3.88,-11.72 c -0.16,-2.38 -0.13,-4.78 0.08,-7.16 c 0.42,-0.13 0.86,-0.20 1.31,-0.2 c 1.76,0.02 3.64,0.82 6.18,2.57 c 2.31,1.64 4.48,3.49 6.49,5.51 c 2.54,2.52 4.94,5.18 7.2,7.97 l 0.03,0.04 c 0.26,0.47 2.53,4.57 4.30,8.55 c 0.88,1.83 1.56,3.76 2.02,5.74 c 0.17,0.58 0.17,1.2 0,1.78 c -0.07,0.18 -0.21,0.34 -0.38,0.44 c -0.13,0.06 -0.28,0.09 -0.44,0.09 L 294.5,406.90 z" />
    </defs>
    <path stroke="none" stroke-width="0" fill="#D57800" d="M 727.13,103.96 l -2.35,0.93 l -0.92,0.36 L 721,105.11 l -2.67,1.28 l -4.74,3.23 l -0.20,0.15 l -1.76,0.46 l -1.64,-0.70 l -0.93,0.42 l -0.32,1.92 l -0.88,1.37 l -1.09,0.76 l -3.78,0.38 l -3.19,1.64 l -4.15,-1.11 l -1.92,0.75 l -4.1,3.69 l -2.09,0.99 l -0.73,-0.04 l -2.77,-0.14 l -1.17,0.38 l -1.75,1.69 l -3.31,0.25 l -1.03,0.71 l -1.61,3.26 l -1.75,1.80 l -1,0.21 l -1.08,-0.4 l -0.81,0.14 l -0.37,2.08 l -0.79,0.87 l -2.21,0.76 l -1.77,1.47 l -1.55,0.8 l -2.08,-0.05 h -0.47 l -2.07,1.14 l -3.9,0.34 l -1.62,1.54 l -0.35,0.33 l -0.75,0.45 l -1.24,0.74 l -0.3,0.18 l -1.5,-0.26 l -1.75,0.69 l -0.70,-1.08 l -1.21,0.72 l -1.6,0.06 l -2,-0.88 l -1.52,-0.67 l -1.11,0.16 l -0.38,1.94 l -0.03,0.20 l -1.17,1.55 l -2.18,1.32 l -0.3,0.38 l -2.48,3.20 l -4.72,4.96 l -3.99,2.02 l -4.13,1.25 l -2.9,2.38 l -7.6,3.76 L 597.58,166.7 l -2.45,0.78 l -3.52,0.56 l -6.27,2.31 l -5.53,1.67 l -0.30,0.09 l -1.1,0.33 l -7.81,2.36 l -3.63,-0.38 l -2.15,0.78 l -5.60,-0.62 l -3.9,0.07 l -2.46,0.51 l -4.63,2.22 l -7.82,3.76 l -2.58,2.36 l -4.02,2.1 l -4.71,1.49 l 0.01,-1.98 l -0.02,-0.08 l -1.63,0.51 l -1.18,0.37 l -3.82,0.59 h -2.12 l -1.32,-0.38 l -0.2,0.06 l -7.81,2.56 l -8.71,0.84 l -4.36,1.4 l -3.26,-0.05 l -2.03,0.60 l -4,0.48 l -1.42,-0.38 l -0.32,-0.08 l -11.75,0.51 l -5.37,-0.60 l -2.56,0.58 l -4.3,-1.44 l -6.26,-0.72 l -1.46,-0.43 l -3.3,-0.97 l -1.49,0.85 l -1.11,0.11 l -2.66,-0.96 l -0.96,-0.02 l -2.2,0.8 l -1.26,-0.32 l -1.17,-0.93 l -2.76,-0.41 l -1.68,-1.41 l -9.4,1.24 l -2.55,-0.75 l -8.55,-2.49 l -1.36,0.06 l -1.7,1.27 l -2.54,0.92 l -2.21,0.57 l -3.01,0.1 l -3.5,-0.91 l -3.60,-1.74 l -1.33,-0.31 l -2.97,0.3 l -0.91,0.08 l -5.46,-2.93 l -7.04,-4.4 l -4.77,-2.3 l -1.79,-0.29 l -0.24,0.85 l 0.89,2.8 l 0.3,2.77 l -0.09,2.56 l -0.04,1.58 l 0.44,1.42 l 1.72,1.91 l 0.71,1.92 l 0.52,5.28 l -0.00,5.36 l -0.83,8.55 l -0.28,1.3 l -1,4.43 l -0.91,4.06 l -3.54,10.83 l -0.97,1.34 l -2.39,1.63 l -5.41,3.68 l -3.99,2.3 l -1.26,0.52 l -3.23,0.24 l -2.01,-0.1 l -2.51,-1.36 l -2.46,-0.63 l -3.23,-2.32 l -3.6,-0.74 l -3.94,-2.27 l -1.02,-1.23 l -2.14,-0.2 l -2.97,-0.89 v -0.00 l -1.09,-0.32 l -0.75,-0.22 l 0,0 l -3.8,-0.1 l -3.54,-1.63 l -1.86,-0.45 l -2.54,-0.12 l -2.66,1.23 l 0,0 l -1.35,0.62 l -1.70,-0.67 l -1.23,0.07 l -1.4,2.11 L 308,231.1 l -0.96,0.51 l -1.2,-0.01 l -0.93,-0.02 l -1.01,0.44 l -1.36,0.59 l 0,0 l -1.20,0.52 l -0.59,0.25 l -0.01,-0.01 l -0.36,0.07 l -0.64,0.11 l -0.8,0.15 l -1.41,-0.82 l -0.75,-0.44 l -1.25,-0.25 l -0.67,0.48 l -0.13,2.3 l -0.61,1.37 l -1.96,1.73 l -1.99,1.75 l -1.38,2.04 l -3.67,8.39 l -2.3,3.38 l -0.71,0.78 l -2.41,2.66 l -2.13,1.65 l -4.92,3.81 l -4.65,1.74 l -4.01,0.82 l -1.95,0.00 l -3.7,-0.49 l -3.32,-1.02 l -3.65,-2.28 l -4,-3.21 l -5.79,-5.72 l -0.82,-0.49 l -0.17,-0.11 l -1.82,-1.16 l -1.35,0.03 l -0.53,0.87 l -0.29,1.26 l -0.24,1.12 l -0.66,6.36 l 0.04,0.36 l 0.34,2.62 l 4.4,6.15 l 1.35,3.26 l 0.22,0.37 l 0.90,1.52 l 0.69,1.16 l 0.06,0.11 l 1.5,4.48 l -1.05,2.53 l 0.53,1.7 l -1.33,1.03 l -0.24,1.46 l 3.95,4.95 l 0.86,2.18 l -0.96,3.02 l -1.53,1.67 l -0.42,0.45 l 0.21,1.28 l 1.81,1.63 l 3.08,2.75 l 1.64,4.08 l 1.25,1.1 l 1.45,-0.31 l 0.81,0.61 l 1.22,-0.02 l 1.20,1.20 l 0.78,0.37 l 1.23,0.61 l 0.97,1.27 l 0.21,3.91 l 1.82,4.86 l 0.02,2.63 l 0.01,0.37 l 1.13,1.94 l 0.35,1.53 l -0.6,4.06 l 1.44,1.30 l 1.56,-0.32 l 1.01,0.16 l 1.62,1.35 l 1.96,3 l 1.92,-0.28 l 1.22,0.58 l 5.9,5.33 l 1.33,0.67 l 0.07,0.04 l 0.96,0.48 l 1.2,1.20 l 1.85,-1.23 l 0.20,-0.02 l 2.01,-0.17 l 0.88,0.6 l 1.7,1.14 l 2.23,-0.02 l 4.84,1.48 l 2.11,0.54 l 4.26,2.64 l 1.81,1.12 l 1.07,0.87 l 1.42,1.16 l 2.84,1.22 l 2.44,0.58 l 1.32,0.31 l 1,0.38 l 0.02,-0.06 h 0.01 l -0.02,0.06 l 5.28,2.02 l 2.86,0.66 l 2.64,0.97 l 1.92,0.7 l 1.41,0.02 l 2,-1.68 l 1.93,-0.11 l 1.60,0.4 l 1.57,-0.26 l 2.48,-1.53 l 0.48,-0.71 l 1.76,-0.83 l 5.94,-0.73 l 1.73,0.56 l 4.46,-1.94 l 2.98,0.83 l 2.64,-0.93 l 5.77,1.28 l 1.53,1.08 l 1.71,1.96 l 0.21,0.00 l 1.91,0.03 l -0.8,1.33 l 2.52,2.64 l 2.27,3.44 l 0.15,0.45 l 1.65,4.86 l 1.23,1.72 l 0.86,2.40 l 0.04,1.56 l -1.34,1.02 l -0.22,0.58 l -0.07,0.21 l 0.27,0.65 l 0.50,-0.27 l 0.96,-0.53 L 380,379.26 l 2.06,0.22 l 1.36,0.14 l 2.15,-1.06 l 1.42,-0.71 l 2.29,0.98 l 2.52,-0.02 l 1.05,0.47 l 3,1.35 l 1.52,0.14 l 0.56,-0.37 l 0.36,-0.85 l -0.18,-1 L 397,377.23 l -2.53,-2.93 l -1.03,-1.51 l -0.78,-2.18 l -0.24,-2.79 l -0.17,-1.88 l 0.31,-2.47 l 0.68,-0.88 l 0.5,-1.96 h 0.00 l 0.12,-0.51 l 1.40,-1.86 l 3.72,-2.39 l 4,-3.58 l 3.16,-2.08 l 3.26,-1.41 l 0.08,-0.4 l 0.36,0.14 l 8.29,-2.81 l 0.13,-0.01 l 3.69,-0.64 l 24.92,1.75 l 0.92,-0.27 v -0.00 l 0.83,-2.33 l 0.44,-0.43 l 0.3,-0.28 l 2.74,-1.20 l 1.28,-0.18 l 3.55,0.87 l 1.45,0.35 l 2.33,-1.30 l 1.65,0.02 l 3.41,-1.86 l 2.11,0.05 l 0.8,-0.32 l 4.11,-2.95 l 3.96,-1.13 l 1.03,-0.54 l 0.36,-0.2 l 4.06,-2.14 l 2.57,-1.98 l 2.22,-1.18 l 2.43,-0.62 l 6.38,-0.44 l 1.28,-2.13 l 2.74,-0.36 l 1.65,-1.87 l 1.9,-0.77 l 1.35,-1.95 l 1.13,-1.64 l 1.59,-0.92 l 5.1,-0.32 l 6.04,0.74 l 0.8,-0.48 l 1.36,-4.87 l 1.43,-0.91 l 3.85,-5.61 l 0.01,-2.04 v -1.70 l 0.63,-2.43 l -0.43,-4.39 l 0.51,-4.44 l 2.39,-5.65 l 2.10,-2.27 l 3.4,-2.3 l 1.72,-0.75 l 2.44,-0.41 v 0.00 l 0.36,-0.06 l 0.62,-0.10 l 8.43,-0.11 c 0.11,-0.08 3.06,-0.04 3.06,-0.04 l 2.81,-0.03 L 561.38,282 l 0.50,0.08 l 2.4,0.77 l 2.77,2.15 L 570,287.89 l 0.55,0.53 l 1.9,0.8 l 0.57,0.25 l 1.57,-0.25 l 2.23,-1.16 l 1.68,-1.42 l 2.3,-1.25 l 0.05,-0.08 l 1.29,-1.94 l 0.03,-0.04 l 0.02,0.00 v -0.01 h -0.02 l 0.51,-0.77 l 4.44,-1.73 l 5.23,-0.3 l 0.58,-0.31 l 0.32,-0.17 l 1.38,-1.62 l 1.29,-0.01 l 3.13,1.13 l 2.2,-0.43 l 1.75,0.7 l 1.36,-0.16 l 2.56,-0.3 l 2.75,1.93 l 1.60,0.2 l 5.65,3.31 l 0.29,0.04 l 0.15,0.02 l 0.32,0.05 l 0.67,-0.2 l 1,-0.28 l 0.13,-0.03 l 0.12,0.17 l 0.64,0.90 l 0.88,0.12 l 1.04,-1.39 l -0.41,-0.63 l -0.15,-0.23 l -2.02,-0.41 l -1.81,-3.1 l 1.72,-1.86 l -2.71,-3.32 l -0.45,-0.55 l -0.15,-0.23 l -0.93,-1.42 l -4.74,-7.23 l -6.18,-4.93 l 0,0 l -2.16,-1.73 l -0.01,-0.01 l -0.75,-0.6 l -3.3,-3.35 l -2.35,-3.13 l -0.30,-0.67 l -0.48,-1.06 l -1.41,-3.07 l -2.46,-1.9 l -2.00,-2.19 l -0.1,-0.12 l -4.14,-5.62 l -0.68,-0.94 l -0.97,-0.56 l -2.06,-0.01 l -0.2,-0.2 l -0.11,-0.12 l 0.07,-0.07 l 0.99,-0.98 l 1.10,-0.27 l 0.47,-1.08 l -2.10,-6.1 l -0.01,-0.21 l -0.15,-1.95 l 1.71,-8.85 l 0.22,-1.07 l 2.92,-5.95 l 1.81,-1.48 l 1.98,-3.89 l 1.7,-2.48 l 1.62,-1.58 l 0.28,-0.16 l 2.93,-1.77 l 2.46,-0.34 l 2.34,-0.33 l 4.1,1.26 l 3.9,-0.07 l 0.76,-0.08 l 1.77,-0.2 l 2.91,-0.91 l 1.37,-0.84 l 0.71,-1.09 l 1.48,-4.98 l 0.47,-1.58 l 0.91,-1.72 l 5.30,-6.10 l 4.01,-3.71 l 9.01,-6.61 l 4.41,-2.63 l 2.25,-1.34 l 20.12,-8.94 l 5.23,-5.3 l 2.72,-2.75 l 4.82,-3.23 l 5.64,-2.31 l 4.85,-3.84 l 1.06,-1.33 l 1.33,-4.3 l 1.11,-0.26 l 1,-2.17 l 0.28,-0.61 l 3.96,-2.79 l 0.44,-0.22 l 15.38,-7.71 l 2.23,0.30 l 1.2,-1.79 l 4.47,-0.75 l 0.82,-0.14 l 1.1,-0.55 l 0.93,-1.6 v -0.31 l 0.12,-4.27 l 0.95,-1.15 l 0.52,-2.81 l 0.49,-0.65 l 0.51,-0.67 l 1.26,-0.89 l -0.22,-0.53 L 727.13,103.96 z" />
    <use xlink:href="#HaskellSvgIcons-cyFlagBranch" />
    <use xlink:href="#HaskellSvgIcons-cyFlagBranch" transform="matrix(-1,0,0,1,900,0)" />
</svg>
