<?xml version="1.0" encoding="UTF-8"?>
<!DOCTYPE svg PUBLIC "-//W3C//DTD SVG 1.1//EN"
    "http://www.w3.org/Graphics/SVG/1.1/DTD/svg11.dtd">

<svg viewBox="0 0 3 2" width="300px" height="200px" xmlns="http://www.w3.org/2000/svg" xmlns:xlink="http://www.w3.org/1999/xlink">
    <rect x="0.0" y="0.0" width="3.0" height="2.0" stroke="none" fill="#003399" />
    <path d="M 2.1666667,0.8888889 L 2.1916127,0.9656648 L 2.2723396,0.9656648 L 2.2070303,1.0131149 L 2.2319763,1.0898908 L 2.1666667,1.0424407 L 2.1013572,1.0898907 L 2.1263032,1.0131149 L 2.060994,0.96566474 L 2.1417208,0.96566474 Z" fill="#FFCC00" id="HaskellSvgIcons-euFlagStar" />
    <path d="M 2.0773501,1.2222222 L 2.102296,1.2989981 L 2.183023,1.2989981 L 2.1177137,1.3464483 L 2.1426597,1.4232242 L 2.0773501,1.375774 L 2.0120406,1.4232241 L 2.0369866,1.3464483 L 1.9716772,1.2989981 L 2.0524042,1.2989981 Z" fill="#FFCC00" id="HaskellSvgIcons-euFlagStar" />
    <path d="M 1.8333333,1.4662392 L 1.8582792,1.5430151 L 1.9390062,1.5430151 L 1.8736967,1.5904653 L 1.8986428,1.6672412 L 1.8333333,1.619791 L 1.7680237,1.6672411 L 1.7929698,1.5904653 L 1.7276603,1.5430151 L 1.8083873,1.5430151 Z" fill="#FFCC00" id="HaskellSvgIcons-euFlagStar" />
    <path d="M 1.5,1.5555556 L 1.524946,1.6323315 L 1.605673,1.6323315 L 1.5403634,1.6797817 L 1.5653095,1.7565576 L 1.5,1.7091074 L 1.4346905,1.7565575 L 1.4596366,1.6797817 L 1.394327,1.6323315 L 1.475054,1.6323315 Z" fill="#FFCC00" id="HaskellSvgIcons-euFlagStar" />
    <path d="M 1.1666666,1.4662391 L 1.1916126,1.543015 L 1.2723396,1.543015 L 1.20703,1.5904652 L 1.231976,1.6672411 L 1.1666666,1.6197909 L 1.1013571,1.667241 L 1.1263032,1.5904652 L 1.0609937,1.543015 L 1.1417207,1.543015 Z" fill="#FFCC00" id="HaskellSvgIcons-euFlagStar" />
    <path d="M 0.9226496,1.2222221 L 0.9475956,1.298998 L 1.0283226,1.298998 L 0.9630131,1.3464482 L 0.9879591,1.4232241 L 0.9226496,1.3757739 L 0.85734016,1.423224 L 0.88228613,1.3464482 L 0.81697667,1.298998 L 0.89770365,1.298998 Z" fill="#FFCC00" id="HaskellSvgIcons-euFlagStar" />
    <path d="M 0.8333333,0.88888884 L 0.8582793,0.96566474 L 0.93900627,0.96566474 L 0.8736968,1.0131148 L 0.8986428,1.0898907 L 0.8333333,1.0424407 L 0.76802385,1.0898907 L 0.7929698,1.0131148 L 0.72766036,0.9656647 L 0.80838734,0.9656647 Z" fill="#FFCC00" id="HaskellSvgIcons-euFlagStar" />
    <path d="M 0.9226498,0.5555554 L 0.9475958,0.6323313 L 1.0283227,0.6323313 L 0.9630133,0.6797814 L 0.98795927,0.7565573 L 0.9226498,0.70910716 L 0.85734034,0.7565573 L 0.8822863,0.6797814 L 0.81697685,0.63233125 L 0.8977038,0.63233125 Z" fill="#FFCC00" id="HaskellSvgIcons-euFlagStar" />
    <path d="M 1.1666667,0.31153858 L 1.1916127,0.38831446 L 1.2723397,0.38831446 L 1.2070302,0.43576458 L 1.2319763,0.51254046 L 1.1666667,0.46509033 L 1.1013572,0.51254046 L 1.1263033,0.43576458 L 1.0609938,0.38831446 L 1.1417208,0.38831446 Z" fill="#FFCC00" id="HaskellSvgIcons-euFlagStar" />
    <path d="M 1.5,0.22222221 L 1.524946,0.2989981 L 1.605673,0.2989981 L 1.5403634,0.3464482 L 1.5653095,0.4232241 L 1.5,0.37577397 L 1.4346905,0.4232241 L 1.4596366,0.3464482 L 1.394327,0.2989981 L 1.475054,0.2989981 Z" fill="#FFCC00" id="HaskellSvgIcons-euFlagStar" />
    <path d="M 1.8333336,0.31153876 L 1.8582796,0.38831463 L 1.9390066,0.38831463 L 1.873697,0.43576476 L 1.898643,0.51254064 L 1.8333336,0.4650905 L 1.7680241,0.51254064 L 1.7929702,0.43576476 L 1.7276607,0.38831463 L 1.8083876,0.38831463 Z" fill="#FFCC00" id="HaskellSvgIcons-euFlagStar" />
    <path d="M 2.0773504,0.5555557 L 2.1022964,0.6323316 L 2.1830232,0.6323316 L 2.117714,0.6797817 L 2.14266,0.7565576 L 2.0773504,0.70910746 L 2.0120409,0.7565576 L 2.0369868,0.6797817 L 1.9716774,0.63233155 L 2.0524044,0.63233155 Z" fill="#FFCC00" id="HaskellSvgIcons-euFlagStar" />
</svg>
