<?xml version="1.0" encoding="UTF-8"?>
<!DOCTYPE svg PUBLIC "-//W3C//DTD SVG 1.1//EN"
    "http://www.w3.org/Graphics/SVG/1.1/DTD/svg11.dtd">

<svg viewBox="0 0 1200 600" width="300" height="150" xmlns="http://www.w3.org/2000/svg" xmlns:xlink="http://www.w3.org/1999/xlink">
    <rect x="0" y="0" height="200" width="1200" fill="#FF0000" />
    <rect x="0" y="200" height="200" width="1200" fill="#FFFFFF" />
    <rect x="0" y="400" height="200" width="1200" fill="#171796" />
    <g transform="scale(2.96e-3 2.96e-3)">
        <path fill="#FF0000" d="m202577,153674,0,0c21658,0,39377-17720,39377-39377v-46791h-78755v46791c0,21658,17720,39377,39377,39377z" />
        <path fill="#FFFFFF" d="m202577,153043,0,0c21245,0,38626-17382,38626-38626v-46153h-77253v46153c0,21245,17382,38626,38627,38626z" />
        <g fill="#FF0000">
            <path d="m180254,69716-14865,0,0,16332,14865,0z" />
            <path d="m209985,69716-14865,0,0,16332,14865,0z" />
            <path d="m239701,86048,0-16332-14851,0,0,16332z" />
            <path d="m180254,102379,14865,0,0-16331-14865,0z" />
            <path d="m209985,102379,14865,0,0-16331-14865,0z" />
            <path d="m165389,114326c0,1483,92,2946,263,4385h14602v-16332h-14865v11947z" />
            <path d="m209985,102379-14866,0,0,16332,14866,0z" />
            <path d="m239437,118711c172-1444,264-2912,264-4400v-11931h-14852v16332h14588z" />
            <path d="m180255,135042,14865,0,0-16331-14865,0z" />
            <path d="m209985,135042,14865,0,0-16331-14865,0z" />
            <path d="m171754,135042c2321,3429,5199,6454,8501,8944v-8944h-8501z" />
            <path d="m205141,151374c1645-115,3262-337,4843-661v-15671h-14865v15673c1576,323,3189,544,4829,658,1731,107,3462,101,5192,0z" />
            <path d="m224850,143976c3296-2488,6169-5509,8487-8933h-8487v8933z" />
        </g>
        <g>
            <path fill="#FFFFFF" d="m240533,67027,9217-20893-7022-11339-11634,4307-8168-9337-10763,6168-9597-7860-9597,7860-10763-6168-8169,9336-11634-4307-7024,11342,9205,20897c11599-5250,24460-8175,37983-8175,13517,0,26372,2923,37968,8169z" />
            <g>
                <path fill="#0093DD" d="m174293,40024-17,20-11537-4272-6456,10424,2473,5623,6265,14222c4678-2068,9555-3764,14594-5048l-5321-20968z" />
                <path fill="#FFFFFF" stroke="#000000" stroke-width="118" d="m173629,50332c413,783,647,1674,647,2617,0,3106-2533,5639-5639,5639-2737,0-5029-1968-5535-4561,974,1722,2823,2888,4935,2888,3121,0,5667-2545,5667-5667,0-312-26-618-75-917z" />
                <g id="HaskellSvgIcons-hrCoA-star">
                    <path d="M 165500.0,41000.0 L 166510.36,42750.0 L 168531.1,42750.0 L 167520.72,44500.0 L 168531.1,46250.0 L 166510.36,46250.0 L 165500.0,48000.0 L 164489.64,46250.0 L 162468.9,46250.0 L 163479.28,44500.0 L 162468.9,42750.0 L 164489.64,42750.0 Z" fill="#F7DB17" stroke="#000000" stroke-width="118" transform="rotate(-19.0,165500.0,44500.0)" />
                    <path d="M 165500.0,41000.0 L 165500.0,48000.0 M 166510.36,42750.0 L 164489.64,46250.0 M 168531.1,42750.0 L 162468.9,46250.0 M 167520.72,44500.0 L 163479.28,44500.0 M 168531.1,46250.0 L 162468.9,42750.0 M 166510.36,46250.0 L 164489.64,42750.0 " stroke="#000000" stroke-width="60" transform="rotate(-19.0,165500.0,44500.0)" />
                </g>
            </g>
            <g>
                <path fill="#0093DD" d="m240096,66034,8752-19837-6456-10424-11513,4263-5329,20965c5022,1281,9882,2973,14545,5034z" />
                <path fill="#FFFFFF" d="m228935,47685c5767,1471,11350,3414,16705,5782l-3377,7657c-4934-2181-10076-3971-15390-5326z" />
                <path fill="#FF0000" d="m242806,59894,2256-5113c-5283-2336-10790-4252-16479-5704l-1330,5231c5396,1377,10620,3195,15631,5410l-78,176z" />
                <path fill="#000000" d="m230207,53061c151-95,312-72,474-46,131-49,282-66,446-60,70-38,151-65,243-82,49-38,51-79,7-123-41-50-64-99-67-149-260-151-356-381-455-609-148-39-217-89-233-145-72-7-143-14-214-22-337,37-424-72-544-161-100-33-187-88-243-193-37-47-74-93-111-140-92-117-64-272,75-263,98,11,195,11,285-28,105-47,262-46,381-36,141-8,230-99,367-227-1-55-1-109-2-164-22-59,6-85,84-77,183,6,292,92,366,214,213,37,381,139,494,318,283,1,474,108,497,213,17,77-66,165-194,259,1,19,2,39,2,58,76,66,126,132,152,197,159,61,311,143,453,263,405-47,1088,247,2011,836,599,107,1180,273,1738,514,118,4,236,7,353,11,1001-148,1971-34,2871,654,340,41,645,148,940,270,219,90,442,125,667,146,364,35,733,125,1099,295,411,92,795,221,1033,509,169,204,128,392-87,470-130,274-389,286-777,151-267,49-561-165-828-366-371-119-712-333-1049-561-175-131-352-214-524-251-135-29-256-48-337,0-40,24-35,38,0,67,94,79,160,197,181,339,19,125-1,269,6,422,8,161,105,278,267,378,111,68,243,140,434,167,91,18,117,71,114,140,51,244,98,490,187,711,25,63,73,93,145,146,247,178,119,377-106,420-197,174-367,291-569,337-161,54-227-12-281-91-97-2-146-41-187-104-197-145-29-397,442-289,10-55,50-72,90-71-28-122-44-258,9-385-42-27-78-61-139-81-170-54-331-132-458-251-241-227-618-417-981-608-300-15-523-153-758-270-106-1-212-3-318-4-93-31-169,1-225,68-94,114-203,95-332,80-148-17-298-6-446-8-73,18-145,41-224,42-167-9-330-11-441,82-92,97-184,90-276,54-69-32-119-66-148-102-116-24-191-53-216-88-195-55-250-110-241-165-259-62-136-266,32-273,198-8,379,30,573,57,163,46,364,19,497-101,86-78,118-145,223-203-335-22-582-81-764-196-490-309-882-384-1194-122-83,47-148,66-237,32-75-29-171-29-246-12-177,40-352,18-529-46-259,65-517,79-776,26-219,115-379,128-481,40-96-54-187-109-273-168-139-21-199-56-205-102-178-20-200-85-199-156-74-85-46-150,28-205,132-55,269-75,421,3,91,43,158,85,213,128,101-12,188,0,264,28,56-88,215-92,389-82,87-58,191-99,324-111-4-21-8-42-11-62-175-46-265-173-352-301-269-5-462-118-654-236-158,13-285-39-408-113-100,8-211,12-316-15-208,57-405,53-591,0-131,12-236-1-344-11-123,141-261,166-412,94-83-105-201-174-350-213-113-37-148-86-168-139-138-85-110-169,23-233,100-48,225-57,415,37,62,23,131,39,209,45z" />
                <path fill="#FFFFFF" d="m236801,55071c-13-23-41-81-142-23-313-17-663-13-926-168-274-161-556-329-859-317,90-85,202-143,332-178,174-46,380-49,608-12,320,52,602,114,820,196,210,79,358,177,423,303,2,3,15,18,18,20,84,54,157,109,218,167,46,43,86,88,120,136-99,9-201,2-301-18-110-22-216-59-312-108z" />
                <use xlink:href="#HaskellSvgIcons-hrCoA-star" transform="matrix(-1,0,0,1,405000,0)" />
            </g>
            <g>
                <path fill="#171796" d="m193069,36886-20,16-10673-6116-8083,9238,5321,20968c4938-1257,10031-2115,15242-2546l-1788-21560z" />
                <path fill="#FF0000" d="m178294,55788c5221-1329,10608-2237,16119-2692l-452-5450c-5816,481-11502,1439-17013,2841l1345,5301z" />
                <path fill="#FF0000" d="m175619,45250c5797-1476,11777-2483,17895-2989l-444-5350c-6418,530-12691,1588-18772,3135l1321,5204z" />
            </g>
            <g>
                <path fill="#171796" d="m230880,40035-25,9-8100-9258-10650,6104-1796,21560c5212,432,10304,1293,15241,2551l5329-20965z" />
                <path fill="#F7DB17" d="m214206,41363c370-90,735-109,1089,108,155,64,272,146,344,251,164-127,331-246,504-348,243-180,491-339,758-428,382-194,763-309,1145-344,404-69,810-73,1214-49,337,20,663,113,974,292,282,140,563,281,845,421,298,166,596,316,894,442,378,149,803,199,1256,216,222,8,440,8,654-49,173-46,281,64,90,181-1400,859-2497,95-3433-247,343,232,645,472,900,717,356,343,754,691,1458,1012,427,194,892,347,1489,352,202,2,420-6,656-45,119-19,170-8,172,54,2,42-9,126-80,173-361,242-701,306-1080,330-722,46-1494-191-2200-570-565-304-946-674-1396-1006-449-331-837-515-1254-603-411-88-856-78-1231,38,112,22,207,75,265,142,193,114,441,164,800,205,187,22,129,151-159,306-173,223-398,343-697,314-412,273-559,108-697-71-17,113-50,224-99,331,18,58,20,122-6,180,66,102,98,201,76,310,11,58,30,114,92,166,86,78,141,168,152,278,1,73,41,133,99,187,84,69,169,130,253,233,249,90,364,281,405,528,188,61,266,197,303,359,107,45,205,99,261,194,384,1,759,1,1110,38,329,35,597,240,837,506,162,25,326,33,494-5,173-76,356-134,555-151,329-28,659-45,973,30,213,51,379,164,515,318,196,223,498,193,756,83,350-149,641-144,999,13,153-59,306-87,459-71,131-142,270-177,413-181,233-8,402,28,358,327-12,81-60,159-121,187-107,231-311,299-570,277-28,159-93,277-197,353,119,367,5,514-267,509-57,106-142,172-287,151-106,129-231,195-368,217,16,96,57,141,125,244,185,280-93,393-347,397,65,185,73,370,50,555,259,157,294,322,55,485,175,306,107,531-221,695-5,171-22,343-136,439-78,66-190,78-116,202,133,220,104,498-93,506-42-4-80,2-83,69,0,23-20,46-59,69-236,127-457,272-660,439-30,20-60,34-90,7-148,322-424,649-729,978-47,242-184,406-411,491-16,75-64,119-135,138,127,141,175,277,52,411-151,165-350,326-549,377-423,108-688,88-858-74-150-143-91-251,4-296-261,21-314-117-307-301,15-92,46-80,138-77,142,4,270-73,404-117,52-88,120-164,204-228,47-296,234-460,488-557,205-78,401-276,591-532,117-202,235-403,352-605-82-107-104-214-107-321-108-60-183-134-235-218-184-13-260-96-287-211-42,1-88-3-138-18-90,58-181,109-294,104-149,153-303,278-460,384-55,152-164,213-297,232-378,45-604,516-812,708-84,62-136,172-173,304-18,248-61,442-197,446-122-5-141-18-145-31-53-5-106-5-159,7,102,112,118,253,24,377-94,122-229,160-359,169-269,18-487-6-689-88-193-79-216-194-210-306-139-66-167-132-152-197,19-84,96-127,193-100,84-40,168-67,252-83,244-263,495-489,771-594,81-98,174-186,287-259,32-236,187-422,377-595,17-85,45-171,93-256-11-51,3-75,4-123-77-143-123-315-66-458-23-69-30-159-21-228-454,270-594,178-646-41-166,139-321,204-432,4-161,48-323,102-484,38-105,41-211,78-332,86-49,97-115,194-204,291-5,204-76,408-207,612-76,218-170,435-294,653,2,70-8,140-45,211,35,251-49,373-187,435-37,101-92,203-176,304-4,33-7,67-11,100,55,148,64,295-86,443-121,76-250,156-378,219-151,74-291,39-418-7-223-80-206-158-177-234-70,28-150,31-220-3-54-34-88-69-142-104-48-87-65-166,52-228,147-65,247-113,363-232,40-90,91-158,163-176,70-164,156-275,273-305,86-203,178-427,287-621,38-59,66-120,48-187-2-55,2-107,48-138,26-22,72-42,14-73-53-181-20-354,69-487,118-178,250-608,125-819-23-118-46-253-31-364-43-2-75,4-118-26-96-59-176-3-249,104-53,134-106,252-159,252-50,346-220,615-397,684-41,159-67,318-45,477,18,173,0,291-80,311-88,22-170,73-221,214-14,39-30,86-31,142,122,126,85,283-32,399-264,260-592,222-939,120-251-99-312-204-287-311-356-30-285-303,10-385,317-89,574-292,785-582,19-344,98-578,283-615,18-211,84-401,173-581,93-163,150-342,117-560-197-123-205-250-24-380,60-35,53-71-21-107-120-12-105-127-97-235-5-56-34-85-87-86-266-39-200-148-86-266,48-54,80-134,30-166-41-26-69-117-78-197-163-123-93-249,0-370-92-78-135-192-148-325-303-13-416-167-252-391,69-95,158-186,266-273,70-113,137-226,104-339-87-221,191-388,429-560-33-58-50-115-52-173-134-129-100-249,48-363-33-59-49-118-55-176-333,66-331-133-176-453-193-111-139-308,211-608,5-69,18-122,38-159-166,4-303,53-422,128-133,87-265,76-398,21-41-66-104-122-176-173-91-80-112-170-93-266-392,22-467-268-232-439,131-104,227-213,263-332,106-269,331-452,550-640,0-77,17-154,41-232-97-65-199-112-311-121-40-100-115-208-242-269-73-44-97-85-52-184-208-186-156-299-103-406z" />
                <g fill="#FF0000">
                    <path d="m220904,54095c-44,46-81,97-117,157-171,57-322,142-506,134,0,119,39,171,158,172,227-114,278-135,298-119,28,24-32,187-220,319-29,18-28,29-11,59,159,249,576,160,800,101,160-42,449-232,529-392,31-73-39-169-109-247-177,27-238-55-210-112-187-66-395-80-612-72z" />
                    <path d="m218719,53544c-16,2-33,4-49,7-87,94,152,59,279,137,58,35,83,104,60,200-117,279-770,189-987,74-101-53-105-114-101-201,45,0,91-3,137-10,78-11,155-34,231-77,21-12,43-25,19-67-24-43-46-31-67-19-64,36-130,56-196,65-68,10-138,10-205,7h-17c-38-22-67-48-51-71,16-22,79,2,91,6,101-47,189-77,298-98,15-15,29-31,44-46,199,17,389,47,515,93z" />
                    <path d="m215700,53373c-40,24-54,58-83,121-114,115-223,184-369,250-121,55-4,108,81,166,77,57,178-67,241-161,69-104,139-73,94,8-50,89-86,217-91,284-26,72,248,127,295,129,167,8,377-155,508-238,109-111,92-208,44-343l1-9c-70,2-136-6-201-20-79-18-157-45-236-78-10-4-20-8-12-29,5-13,11-16,18-15l-288-66z" />
                    <path d="m214511,52080c-130,106-275,190-444,246-64,21-219,59-234,140-2,29,104,92,172,55,188-180,282-80,66,104-17,35-3,74,34,107,195,175,678,232,898,93,163-102,248-214,106-369,1-35,5-69,11-104l-269-27-165-96-175-149z" />
                    <path d="m216869,42243c46-2,92-4,137,1,85,10,166,47,251,57,284-107,519-166,722-157,237-69,483-98,729-92-3-2-6-5-9-8-29-29-15-44,0-58,133-135,164-259,121-371-44-116-164-225-331-325-178,20-349-28-538-7-118,13-234,39-348,77,95,34,178,90,246,170,84,99,144,234,176,404,4,20,7,40-33,48s-44-13-48-33c-29-155-83-277-158-366-79-113-260-157-317-180-189,19-375,40-537,82-122,31-229,74-311,138,122-26,249-21,359,34,105,52,194,150,250,309,7,19,13,39-26,52s-46-6-52-26c-47-137-121-219-208-262-173-86-530-11-681,101-88,66-176,151-263,250-9,11-19,21-31,22,324,22,650,39,902,140zm-961-183c-7-18,5-31,16-44,91-103,183-194,278-264,92-68,187-117,285-140,100-111,248-178,420-222,167-43,358-65,551-84-57-115-130-184-214-221-90-40-194-46-305-35-233,80-440,205-639,346,18,0,36,0,53,1,59,4,112-5,161,14,20,7,39,14,25,53-17,47-146,18-191,15-51-3-107,1-169,16-10,2-19,5-28,2-209,129-367,260-536,403,128,45,228,98,293,160z" />
                    <path d="m224970,43966c26-4,186-46,103,15-588,385-1334,384-2037,203,109-49,198-108,243-182,34-55,40-118,24-187,224,73,451,125,685,155,1,36-9,72-37,107-37,46-100,91-203,136-19,8-38,16-21,54,16,38,35,29,54,21,116-51,191-105,235-160,39-49,55-98,55-149,289,31,588,27,900-14z" />
                    <path d="m222974,44169c-304-83-598-199-867-330,154-11,290-29,388-68,111-44,175-112,171-221,178,90,356,168,537,232,32,71,34,129,4,178-36,60-115,110-213,153-19,8-38,17-21,54v1z" />
                    <path d="m222016,43793c-90-46-176-94-259-143-199-118-386-253-569-394,112,9,206,3,282-18,65-18,117-48,154-89,38-42,61-94,68-158,3-28,3-58-1-90,179,153,367,295,570,419,106,65,213,126,319,183-1,7,0,14,1,22,13,82-33,134-117,167-98,39-244,55-411,65-19,1-37,2-39,34z" />
                    <path d="m221119,43202c-260-203-514-415-787-598,151,12,286,0,388-61,99-61,164-167,175-340,163,126,320,259,469,402,75,71,150,141,227,210,0,1,1,2,1,4,18,64,24,119,19,165-5,45-21,82-47,111-27,30-66,52-115,65-73,21-168,25-285,12-19-2-39-4-44,31z" />
                    <path d="m220263,42558c-77-49-155-97-236-141-389-214-835-346-1282-363,4-3,7-7,11-10,159-162,194-315,140-458-42-111-139-214-273-307,150-8,289,1,445,23,220,31,505,105,765,210,64,140,82,263,54,367-29,109-111,200-243,275-18,10-36,20-16,56s38,26,56,15c153-86,247-194,282-326,27-102,19-216-26-343,176,79,335,173,446,276,145,100,288,201,428,307,1,178-51,279-137,332-91,55-221,62-369,47-20-2-41-4-45,37v2z" />
                    <path d="m217116,40966c287-125,578-205,875-254,136,54,226,120,277,198,49,77,61,167,44,271-126-12-251-11-373,2-137,15-271,46-403,93-66-139-155-223-259-269-51-23-105-36-161-42z" />
                    <path d="m218139,40691c282-37,569-46,861-39,96,39,167,96,211,171,48,84,65,194,45,331-3,20-6,41,35,46,41,6,44-15,46-35,22-156,2-283-55-383-28-48-64-89-108-124,26,1,52,2,78,4,336,18,597,114,889,259,2,2,5,5,7,8,62,65,83,132,73,201-11,73-55,152-125,233-13,16-27,31,5,58,31,27,45,11,58-5,79-93,131-185,144-275,7-51,3-99-15-147,246,122,496,239,739,367,5,3,10,5,15,8,0,5,2,11,4,16,20,69,12,128-22,179-37,53-104,99-201,135-19,7-38,14-24,53,14,38,34,31,53,24,114-43,194-98,240-166,39-57,54-120,45-191,161,87,322,177,487,256l1,1c29,58,34,110,11,158-24,51-80,99-169,143-18,9-37,18-19,55s37,28,55,19c107-53,175-114,207-182,22-47,28-95,18-146,57,25,115,49,174,71,159,59,351,110,557,148,1,2,3,4,5,6,38,53,51,104,42,153-9,51-40,103-90,155-14,15-28,29,1,58,5,5,9,8,13,11-625-64-1181-363-1763-588-69-27-139-53-208-80-215-81-432-191-648-279-7-7-18-11-28-14-15-5-29-10-44-14-9-4-19-7-28-11,1,1,3,2,4,3-197-63-396-112-598-140-224-31-452-37-686-7-13-2-25-4-38-6,20-123,4-231-57-325-43-67-108-126-198-175z" />
                    <path d="m222565,41963c163,27,332,46,499,57,2,4,5,7,7,11,27,37,35,73,23,108-14,40-52,82-114,125-17,12-34,24-10,57-111,14-224,20-339,18-58-1-115-4-173-9,6-3,12-9,17-14,61-64,100-130,111-199,8-51,2-102-21-153z" />
                    <path d="m223164,42025c251,11,493,1,699-33-220,159-501,266-804,316,59-46,97-94,114-143,16-47,13-94-9-140z" />
                </g>
            </g>
            <g>
                <path fill="#0093DD" d="m212105,36890-23,13-9517-7794-9497,7778,1788,21560c2543-210,5113-322,7709-322,2608,0,5190,113,7744,325l1795-21560z" />
                <g id="HaskellSvgIcons-hrCoA-lion">
                    <path fill="#000000" d="m202545,46585c-18-2-44,10-69,45-186,250-359,469-545,720-195,61-242,180-167,348-261-26-291,193-302,432-250-379-522-482-814-307-11-230-187-338-439-392-180-10-319-65-436-145-60-42-110-64-170-106-126-88-226-5-172,74,267,434,535,868,802,1302-14,80,6,151,88,204,47,133,93,265,140,397-11,38-21,75-32,113-221-105-443-118-664-133-170-8-287-50-361-137-54-63-91-26-92,82-3,534,162,1014,599,1492-231,4-462,11-694,21-79,6-95,39-73,104,126,304,339,579,822,766-208,112-327,285-357,520-9,224-75,382-212,455-60,32-81,65-24,106,253,185,565,193,895,112-157,270-226,553-198,850,208,56,412,15,614-52-29,61-44,175-52,309-7,115-41,229-104,343-32,33-65,84,4,102,336,91,648,52,915-47,0,243,2,487,76,727,18,58,70,102,125,26,155-214,322-396,527-517,31,90,75,168,156,215,96,55,147,170,153,343,0,30-2,60,35,90,149,7,514-380,589-597,206,121,284,246,439,461,55,76,99,29,128-25,62-243,67-481,66-724,267,99,579,138,915,47,69-19,36-70,4-102-62-114-105-250-113-365-9-133-14-226-43-287,202,68,405,108,614,52,29-297-53-579-211-850,330,80,655,73,908-112,57-41,35-74-24-106-136-73-203-231-212-455-30-235-149-409-357-520,483-187,696-463,822-766,22-66,6-99-73-104-231-10-480-24-711-27,437-478,606-961,604-1495-1-108-38-146-92-82-74,87-179,137-348,146-222,15-435,24-656,128-11-38-21-75-32-113,46-132,106-260,153-393,82-53,102-123,88-204,267-434,513-868,781-1302,54-79-46-162-171-74-60,42-110,64-170,106-117,80-257,134-437,145-251,54-417,167-428,397-293-175-564-73-814,307-11-239-41-457-302-432,75-168,17-291-178-352-186-250-458-470-644-720-31-35-51-47-69-45z" />
                    <g fill="#F7DB17">
                        <path d="m205075,47978c-51-26-124,17-162,95s-33,170,19,196c40,20,84-6,119-56l22-36c2-3,4-6,5-9,38-78,49-163-2-188z" />
                        <path d="m200067,47978c52-26,124,17,162,95s39,165-13,191-103-24-141-102-60-158-9-184z" />
                        <path d="m204606,48883c-32,0-59,27-59,59s26,59,59,59,59-26,59-59c0-32-26-59-59-59z" />
                        <path d="m200574,48883c-32,0-59,26-59,59,0,32,26,59,59,59s59-26,59-59-26-59-59-59z" />
                        <path d="m204868,48579c-754-91-1506-133-2260-133s-1509,41-2269,115c-26,8-21,90,14,86,756-73,1507-113,2256-113,743,0,1485,40,2228,129,39,4,54-80,32-84z" />
                        <path d="m200319,48495c768-75,1530-117,2289-116,754,0,1507,42,2261,133l111-184c-32,10-62,9-90-5-76-38-92-161-36-274,56-114,164-175,240-138,39,19,62,62,68,114l446-739c-204,130-328,214-581,252-281,41-409,139-368,307,38,156-57,133-201,54-314-171-541,71-652,353-73,186-159,181-168-13-4-70,0-131-7-200-21-223-89-286-216-224-161,78-175,25-137-58,28-60,86-128,66-221-9-67-66-92-151-98-182-244-467-483-649-727-182,244-374,483-556,727-86,5-142,30-152,98-20,93,52,157,80,217,38,82,23,135-137,57-127-61-186-3-207,220-7,69-10,139-13,209-9,194-95,199-168,13-111-282-352-524-667-353-145,79-203,102-182-54,23-172-107-266-388-307-253-37-377-122-581-252l419,682c12-25,29-45,53-57,76-38,184,24,240,138,56,113,40,237-36,274-10,5-21,8-32,10l100,163z" />
                        <path d="m204708,49406c-7,3-7,4-24,11-46,19-80,66-134,124-57,60-128,125-211,188-12,10-25,19-44-6s-7-35,6-44c80-62,149-124,204-182,30-32,56-63,77-92-95-11-190-21-284-30-79,24-157,55-222,95-59,35-107,77-137,125-8,14-16,27-44,11-27-16-19-30-11-44,35-58,91-107,158-147,33-20,69-38,106-54-107-9-214-18-321-25-22,13-42,29-61,47-20,19-39,42-56,67-9,13-18,26-44,8s-18-31-8-44c19-29,41-54,64-77,3-3,6-6,9-9-80-5-161-10-241-14-2,2-5,5-8,7-21,18-40,38-55,59s-28,43-38,67c-6,15-12,29-41,18-29-12-23-26-17-41,12-29,27-55,45-81,8-11,18-22,27-33-115-5-230-9-344-12-4,5-9,8-14,11-25,15-47,32-66,51s-35,40-48,63c-8,14-16,28-43,12-28-16-20-29-12-43,16-28,35-54,59-77,7-7,14-13,21-19-122-2-244-4-365-4-120,0-240,1-360,3,8,7,15,13,22,20,23,23,42,49,59,77,8,14,16,27-12,43s-35,2-44-12c-13-23-29-44-48-63s-41-36-66-51c-6-3-12-7-15-12-115,2-230,6-345,11,11,11,20,23,29,35,19,25,33,52,45,81,6,15,12,29-17,41s-35-3-41-18c-9-24-22-46-38-67-15-21-34-41-55-59-4-3-7-6-10-10-81,4-162,8-243,13,4,4,9,8,13,12,24,23,45,48,64,77,9,13,18,26-8,44s-35,5-44-8c-18-26-36-48-56-67s-41-35-64-49c-1-1-3-2-5-3-110,7-220,14-330,23,43,18,85,38,122,61,67,40,124,89,158,147,8,14,16,27-11,44-27,16-35,3-44-11-29-48-78-90-137-125-72-44-159-77-246-102h-2c-90,7-179,15-268,24,22,33,51,68,86,106,55,58,124,120,204,182,13,9,25,19,6,44s-32,15-44,6c-83-64-155-128-211-188-37-38-99-111-135-140-196-90-354-127-575-147-153-14-318-9-458-79,36,85,75,164,126,229,53,68,120,121,209,147,8,2,21,16,22,25,28,157,84,286,169,386,52,60,114,110,188,149-75-81-132-166-172-251-67-142-90-286-77-420,1-16,3-32,34-29,32,3,30,19,29,35-11,123,9,256,72,387,56,118,159,237,291,346,24,19,0,63-29,55-154-44-290-123-383-231-89-104-149-237-180-397-94-32-165-90-222-164-47-60-85-131-118-205,28,428,182,801,456,1137,61,75,165,182,255,216,92,35,95,100-20,101-34,1-69,1-105,1,84,31,164,66,233,105,127,73,217,162,224,273,1,16,2,32-29,34-32,2-33-14-34-29-6-86-82-160-192-223-113-65-259-117-402-160-154,0-312-1-459,3,39,28,80,57,131,84,82,44,188,86,343,122,89,21,166,52,233,91,71,42,130,93,177,150,10,12,20,25-5,45s-34,8-45-5c-42-52-95-98-159-135-61-36-133-64-216-84-161-38-272-81-358-128-75-40-131-82-184-123,180,393,450,573,835,689,23,7,43,13,61,19,3,1,6,1,9,2,86,21,175,40,266,55,92,15,166,28,261,37,16,1,32,3,29,34-3,32-19,30-34,29-99-9-174-22-266-38-58-10-115-21-171-33-26,6-64,9-107,12-232,14-420,225-435,494,0,5,0,11-1,16,88-80,179-157,273-212,117-68,239-103,364-69,15,4,31,8,22,39-8,31-23,27-39,22-106-28-212,3-316,63-108,63-213,158-315,253-24,147-82,285-205,377,61,34,104,65,163,45,86-39,172-78,261-108,91-31,184-52,282-57,16-1,32-1,33,31s-14,32-31,33c-91,4-179,24-264,53-75,26-149,58-222,91,221,47,460-1,667-79,60-22,105-42,133-41,51-30,112-53,172-79,66-28,132-51,182-57,16-2,32-4,35,28,4,32-12,33-28,35-112,13-127,21-222,79,0,21-66,57-126,96-36,24-70,52-87,67-95,86-144,181-188,287-29,70-52,145-68,224,55-108,121-211,201-303,94-108,208-201,345-265,14-7,29-13,42,15,13,29-1,35-15,42-129,60-236,147-324,250-90,103-161,222-219,345-31,64-8,1-42,86,110-122,212-224,323-307,132-100,283-157,418-133,15,3,31,6,26,37s-21,28-37,26c-116-21-250,32-369,121-121,92-244,223-366,361,184,26,366-26,542-85,91-30,183-135,239-152,19-24,38-46,57-67,33-37,67-71,102-100,12-10,24-20,45,4s8,34-4,45c-33,28-65,60-96,94-32,35-62,73-92,113-6,8-13,17-24,16-60,70-151,162-172,240-57,210-25,370-122,576,71-38,128-81,175-134,53-60,94-135,128-230,37-104,95-195,167-270,75-77,165-136,261-172,15-5,30-11,41,19s-4,35-19,41c-87,32-169,86-238,157-66,68-119,151-153,247-37,102-81,183-141,250-44,50-95,91-156,127,52-3,78-10,121-7,79-6,211-66,279-119,66-51,116-120,154-206,6-15,13-29,42-16s23,27,16,42c-42,96-99,174-173,231-56,43-121,75-196,93,161-5,311-42,467-100,65-24,87-168,127-208,32-58,66-112,105-158,47-56,101-101,164-127,15-6,29-12,41,18,12,29-3,35-17,41-52,21-98,60-139,108-36,42-68,93-98,147,10,73-51,228-53,305-7,205-2,409,53,612,53-71,107-134,162-192,0-5,0-10,1-15,18-106,33-219,40-332,7-112,7-223-6-329-2-16-4-32,27-35,32-4,34,12,35,28,14,111,14,226,7,340-6,90-16,180-30,269,54-51,53-51,77-103,37-80,59-159,67-237,9-80,5-157-13-230-4-15-7-31,24-38s35,8,38,24c19,80,25,165,14,252-8,65-24,132-49,199,56-42,114-82,178-122-4-75-5-153-3-227,2-68,7-134,18-190,4-20,7-40,47-33s37,27,33,48c-9,50-14,111-16,177-2,78,0,162,4,243,5,82,49,185,125,230,103,62,158,163,186,274,16-145,17-280,3-400-17-143-55-267-114-368-8-14-16-27,12-44,27-16,35-2,43,12,63,110,104,241,122,393,17,146,13,310-13,488,102-82,381-258,352-594-7-27-16-52-28-75-7-14-14-28,14-42s35,0,42,14c17,33,30,69,39,110,5,24,8,49,11,76,13-7,45-43,51-39,24,16,58,38,80,54-21-60-35-120-42-178-10-87-5-172,14-252,4-15,7-31,38-24s27,23,24,38c-18,73-22,151-13,230,9,77,31,157,67,237,4,8,8,16,5,25,24,21,47,42,70,65-13-84-22-170-28-255-8-115-7-230,7-341,2-16,4-32,35-28s29,20,27,35c-13,106-13,217-6,329,7,113,22,225,40,332,1,2,1,5,1,7,54,59,95,120,152,196,55-203,73-407,66-612-2-76-69-227-65-302-30-55-63-107-100-151-41-49-87-87-139-108-15-6-29-12-18-41,12-29,27-24,41-18,62,26,117,71,164,127,38,45,72,98,103,154,57,7,78,179,143,212,154,57,298,94,453,100-75-19-140-50-195-93-74-57-131-135-173-231-6-15-13-29,16-42s35,2,42,16c38,86,88,156,154,206,85,66,289,124,400,127-61-37-113-78-157-128-59-67-104-148-141-250-34-95-87-179-153-247-68-71-150-124-238-157-15-6-29-11-19-41,11-29,26-24,41-19,96,36,186,94,261,172,72,74,130,166,167,270,34,95,75,169,128,230,47,54,105,98,177,135-98-207-66-367-122-577-35-129-232-277-193-320,45-51,133,88,248,127,175,59,357,111,540,85-122-138-244-269-366-361-119-90-237-140-352-120-16,3-31,6-37-26-5-31,10-34,26-37,135-24,269,32,401,132,111,84,201,175,311,298-18-47,0-14-30-77-59-123-130-241-220-345-89-102-196-189-324-250-14-7-28-13-15-42,13-28,28-22,42-15,137,65,251,157,345,265,81,93,147,198,203,307-15-81-39-157-68-227-44-106-93-201-188-287-62-56-209-140-208-179-29-15-33-11-63-24-61-26-121-46-164-52-16-2-32-4-28-35,4-32,19-30,35-28,50,6,115,28,182,56,33,14,66,43,98,60,53,4,139,47,208,74,206,78,446,126,666,79-73-33-147-65-223-91-85-29-172-49-264-53-16-1-32-1-31-33s17-31,33-31c98,4,191,26,282,57,89,30,175,69,261,108,59,27,101-7,163-45-123-92-181-230-205-376l-2-2c-102-95-207-190-315-253-104-60-210-91-316-63-15,4-31,8-39-22-8-31,7-35,22-39,125-33,247,1,364,69,94,55,186,132,274,213,0-6-1-11-1-17-15-270-203-480-435-494-78-5-189,21-186-32,4-59,97-44,234-86,385-116,655-296,836-690-54,41-110,83-186,124-86,47-198,91-358,128-82,19-154,48-216,84-64,38-117,84-159,135-10,12-20,25-45,5s-14-32-5-45c47-57,106-108,177-150,67-39,145-70,233-91,155-36,261-78,343-122,51-27,92-55,131-84-148-4-305-3-459-3-143,44-289,96-402,160-110,63-186,136-192,223-1,16-2,32-34,29-32-2-31-18-29-34,8-111,97-200,224-273,69-39,149-74,233-105-35,0-70,0-104-1-116-2-112-66-20-101,90-34,190-141,251-216,271-334,412-714,456-1130-33,72-69,140-115,198-57,73-128,131-222,164-31,160-91,293-180,397-92,108-216,185-369,230-29,8-52-35-29-55,132-109,221-226,278-344,62-131,83-264,72-387-1-16-3-32,29-35,31-3,33,13,34,29,12,134-10,278-78,420-40,85-97,170-172,251,73-39,136-89,187-149,85-100,141-229,170-386,1-8,14-22,22-25,89-27,155-79,209-147,51-65,90-143,126-228-140,69-304,64-457,78-213,19-369,68-554,152z" />
                        <path d="m204649,49231c-680-88-1359-113-2041-114-684,0-1369,40-2058,112-20,6-15,33-14,46,2,28,37,35,121,27,643-60,1285-93,1932-93,674,0,1351,21,2038,102,33,9,77-85,22-81z" />
                        <path fill-rule="evenodd" d="m200570,49160c683-71,1362-110,2038-110,675,0,1349,40,2025,127l31-127c-17,9-37,15-58,15-67,0-123-55-123-123s55-123,123-123c51,0,94,31,113,75l60-170c-724-84-1446-122-2171-122-729,0-1459,38-2193,107l58,164c22-32,59-54,101-54,68,0,123,55,123,123s-55,123-123,123c-12,0-25-2-36-6l33,94-2,7zm3067-416c-68,0-123,55-123,123s55,123,123,123,123-55,123-123-55-123-123-123zm0,64c-33,0-59,27-59,59s26,59,59,59c32,0,59-27,59-59s-26-59-59-59zm-1082-91c-67,0-123,55-123,123s55,123,123,123,123-55,123-123-55-123-123-123zm0,64c-32,0-59,26-59,59s26,59,59,59,59-26,59-59c0-32-26-59-59-59zm-1064-40c-68,0-123,55-123,123s55,123,123,123c67,0,123-55,123-123s-55-123-123-123zm0,64c-33,0-59,26-59,59s26,59,59,59c32,0,59-26,59-59,0-32-26-59-59-59z" />
                    </g>
                    <g fill="#000000">
                        <path d="m202601,47974c-14-68-49-129-100-175-51-47-116-78-187-88-33-4-39-58-7-68,60-20,114-67,157-133,45-69,79-157,95-256,5-34,64-35,69-1,15,84,51,153,97,208,55,66,125,112,193,138,31,12,25,63-8,68-59,9-105,42-141,87-50,62-81,145-100,221-8,33-62,31-69-2zm33-118c20-52,47-103,81-146,28-34,60-64,99-84-51-30-100-70-143-120-28-34-53-73-73-116-19,59-45,112-75,158-31,47-67,86-108,116,50,19,95,47,134,82,34,31,63,68,85,110z" />
                        <path d="m203433,52971-515,206c-17,7-35,14-48-21-14-34,4-41,21-48l515-206c17-7,35-14,48,21,14,34-4,41-21,48zm59-326-604,328c-16,9-33,18-51-15s-1-42,15-51l604-328c16-9,33-18,51,15s1,42-15,51zm-1826-65,604,328c16,9,33,18,15,51s-34,24-51,15l-604-328c-16-9-33-18-15-51s34-24,51-15zm51,322,515,206c18,7,35,14,21,48-14,35-31,28-49,21l-515-206c-17-7-34-14-21-48,14-35,31-28,48-21zm224,434c137,33,261,48,358,31,88-16,155-60,191-146v-493c-107-1-212-15-303-41-109-31-170-98-201-178-41-107-27-235-4-329,5-18,9-36,45-27s32,27,27,45c-20,82-33,194,1,284,23,60,69,110,152,133,91,25,198,38,307,38,107,0,214-13,304-40,82-24,148-69,192-123s65-117,57-176c-5-36-24-62-49-80-34-24-82-35-128-37-47-2-94,7-142,16-25,5-50,9-77,13-19,2-37,5-42-32s14-40,32-42c23-3,48-8,73-12,52-10,105-20,159-18,60,2,121,18,168,51,42,29,72,72,80,131,11,80-16,163-73,233-53,65-131,119-229,147-83,24-178,38-274,42v483c3,5,3,11,2,16,37,82,102,125,188,141,97,18,221,2,358-31,18-5,36-9,45,27,8,37-9,41-28,45-146,35-279,51-388,32-92-17-165-58-215-132-49,74-124,115-215,132-109,20-242,4-388-32-18-4-37-8-28-45,8-36,27-32,45-27zm356,210,402-9c19,0,38-1,38,37,1,38-18,38-37,38l-402,9c-19,0-37,1-38-37s18-38,37-38z" />
                        <path d="m202890,50464c151-125,293-227,423-297,133-72,254-111,359-106,19,1,37,1,36,39-1,37-20,37-39,36-92-4-200,32-322,97-125,67-263,166-410,289-14,12-29,24-53-5s-9-41,5-53zm-605,56c-141-130-298-240-445-314-139-71-268-108-363-100-19,2-37,4-40-34-4-37,15-39,34-40,110-10,252,31,404,107,152,77,315,191,461,325,14,13,28,25,2,53-25,27-39,15-53,2zm-213,1004c37-83,83-155,136-219,53-63,112-119,174-170,14-12,29-24,52,5,24,29,9,41-5,53-59,48-114,101-164,160-49,59-91,125-125,201-8,17-15,34-49,19s-27-32-19-49zm371-1734c49,66,88,139,114,223,26,82,40,175,39,279,5,80,6,165-7,249-13,86-42,170-97,246-43,60-101,97-165,113-53,13-109,10-164-7,29,100,51,208,6,308-8,18-33,27-51,18-43-22-86-43-128-62s-84-36-127-51l-1-1c-95-37-173-73-236-112-65-39-115-80-150-124l1,2c-44-49-72-106-88-170-14-55-20-114-22-174-72-39-138-78-194-116-64-43-118-87-161-131-13-14-26-27,1-53s40-12,53,1c39,40,89,80,150,121,60,40,128,81,204,121,124,13,247,51,370,109,106,50,211,115,317,192,13,7,19,16,27,20,8,6,16,13,25,19,51,22,104,28,152,16,47-11,90-39,122-84,48-66,72-139,84-214,12-77,11-157,6-234v-2c1-97-12-183-35-258-24-76-58-142-102-201-11-15-22-30,7-52s41-7,52,7zm-375,1047c-104-77-207-141-311-190-105-49-210-83-314-98,2,48,8,93,18,135,13,52,35,99,71,138l1,1c30,37,73,72,130,107,60,36,134,71,225,106l-1-1c45,16,89,34,133,54,31,14,61,28,93,44,19-83-10-179-37-267-2-8-5-15-9-29zm776-1003c-44,59-79,125-102,201-24,76-36,161-35,258v2c-5,77-6,158,6,234,12,75,37,148,84,214,32,45,75,72,122,84,48,12,101,6,152-16,8-6,17-13,25-19,6-4,13-12,27-20,105-77,211-143,317-192,123-58,246-95,370-109,75-40,144-80,204-121s111-81,149-121c13-13,26-27,53-1s14,39,0,53c-43,44-97,88-161,131-57,38-122,77-194,116-2,61-8,119-22,174-16,63-44,121-88,170l1-2c-35,44-85,85-150,124-63,38-141,75-237,112l-1,1c-43,15-85,32-127,51-43,19-85,40-128,62-18,9-43,0-51-18-45-100-23-208,6-308-55,18-111,20-164,7-64-15-122-53-165-113-55-76-84-160-97-246-13-85-12-169-7-249-1-104,13-196,39-279,26-84,65-158,114-223,11-15,22-30,52-7,30,22,19,37,7,52zm940,715c-105,15-209,49-314,98-104,49-207,113-311,190-4,13-6,21-8,29-27,88-56,184-37,267,31-15,62-30,93-44,44-20,87-38,133-54l-1,1c91-35,165-70,225-106,58-34,100-70,131-107,0,0,1-1,1-1,35-39,57-86,71-138,11-42,16-87,19-135z" />
                        <path d="m203459,50602c-119,0-216,97-216,216s97,217,216,217,216-97,216-217c0-119-97-216-216-216zm0,69c-81,0-147,66-147,147s66,147,147,147,147-66,147-147-66-147-147-147zm0,60c-48,0-87,39-87,87s39,87,87,87,87-39,87-87-39-87-87-87zm-1697-124c119,0,217,97,217,216s-97,217-217,217c-119,0-216-97-216-217,0-119,97-216,216-216zm0,69c81,0,147,66,147,147s-66,147-147,147-147-66-147-147,66-147,147-147zm0,60c48,0,87,39,87,87s-39,87-87,87-87-39-87-87,39-87,87-87z" />
                    </g>
                </g>
                <use xlink:href="#HaskellSvgIcons-hrCoA-lion" transform="matrix(1.0,-3.8e-2,3.8e-2,1.0,-5965.0,-1993.0)" />
                <use xlink:href="#HaskellSvgIcons-hrCoA-lion" transform="matrix(1.0,3.8e-2,-3.8e-2,1.0,6277.0,-17381.0)" />
            </g>
        </g>
    </g>
</svg>
