<?xml version="1.0" encoding="UTF-8"?>
<!DOCTYPE svg PUBLIC "-//W3C//DTD SVG 1.1//EN"
    "http://www.w3.org/Graphics/SVG/1.1/DTD/svg11.dtd">

<svg viewBox="0 0 6 4" width="300" height="200" xmlns="http://www.w3.org/2000/svg" xmlns:xlink="http://www.w3.org/1999/xlink">
    <rect x="0" y="0" width="300" height="200" fill="#C1272D" />
    <g fill="#006233" stroke="#000000" stroke-width="0.01">
        <path d="M 3.0,1.0 L 3.5877852,2.8090172 L 2.0489435,1.6909828 L 3.9510565,1.6909832 L 2.4122145,2.8090167 ZM 3.0,1.292705 L 2.5842624,2.5722136 L 3.6726775,1.7814339 L 2.3273225,1.7814337 L 3.4157374,2.5722136 Z" stroke="none" />
        <g>
            <path d="M 3.0,1.0 L 2.4122148,2.8090172 L 2.5842626,2.5722136 L 3.0,1.292705 Z" stroke="none" />
            <path d="M 3.0,1.0 L 2.4122148,2.8090172 M 2.5842626,2.5722136 L 3.0,1.292705 " stroke-linecap="round" />
        </g>
        <g>
            <path d="M 2.0489435,1.690983 L 3.5877852,2.809017 L 3.4157376,2.5722136 L 2.3273225,1.7814338 Z" stroke="none" />
            <path d="M 2.0489435,1.690983 L 3.5877852,2.809017 M 3.4157376,2.5722136 L 2.3273225,1.7814338 " stroke-linecap="round" />
        </g>
        <g>
            <path d="M 2.4122148,2.8090172 L 3.9510565,1.6909828 L 3.6726775,1.7814338 L 2.5842626,2.5722136 Z" stroke="none" />
            <path d="M 2.4122148,2.8090172 L 3.9510565,1.6909828 M 3.6726775,1.7814338 L 2.5842626,2.5722136 " stroke-linecap="round" />
        </g>
        <g>
            <path d="M 3.5877852,2.809017 L 2.9999998,1.0 L 2.9999998,1.292705 L 3.4157376,2.5722136 Z" stroke="none" />
            <path d="M 3.5877852,2.809017 L 2.9999998,1.0 M 2.9999998,1.292705 L 3.4157376,2.5722136 " stroke-linecap="round" />
        </g>
        <g>
            <path d="M 3.9510565,1.6909828 L 2.0489435,1.6909832 L 2.3273225,1.781434 L 3.6726775,1.7814338 Z" stroke="none" />
            <path d="M 3.9510565,1.6909828 L 2.0489435,1.6909832 M 2.3273225,1.781434 L 3.6726775,1.7814338 " stroke-linecap="round" />
        </g>
        <g>
            <path stroke="none" d="M 3.0,1.0 L 2.7061074,1.9045085 L 2.7921312,1.9324594 L 3.0,1.292705 Z" />
            <path stroke-linecap="round" d="M 3.0,1.0 L 2.7061074,1.9045085 M 2.7921312,1.9324594 L 3.0,1.292705 " />
        </g>
    </g>
</svg>
