<?xml version="1.0" encoding="UTF-8"?>
<!DOCTYPE svg PUBLIC "-//W3C//DTD SVG 1.1//EN"
    "http://www.w3.org/Graphics/SVG/1.1/DTD/svg11.dtd">

<svg viewBox="0 0 840 600" width="420px" height="300px" xmlns="http://www.w3.org/2000/svg" xmlns:xlink="http://www.w3.org/1999/xlink">
    <rect x="0.0" y="0.0" width="840.0" height="600.0" stroke="none" fill="#244AA5" />
    <path stroke="none" stroke-width="0" fill="#D0A650" d="m 424.54,190.13 c 3.51,4.10 5.86,8.2 5.86,13.18 -2.95,1.45 -7.02,2.05 -9.38,4.69 14.65,-2.05 17.57,14.93 33.97,8.48 0.59,2.35 2.94,4.40 5.86,3.51 l 1.75,-4.67 c 6.43,-1.75 4.67,8.78 11.73,6.72 3.51,2.93 1.16,7.90 3.51,11.43 0,4.09 1.75,7.60 3.51,11.12 1.75,-2.03 2.91,-4.97 7.02,-4.09 2.91,3.21 5.27,6.14 5.86,9.66 -1.19,6.74 -2.94,12.59 4.08,16.11 v 2.05 c 4.70,2.05 15.24,-2.05 15.24,6.14 -0.59,2.93 2.91,0.29 4.10,2.05 2.91,-1.17 7.02,-0.57 10.54,-0.57 2.91,6.14 -3.51,10.54 -5.27,16.11 2.91,2.91 1.75,8.20 1.16,11.70 l -1.75,0.87 c 4.67,0.87 10.54,-0.56 14.65,2.07 l 7.62,2.91 c 3.51,-2.03 7.59,-2.35 12.29,-2.03 3.51,2.63 -1.19,7.02 1.75,9.06 4.11,0 7.62,0.59 8.18,4.11 l 0.59,1.16 c 2.91,-5.27 11.13,-1.75 14.65,-5.55 5.86,0 7.02,6.43 9.94,9.94 1.19,9.09 -9.94,13.20 -6.43,22.27 -2.35,4.39 -7.02,7.90 -10.54,12.01 1.16,0.59 0.56,2.03 0.56,2.91 -3.51,2.07 -0.56,8.22 -5.27,8.78 -0.56,3.82 -7.59,2.35 -5.27,6.46 4.70,6.14 -2.32,9.94 -2.32,15.53 -2.94,3.23 -8.81,-2.94 -8.81,3.23 -3.51,0.87 -7.02,-3.23 -9.34,0.28 -1.19,4.11 2.32,5.55 1.75,9.66 5.83,-0.59 7.59,5.27 9.94,8.78 l 5.86,5.86 c -5.86,4.67 -13.49,-0.59 -20.51,2.03 -1.75,-0.87 0,-3.2 -1.75,-4.07 -1.75,-2.07 -5.27,-2.07 -8.18,-2.63 0.56,2.63 -4.70,3.51 -2.35,6.71 0,0.87 1.16,3.51 -1.16,3.51 -4.70,1.47 -4.10,-4.07 -8.22,-2.03 -5.27,2.03 -1.16,9.94 -8.78,9.06 1.16,7.05 -11.70,11.73 -2.91,17.88 1.16,1.16 0.56,3.51 0.56,5.27 -5.27,4.70 -14.62,2.94 -20.48,1.19 -4.70,-1.19 -1.75,-7.05 -3.51,-10.25 -1.75,-2.94 -7.02,-4.98 -7.02,-9.09 -3.51,-1.44 -6.46,-2.35 -8.81,-5.27 -8.18,7.90 -18.16,15.53 -29.86,15.81 -5.27,2.63 -8.21,13.20 -16.40,8.81 -3.21,5.27 -12.89,0 -13.47,7.59 -3.81,1.47 -2.05,6.46 -4.39,8.78 -0.87,5.86 0,10.85 4.97,14.37 2.05,4.39 -4.39,4.39 -1.75,8.50 0.59,1.44 0,3.51 -0.87,4.10 -1.75,0.87 -2.33,1.75 -1.75,3.51 -1.45,0 -2.05,0.87 -3.21,2.03 -1.47,2.91 -6.14,4.39 -9.38,6.43 -3.21,0.87 -5.56,-1.44 -7.60,-3.51 -0.59,3.23 -3.23,4.98 -6.44,4.98 -4.69,0 -3.81,-4.11 -7.32,-5.86 1.45,-5.27 -3.23,-7.59 -1.75,-12.29 3.81,-2.91 10.24,-4.98 8.48,-11.13 -4.09,-4.95 -2.63,-12.29 -6.72,-18.16 -2.63,-2.32 -7.02,-5.83 -5.56,-11.42 3.81,-4.39 0,-9.66 -2.05,-14.33 -0.87,-3.82 -3.21,-7.34 -3.21,-11.73 -6.44,-3.79 -6.74,-13.77 -15.82,-14.65 -6.44,0 -7.60,-8.18 -14.05,-7.62 -0.59,-1.16 -2.05,-2.03 -3.23,-3.2 -4.67,3.2 -10.54,-0.87 -16.39,0.56 -3.81,-6.43 3.21,-15.21 -7.04,-19.04 v -4.07 c 1.17,0.56 1.75,-0.59 2.05,-1.19 0.58,-4.39 -7.32,-4.95 -4.09,-9.94 -1.75,-1.47 -3.81,-2.07 -2.63,-4.98 -4.40,-9.06 -17.58,-8.18 -20.51,-17.28 2.35,-2.03 2.35,-4.11 3.23,-5.86 -2.05,-3.51 -2.63,-7.31 -2.05,-11.10 2.05,-0.59 3.21,-3.23 4.39,-5.30 -2.63,-1.75 -5.85,-4.39 -8.78,-3.51 -5.27,-0.87 -9.08,-4.95 -13.77,-7.31 -1.17,-1.16 -0.57,-3.23 -0.57,-4.67 6.44,-2.07 -0.87,-11.15 7.02,-9.97 2.05,-2.63 6.44,-3.51 9.66,-5.56 3.23,-0.57 5.86,0.59 9.08,1.47 2.63,3.49 7.32,2.03 9.96,4.97 2.63,-0.59 5.86,-2.05 9.08,-0.59 0,-4.97 2.33,-7.90 5.86,-11.42 0.58,-2.03 3.79,-3.51 6.43,-4.67 4.98,1.16 10.84,1.16 14.37,-2.35 2.33,1.47 4.39,-1.45 7.02,-1.45 3.21,-0.59 5.85,0.28 8.20,1.75 0.28,-5.86 10.54,-0.87 12.59,-7.90 2.33,-4.69 -6.44,-6.44 -5.86,-10.55 -1.45,-4.69 2.05,-7.02 3.81,-10.24 2.05,-0.87 4.39,-2.05 7.02,-1.47 6.74,-2.33 1.47,-16.11 12.31,-11.12 0,1.45 -0.59,3.21 0.28,3.51 3.81,0 4.39,-4.39 7.04,-5.86 1.16,-4.09 -1.47,-9.08 2.03,-12.29 1.75,-0.29 3.23,-0.87 4.39,-2.35 0,-3.21 -1.75,-4.97 -4.39,-7.02 -0.87,1.46 -3.21,0.29 -4.68,0.87 0,-3.51 -2.04,-5.85 -2.63,-9.08 -1.75,-0.87 -2.63,-2.33 -2.03,-4.39 2.63,-2.63 0,-9.08 6.14,-7.62 2.33,-2.04 6.44,-0.58 8.78,-4.09 6.14,-3.51 14.35,-3.51 19.04,-9.96 2.05,0.29 4.39,-1.75 6.44,0 0.58,3.81 6.15,2.33 6.15,5" />
    <path d="M 217.0,128.8 L 225.0825,153.67538 L 251.23804,153.67538 L 230.07776,169.04922 L 238.16026,193.92462 L 217.0,178.55078 L 195.83972,193.92462 L 203.92224,169.04922 L 182.76196,153.67538 L 208.9175,153.67538 Z" fill="#FFFFFF" />
    <path d="M 295.7,100.0 L 303.7825,124.87539 L 329.93805,124.87539 L 308.77777,140.24922 L 316.8603,165.12462 L 295.7,149.75078 L 274.53973,165.1246 L 282.62225,140.24922 L 261.46198,124.87538 L 287.61752,124.87538 Z" fill="#FFFFFF" />
    <path d="M 378.0,85.7 L 386.0825,110.575386 L 412.23804,110.575386 L 391.07776,125.94922 L 399.16028,150.82462 L 378.0,135.45078 L 356.83972,150.82462 L 364.92224,125.94922 L 343.76196,110.57538 L 369.9175,110.57538 Z" fill="#FFFFFF" />
    <path d="M 462.0,85.7 L 470.0825,110.575386 L 496.23804,110.575386 L 475.07776,125.94922 L 483.16028,150.82462 L 462.0,135.45078 L 440.83972,150.82462 L 448.92224,125.94922 L 427.76196,110.57538 L 453.9175,110.57538 Z" fill="#FFFFFF" />
    <path d="M 544.3,100.0 L 552.3825,124.87539 L 578.538,124.87539 L 557.37775,140.24922 L 565.46027,165.12462 L 544.3,149.75078 L 523.1397,165.1246 L 531.2222,140.24922 L 510.06195,124.87538 L 536.21747,124.87538 Z" fill="#FFFFFF" />
    <path d="M 623.0,128.8 L 631.0825,153.67538 L 657.23804,153.67538 L 636.07776,169.04922 L 644.1603,193.92462 L 623.0,178.55078 L 601.8397,193.92462 L 609.92224,169.04922 L 588.76196,153.67538 L 614.9175,153.67538 Z" fill="#FFFFFF" />
</svg>
