<?xml version="1.0" encoding="UTF-8"?>
<!DOCTYPE svg PUBLIC "-//W3C//DTD SVG 1.1//EN"
    "http://www.w3.org/Graphics/SVG/1.1/DTD/svg11.dtd">

<svg viewBox="-1 -1 2 2" height="100px" width="100px" xmlns="http://www.w3.org/2000/svg" xmlns:xlink="http://www.w3.org/1999/xlink">
    <g fill="black" stroke="none" stroke-width="0">
        <path stroke-linejoin="round" d="M -0.75,-0.96 L -0.75,0.96 L 0.75,0.96 L 0.75,-0.96 ZM -0.75,-0.31999999999999995 L 0.75,-0.31999999999999995 M -0.75,0.31999999999999995 L 0.75,0.31999999999999995 " />
        <path fill="none" stroke-linecap="round" transform="translate(0.0 3.5e-2)" d="M -0.25,-0.71 A 7.0e-2,7.0e-2 0.0 0,0 -0.18,-0.64 L 0.18,-0.64 A 7.0e-2,7.0e-2 0.0 0,0 0.25,-0.71 " />
        <path fill="none" stroke-linecap="round" transform="translate(0.0 3.5e-2)" d="M -0.25,-7.0e-2 A 7.0e-2,7.0e-2 0.0 0,0 -0.18,0.0 L 0.18,0.0 A 7.0e-2,7.0e-2 0.0 0,0 0.25,-7.0e-2 " />
        <path fill="none" stroke-linecap="round" transform="translate(0.0 3.5e-2)" d="M -0.25,0.5700000000000001 A 7.0e-2,7.0e-2 0.0 0,0 -0.18,0.64 L 0.18,0.64 A 7.0e-2,7.0e-2 0.0 0,0 0.25,0.5700000000000001 " />
    </g>
</svg>
