<?xml version="1.0" encoding="UTF-8"?>
<!DOCTYPE svg PUBLIC "-//W3C//DTD SVG 1.1//EN"
    "http://www.w3.org/Graphics/SVG/1.1/DTD/svg11.dtd">

<svg viewBox="-1 -1 2 2" height="300px" width="300px" xmlns="http://www.w3.org/2000/svg" xmlns:xlink="http://www.w3.org/1999/xlink">
    <g fill="silver" stroke="black" stroke-width="0.03">
        <path stroke-linejoin="round" d="M 0.3,-0.54 L 0.3,-0.7 L -0.3,-0.7 L -0.3,-0.54 ZM -0.94,0.0 L -0.94,-0.34000003 A 0.2,0.2 0.0 0,1 -0.74,-0.54 L -0.46,-0.54 L -0.46,-0.79 A 7.0e-2,7.0e-2 0.0 0,1 -0.39000002,-0.86 L 0.39000002,-0.86 A 7.0e-2,7.0e-2 0.0 0,1 0.46,-0.79 L 0.46,-0.54 L 0.74,-0.54 A 0.2,0.2 0.0 0,1 0.94,-0.34000003 L 0.94,0.0 L 0.12,0.0 A 0.12,0.18 0.0 0,0 -0.12,0.0 Z" />
        <path stroke-linejoin="round" d="M -0.94,6.0e-2 L -0.94,0.6 A 0.2,0.2 0.0 0,0 -0.74,0.8 L 0.74,0.8 A 0.2,0.2 0.0 0,0 0.94,0.6 L 0.94,6.0e-2 L 0.12,6.0e-2 A 0.12,0.18 0.0 0,1 -0.12,6.0e-2 Z" />
        <ellipse cx="0.0" cy="3.0e-2" rx="7.0e-2" ry="0.135" />
    </g>
</svg>
