<?xml version="1.0" encoding="UTF-8"?>
<!DOCTYPE svg PUBLIC "-//W3C//DTD SVG 1.1//EN"
    "http://www.w3.org/Graphics/SVG/1.1/DTD/svg11.dtd">

<svg viewBox="-1 -1 2 2" height="100px" width="100px" xmlns="http://www.w3.org/2000/svg" xmlns:xlink="http://www.w3.org/1999/xlink">
    <g class="HaskellSvgIcons__pin" fill="black" stroke="none" stroke-width="0">
        <path stroke-linejoin="arcs" stroke-miterlimit="8" d="M -0.26,-0.95 A 0.125,0.125 0.0 1,0 -0.26,-0.7 L 0.26,-0.7 A 0.125,0.125 0.0 1,0 0.26,-0.95 L -0.26,-0.95 M -0.26,-0.7 L -0.26,-0.1 A 0.26,0.26 0.0 0,0 -0.52,0.16 L 0.52,0.16 A 0.26,0.26 0.0 0,0 0.26,-0.1 L 0.26,-0.7 M -8.0e-2,0.16 L -8.0e-2,0.6 L 0.0,1.03 L 8.0e-2,0.6 L 8.0e-2,0.16 " transform="rotate(45,0,0)" />
    </g>
</svg>
