<?xml version="1.0" encoding="UTF-8"?>
<!DOCTYPE svg PUBLIC "-//W3C//DTD SVG 1.1//EN"
    "http://www.w3.org/Graphics/SVG/1.1/DTD/svg11.dtd">

<svg viewBox="-1 -1 2 2" height="300px" width="300px" xmlns="http://www.w3.org/2000/svg" xmlns:xlink="http://www.w3.org/1999/xlink">
    <g fill="none" stroke="black" stroke-width="0.04">
        <circle x="0" y="0" r="0.5" />
        <path stroke-linecap="round" d="M 0.6,0.0 L 0.78,0.0 M 0.5849567473090942,0.13351256037378864 L 0.9359307956945506,0.2136200965980618 M 0.5405813207414515,0.26033024347053485 L 0.702755716963887,0.33842931651169533 M 0.46909888948081785,0.37409388111524006 L 0.7505582231693085,0.5985502097843841 M 0.37409388111524017,0.46909888948081785 L 0.4863220454498122,0.6098285563250633 M 0.2603302434705349,0.5405813207414515 L 0.4165283895528558,0.8649301131863224 M 0.13351256037378867,0.5849567473090942 L 0.17356632848592526,0.7604437715018224 M 3.6738190614671314e-17,0.6 L 5.87811049834741e-17,0.96 M -0.13351256037378859,0.5849567473090942 L -0.17356632848592518,0.7604437715018224 M -0.26033024347053485,0.5405813207414515 L -0.4165283895528557,0.8649301131863224 M -0.37409388111524006,0.4690988894808179 L -0.4863220454498121,0.6098285563250634 M -0.46909888948081785,0.37409388111524017 L -0.7505582231693085,0.5985502097843842 M -0.5405813207414514,0.2603302434705349 L -0.7027557169638868,0.33842931651169544 M -0.5849567473090942,0.1335125603737887 L -0.9359307956945506,0.21362009659806191 M -0.6,7.347638122934263e-17 L -0.78,9.551929559814543e-17 M -0.5849567473090942,-0.13351256037378856 L -0.9359307956945506,-0.2136200965980617 M -0.5405813207414515,-0.2603302434705348 L -0.702755716963887,-0.3384293165116953 M -0.4690988894808179,-0.37409388111524 L -0.7505582231693086,-0.598550209784384 M -0.3740938811152402,-0.4690988894808178 L -0.4863220454498123,-0.6098285563250632 M -0.26033024347053496,-0.5405813207414514 L -0.4165283895528559,-0.8649301131863223 M -0.13351256037378875,-0.5849567473090942 L -0.17356632848592538,-0.7604437715018224 M -1.1021457184401395e-16,-0.6 L -1.7634331495042233e-16,-0.96 M 0.13351256037378853,-0.5849567473090942 L 0.1735663284859251,-0.7604437715018224 M 0.26033024347053474,-0.5405813207414515 L 0.4165283895528556,-0.8649301131863224 M 0.37409388111524,-0.4690988894808179 L 0.48632204544981206,-0.6098285563250634 M 0.4690988894808178,-0.3740938811152402 L 0.7505582231693084,-0.5985502097843843 M 0.5405813207414514,-0.260330243470535 L 0.7027557169638868,-0.3384293165116955 M 0.5849567473090941,-0.13351256037378878 L 0.9359307956945505,-0.21362009659806205 M 0.6,-1.4695276245868526e-16 L 0.78,-1.9103859119629085e-16 M 0.5849567473090942,0.1335125603737885 L 0.9359307956945506,0.2136200965980616 " />
    </g>
</svg>
