<?xml version="1.0" encoding="UTF-8"?>
<!DOCTYPE svg PUBLIC "-//W3C//DTD SVG 1.1//EN"
    "http://www.w3.org/Graphics/SVG/1.1/DTD/svg11.dtd">

<svg viewBox="-1 -1 2 2" height="100px" width="100px" xmlns="http://www.w3.org/2000/svg" xmlns:xlink="http://www.w3.org/1999/xlink">
    <path fill-rule="evenodd" stroke-linejoin="round" d="M 1.0e-3,0.22999999999999998 A 0.22999999999999998,0.22999999999999998 0.0 1,0 0.0,0.22999999999999998 ZM 0.37,7.0e-2 A 0.37,0.37 0.0 0,1 0.3111269837220809,0.21213203435596423 L 0.5656854249492381,0.4666904755831214 A 0.73,0.73 0.0 0,0 0.73,7.0e-2 ZM 0.21213203435596426,0.3111269837220809 A 0.37,0.37 0.0 0,1 7.000000000000002e-2,0.37 L 7.000000000000006e-2,0.73 A 0.73,0.73 0.0 0,0 0.4666904755831215,0.565685424949238 ZM -6.999999999999999e-2,0.37 A 0.37,0.37 0.0 0,1 -0.21213203435596423,0.3111269837220809 L -0.4666904755831214,0.5656854249492381 A 0.73,0.73 0.0 0,0 -6.999999999999997e-2,0.73 ZM -0.3111269837220809,0.21213203435596426 A 0.37,0.37 0.0 0,1 -0.37,7.000000000000005e-2 L -0.73,7.00000000000001e-2 A 0.73,0.73 0.0 0,0 -0.565685424949238,0.4666904755831215 ZM -0.37,-6.999999999999997e-2 A 0.37,0.37 0.0 0,1 -0.311126983722081,-0.21213203435596423 L -0.5656854249492381,-0.4666904755831214 A 0.73,0.73 0.0 0,0 -0.7300000000000001,-6.999999999999992e-2 ZM -0.21213203435596434,-0.3111269837220809 A 0.37,0.37 0.0 0,1 -7.000000000000008e-2,-0.37 L -7.000000000000016e-2,-0.73 A 0.73,0.73 0.0 0,0 -0.4666904755831215,-0.565685424949238 ZM 6.999999999999994e-2,-0.37 A 0.37,0.37 0.0 0,1 0.21213203435596417,-0.311126983722081 L 0.46669047558312127,-0.5656854249492381 A 0.73,0.73 0.0 0,0 6.999999999999987e-2,-0.7300000000000001 ZM 0.31112698372208086,-0.21213203435596434 A 0.37,0.37 0.0 0,1 0.37,-7.000000000000009e-2 L 0.73,-7.00000000000002e-2 A 0.73,0.73 0.0 0,0 0.5656854249492379,-0.4666904755831215 ZM 0.8700000000000001,-7.0e-2 A 7.0e-2,7.0e-2 0.0 1,1 0.8700000000000001,7.0e-2 A 0.8700000000000001,0.8700000000000001 0.0 0,1 0.6646803743153548,0.565685424949238 A 7.0e-2,7.0e-2 0.0 1,1 0.5656854249492381,0.6646803743153546 A 0.8700000000000001,0.8700000000000001 0.0 0,1 7.000000000000006e-2,0.8700000000000001 A 7.0e-2,7.0e-2 0.0 1,1 -6.999999999999995e-2,0.8700000000000001 A 0.8700000000000001,0.8700000000000001 0.0 0,1 -0.565685424949238,0.6646803743153548 A 7.0e-2,7.0e-2 0.0 1,1 -0.6646803743153546,0.5656854249492381 A 0.8700000000000001,0.8700000000000001 0.0 0,1 -0.8700000000000001,7.00000000000001e-2 A 7.0e-2,7.0e-2 0.0 1,1 -0.8700000000000001,-6.999999999999991e-2 A 0.8700000000000001,0.8700000000000001 0.0 0,1 -0.6646803743153548,-0.565685424949238 A 7.0e-2,7.0e-2 0.0 1,1 -0.5656854249492381,-0.6646803743153546 A 0.8700000000000001,0.8700000000000001 0.0 0,1 -7.000000000000017e-2,-0.8700000000000001 A 7.0e-2,7.0e-2 0.0 1,1 6.999999999999984e-2,-0.8700000000000001 A 0.8700000000000001,0.8700000000000001 0.0 0,1 0.5656854249492379,-0.6646803743153548 A 7.0e-2,7.0e-2 0.0 1,1 0.6646803743153545,-0.5656854249492381 A 0.8700000000000001,0.8700000000000001 0.0 0,1 0.87,-7.000000000000021e-2 Z" fill="none" stroke="black" stroke-width="0.04" />
</svg>
