<?xml version="1.0" encoding="UTF-8"?>
<!DOCTYPE svg PUBLIC "-//W3C//DTD SVG 1.1//EN"
    "http://www.w3.org/Graphics/SVG/1.1/DTD/svg11.dtd">

<svg viewBox="-1 -1 2 2" height="100px" width="100px" xmlns="http://www.w3.org/2000/svg" xmlns:xlink="http://www.w3.org/1999/xlink">
    <path fill-rule="evenodd" d="M -0.75,0.0 A 0.93,0.93 0.0 0,1 0.53,0.0 A 0.93,0.93 0.0 0,1 -0.75,0.0 ZM -0.95,0.0 A 1.1300000000000001,1.1300000000000001 0.0 0,1 0.63,-0.1 A 0.93,0.93 0.0 0,0 0.7792893218813453,-0.5 L 0.9207106781186547,-0.5 A 1.1300000000000001,1.1300000000000001 0.0 0,1 0.73,0.0 A 1.1300000000000001,1.1300000000000001 0.0 0,1 0.9207106781186547,0.5 L 0.7792893218813453,0.5 A 0.93,0.93 0.0 0,0 0.63,0.1 A 1.1300000000000001,1.1300000000000001 0.0 0,1 -0.95,0.0 Z" fill="silver" stroke="black" stroke-width="0.03" />
</svg>
