<?xml version="1.0" encoding="UTF-8"?>
<!DOCTYPE svg PUBLIC "-//W3C//DTD SVG 1.1//EN"
    "http://www.w3.org/Graphics/SVG/1.1/DTD/svg11.dtd">

<svg viewBox="-1 -1 2 2" height="100px" width="100px" xmlns="http://www.w3.org/2000/svg" xmlns:xlink="http://www.w3.org/1999/xlink">
    <g fill="silver" stroke="black" stroke-width="0.03">
        <path fill-rule="evenodd" d="M -0.8200000000000001,0.0 A 0.93,0.93 0.0 0,1 0.56,0.0 A 0.93,0.93 0.0 0,1 -0.8200000000000001,0.0 ZM -0.96,0.0 A 1.07,1.07 0.0 0,1 0.63,-7.0e-2 A 0.93,0.93 0.0 0,0 0.8405025253169417,-0.5 L 0.9394974746830583,-0.5 A 1.07,1.07 0.0 0,1 0.7,0.0 A 1.07,1.07 0.0 0,1 0.9394974746830583,0.5 L 0.8405025253169417,0.5 A 0.93,0.93 0.0 0,0 0.63,7.0e-2 A 1.07,1.07 0.0 0,1 -0.96,0.0 Z" />
        <path fill="none" stroke="black" stroke-width="1.0e-3" d="M -1.0,-1.0 L -1.0,1.0 L 1.0,1.0 L 1.0,-1.0 ZM 0.0,-1.0 L 0.0,1.0 M -1.0,0.0 L 1.0,0.0 " />
    </g>
</svg>
