<?xml version="1.0" encoding="UTF-8"?>
<!DOCTYPE svg PUBLIC "-//W3C//DTD SVG 1.1//EN"
    "http://www.w3.org/Graphics/SVG/1.1/DTD/svg11.dtd">

<svg viewBox="-1 -1 2 2" height="100px" width="100px" xmlns="http://www.w3.org/2000/svg" xmlns:xlink="http://www.w3.org/1999/xlink">
    <g class="HaskellSvgIcons__starOfDavid" fill="black" stroke="none" stroke-width="0">
        <g class="HaskellSvgIcons__starPolygonOverlap">
            <path class="HaskellSvgIcons__starPolygonWithBorder" d="M 0.0,-0.9 L 0.7794228,0.45000005 L -0.7794229,0.4499999 L 1.57361e-7,-0.9 ZM 0.7794229,-0.44999996 L -7.86805e-8,0.9 L -0.7794229,-0.4499999 ZM 0.0,-0.7267949 L 1.2707686e-7,-0.7267949 L -0.6294229,0.3633974 L 0.62942284,0.36339748 ZM 0.6294229,-0.36339742 L -0.6294229,-0.3633974 L -6.353843e-8,0.7267949 Z" stroke="none" />
            <g>
                <path d="M 0.0,-0.9 L -0.7794228,0.45000005 L -0.62942284,0.36339748 L 0.0,-0.7267949 Z" stroke="none" />
                <path d="M 0.0,-0.9 L -0.7794228,0.45000005 M -0.62942284,0.36339748 L 0.0,-0.7267949 " stroke-linecap="round" />
            </g>
            <g>
                <path d="M -0.7794229,-0.44999996 L 7.86805e-8,0.9 L 6.353843e-8,0.7267949 L -0.6294229,-0.36339742 Z" stroke="none" />
                <path d="M -0.7794229,-0.44999996 L 7.86805e-8,0.9 M 6.353843e-8,0.7267949 L -0.6294229,-0.36339742 " stroke-linecap="round" />
            </g>
            <g>
                <path d="M -0.7794228,0.45000005 L 0.7794229,0.4499999 L 0.6294229,0.3633974 L -0.62942284,0.36339748 Z" stroke="none" />
                <path d="M -0.7794228,0.45000005 L 0.7794229,0.4499999 M 0.6294229,0.3633974 L -0.62942284,0.36339748 " stroke-linecap="round" />
            </g>
            <g>
                <path d="M 7.86805e-8,0.9 L 0.7794229,-0.4499999 L 0.6294229,-0.3633974 L 6.353843e-8,0.7267949 Z" stroke="none" />
                <path d="M 7.86805e-8,0.9 L 0.7794229,-0.4499999 M 0.6294229,-0.3633974 L 6.353843e-8,0.7267949 " stroke-linecap="round" />
            </g>
            <g>
                <path d="M 0.7794229,0.4499999 L -1.57361e-7,-0.9 L -1.2707686e-7,-0.7267949 L 0.6294229,0.3633974 Z" stroke="none" />
                <path d="M 0.7794229,0.4499999 L -1.57361e-7,-0.9 M -1.2707686e-7,-0.7267949 L 0.6294229,0.3633974 " stroke-linecap="round" />
            </g>
            <g>
                <path d="M 0.7794229,-0.4499999 L -0.77942306,-0.44999963 L -0.629423,-0.36339718 L 0.6294229,-0.3633974 Z" stroke="none" />
                <path d="M 0.7794229,-0.4499999 L -0.77942306,-0.44999963 M -0.629423,-0.36339718 L 0.6294229,-0.3633974 " stroke-linecap="round" />
            </g>
            <g>
                <path stroke="none" d="M 0.0,-0.9 L -0.38971144,-0.22499998 L -0.31471142,-0.1816987 L 0.0,-0.7267949 Z" />
                <path stroke-linecap="round" d="M 0.0,-0.9 L -0.38971144,-0.22499998 M -0.31471142,-0.1816987 L 0.0,-0.7267949 " />
            </g>
        </g>
    </g>
</svg>
