<?xml version="1.0" encoding="UTF-8"?>
<!DOCTYPE svg PUBLIC "-//W3C//DTD SVG 1.1//EN"
    "http://www.w3.org/Graphics/SVG/1.1/DTD/svg11.dtd">

<svg viewBox="-1 -1 2 2" height="100px" width="100px" xmlns="http://www.w3.org/2000/svg" xmlns:xlink="http://www.w3.org/1999/xlink">
    <g class="HaskellSvgIcons__xp" fill="none" stroke="black" stroke-width="0.04">
        <path d="M 7.0e-2,-0.96 L -0.14,-0.96 Q -7.0e-2,-0.96 -7.0e-2,-0.8899999999999999 L -7.0e-2,0.8899999999999999 Q -7.0e-2,0.96 -0.14,0.96 L 0.14,0.96 Q 7.0e-2,0.96 7.0e-2,0.8899999999999999 L 7.0e-2,-0.5599999999999999 L 0.24000000000000002,-0.5599999999999999 A 0.2,0.2 0.0 1,0 0.24000000000000002,-0.96 ZM 7.0e-2,-0.6299999999999999 C 0.41000000000000003,-0.5599999999999999 0.41000000000000003,-0.96 7.0e-2 -0.8899999999999999Z" fill-rule="evenodd" />
        <path d="M -7.0e-2,-7.0e-2 L -7.0e-2,-0.43 Q -7.0e-2,-0.5 -0.14,-0.5 L 0.14,-0.5 Q 7.0e-2,-0.5 7.0e-2,-0.43 L 7.0e-2,-7.0e-2 L 0.43,-7.0e-2 Q 0.5,-7.0e-2 0.5,-0.14 L 0.5,0.14 Q 0.5,7.0e-2 0.43,7.0e-2 L 7.0e-2,7.0e-2 L 7.0e-2,0.43 Q 7.0e-2,0.5 0.14,0.5 L -0.14,0.5 Q -7.0e-2,0.5 -7.0e-2,0.43 L -7.0e-2,7.0e-2 L -0.43,7.0e-2 Q -0.5,7.0e-2 -0.5,0.14 L -0.5,-0.14 Q -0.5,-7.0e-2 -0.43,-7.0e-2 Z" transform="rotate(45,0,0)" />
        <path d="M -0.85,0.15 L -0.7,-0.15 L -0.5499999999999999,0.15 M -0.7749999999999999,0.0 L -0.7,7.5e-2 L -0.625,0.0 " fill="none" stroke-linecap="round" stroke-linejoin="round" />
        <path d="M 0.5499999999999999,0.15 L 0.6399999999999999,0.15 A 0.15,0.15 0.0 1,1 0.76,0.15 L 0.85,0.15 " fill="none" stroke-linecap="round" stroke-linejoin="round" />
    </g>
</svg>
