<?xml version="1.0" encoding="UTF-8"?>
<!DOCTYPE svg PUBLIC "-//W3C//DTD SVG 1.1//EN"
    "http://www.w3.org/Graphics/SVG/1.1/DTD/svg11.dtd">

<svg viewBox="-1 -1 2 2" height="100px" width="100px" xmlns="http://www.w3.org/2000/svg" xmlns:xlink="http://www.w3.org/1999/xlink">
    <path d="M -0.8,-0.8 L -0.15,-0.8 L -0.15,-0.8 L 0.2,-0.8 A 0.25,0.25 0.0 1,1 0.2,0.0 L 0.30000000000000004,0.0 A 0.4,0.35 0.0 1,1 0.30000000000000004,0.8 L -0.15,0.8 L -0.8,0.8 L -0.8,0.5800000000000001 Q -0.5800000000000001,0.5800000000000001 -0.5800000000000001,0.16000000000000003 L -0.5800000000000001,-0.16000000000000003 Q -0.5800000000000001,-0.5800000000000001 -0.8,-0.5800000000000001 L -0.8,-0.8 ZM -0.15,-0.25 A 0.22,0.22 0.0 1,0 -0.15,-0.55 ZM -0.15,0.55 L 0.1,0.55 A 0.2,0.15 0.0 1,0 0.1,0.2 L -0.15,0.2 Z" fill="black" stroke="none" stroke-width="0" />
</svg>
