<?xml version="1.0" encoding="UTF-8"?>
<!DOCTYPE svg PUBLIC "-//W3C//DTD SVG 1.1//EN"
    "http://www.w3.org/Graphics/SVG/1.1/DTD/svg11.dtd">

<svg viewBox="-1 -1 2 2" height="300px" width="300px" xmlns="http://www.w3.org/2000/svg" xmlns:xlink="http://www.w3.org/1999/xlink">
    <path d="M -0.3,0.0 A 0.1,0.1 0.0 1,1 -0.5,0.0 A 0.5,0.5 0.0 1,1 0.5,0.0 C 0.5,0.32999999999999996 0.1,0.3 0.1 0.5L 0.1,0.75 A 0.1,0.1 0.0 1,1 -0.1,0.75 L -0.1,0.5 C -0.1,0.15 0.3,0.19999999999999998 0.3 0.0A 0.3,0.3 0.0 1,0 -0.3,0.0 ZM -1.0e-2,1.0 A 0.1,0.1 0.0 1,0 1.0e-2,1.0 Z" transform="translate(0.0 -0.35)" fill="silver" stroke="black" stroke-width="0.03" />
</svg>
