<?xml version="1.0" encoding="UTF-8"?>
<!DOCTYPE svg PUBLIC "-//W3C//DTD SVG 1.1//EN"
    "http://www.w3.org/Graphics/SVG/1.1/DTD/svg11.dtd">

<svg viewBox="-1 -1 2 2" height="100px" width="100px" xmlns="http://www.w3.org/2000/svg" xmlns:xlink="http://www.w3.org/1999/xlink">
    <g class="HaskellSvgIcons__preview" fill="none" stroke="black" stroke-width="0.04">
        <g>
            <path d="M -0.8,-0.88 A 8.0e-2,8.0e-2 0.0 1,0 -0.8,-0.7200000000000001 L 0.0,-0.7200000000000001 A 8.0e-2,8.0e-2 0.0 1,0 0.0,-0.88 Z" />
            <path d="M -0.8,-0.48000000000000004 A 8.0e-2,8.0e-2 0.0 1,0 -0.8,-0.32 L 0.0,-0.32 A 8.0e-2,8.0e-2 0.0 1,0 0.0,-0.48000000000000004 Z" />
            <path d="M -0.8,-8.0e-2 A 8.0e-2,8.0e-2 0.0 1,0 -0.8,8.0e-2 L 0.0,8.0e-2 A 8.0e-2,8.0e-2 0.0 1,0 0.0,-8.0e-2 Z" />
            <path d="M -0.8,0.32 A 8.0e-2,8.0e-2 0.0 1,0 -0.8,0.48000000000000004 L 0.0,0.48000000000000004 A 8.0e-2,8.0e-2 0.0 1,0 0.0,0.32 Z" />
            <path d="M -0.8,0.7200000000000001 A 8.0e-2,8.0e-2 0.0 1,0 -0.8,0.88 L 0.0,0.88 A 8.0e-2,8.0e-2 0.0 1,0 0.0,0.7200000000000001 Z" />
        </g>
        <path stroke-linejoin="round" transform="translate(0.1 0.0)" d="M 0.2,-0.88 L 0.8,-0.88 L 0.8,0.88 L 0.2,0.88 Z" />
    </g>
</svg>
