<?xml version="1.0" encoding="UTF-8"?>
<!DOCTYPE svg PUBLIC "-//W3C//DTD SVG 1.1//EN"
    "http://www.w3.org/Graphics/SVG/1.1/DTD/svg11.dtd">

<svg viewBox="-3 -1 6 2" width="300px" height="100px" xmlns="http://www.w3.org/2000/svg" xmlns:xlink="http://www.w3.org/1999/xlink">
    <g stroke-width="0.03">
        <path class="HaskellSvgIcons__moonHalf" stroke-linejoin="round" d="M 0.72,-0.7 A 0.92,0.92 0.0 1,0 0.72,0.7 A 0.71,0.71 0.0 1,1 0.72,-0.7 Z" fill="silver" stroke="gray" transform="translate(-2 0)rotate(-30,0,0)scale(0.7 0.7)" />
        <g class="HaskellSvgIcons__sun" fill="yellow" stroke="orange" transform="translate(2 0)">
            <circle x="0" y="0" r="0.5" />
            <path stroke-linecap="round" d="M 0.6,0.0 L 0.78,0.0 M 0.5756957841686984,0.1690395341048578 L 0.9211132546699174,0.2704632545677725 M 0.5047521196987087,0.32438449047335854 L 0.6561777556083214,0.4216998376153661 M 0.39291644036717105,0.45344974461255494 L 0.6286663045874736,0.7255195913800879 M 0.24924900780113185,0.545779197212711 L 0.3240237101414714,0.7095129563765243 M 8.538890296397107e-2,0.5938928651285595 L 0.1366222447423537,0.9502285842056953 M -8.5388902963971e-2,0.5938928651285597 L -0.1110055738531623,0.7720607246671276 M -0.2492490078011318,0.5457791972127111 L -0.39879841248181086,0.8732467155403377 M -0.392916440367171,0.45344974461255494 L -0.5107913724773223,0.5894846679963215 M -0.5047521196987086,0.32438449047335866 L -0.8076033915179338,0.5190151847573738 M -0.5756957841686984,0.1690395341048578 L -0.748404519419308,0.21975139433631516 M -0.6,7.347880794884119e-17 L -0.96,1.175660927181459e-16 M -0.5756957841686985,-0.16903953410485764 L -0.7484045194193081,-0.21975139433631494 M -0.5047521196987088,-0.3243844904733583 L -0.8076033915179341,-0.5190151847573733 M -0.3929164403671711,-0.4534497446125549 L -0.5107913724773225,-0.5894846679963214 M -0.24924900780113182,-0.5457791972127111 L -0.3987984124818109,-0.8732467155403377 M -8.538890296397113e-2,-0.5938928651285595 L -0.11100557385316248,-0.7720607246671275 M 8.538890296397092e-2,-0.5938928651285597 L 0.13662224474235346,-0.9502285842056954 M 0.24924900780113163,-0.5457791972127111 L 0.32402371014147113,-0.7095129563765245 M 0.3929164403671707,-0.4534497446125552 L 0.6286663045874732,-0.7255195913800884 M 0.5047521196987087,-0.32438449047335843 L 0.6561777556083214,-0.421699837615366 M 0.5756957841686984,-0.16903953410485786 L 0.9211132546699174,-0.2704632545677726 M 0.6,-1.4695761589768238e-16 L 0.78,-1.910449006669871e-16 M 0.5756957841686985,0.16903953410485756 L 0.9211132546699176,0.2704632545677721 " />
        </g>
        <path class="HaskellSvgIcons__starPolygonFirstSpecies" d="M 0.0,-0.5 L 0.2938926,0.40450853 L -0.47552824,-0.15450856 L 0.47552827,-0.15450849 L -0.29389268,0.40450847 Z" fill="sandybrown" stroke="crimson" />
    </g>
</svg>
