<?xml version="1.0" encoding="UTF-8"?>
<!DOCTYPE svg PUBLIC "-//W3C//DTD SVG 1.1//EN"
    "http://www.w3.org/Graphics/SVG/1.1/DTD/svg11.dtd">

<svg viewBox="0 0 50 30" width="250px" height="150px" xmlns="http://www.w3.org/2000/svg" xmlns:xlink="http://www.w3.org/1999/xlink">
    <rect x="0.0" y="0.0" width="50.0" height="30.0" stroke="none" fill="rgb(1,33,105)" />
    <path stroke-width="6.0" stroke="white" fill="none" d="M 0,0 L 50.0,30.0 M 0.0,30.0 L 50.0,0.0 " />
    <path stroke="none" fill="rgb(200,16,46)" d="M 0,0 L 0.0,2.3323808 L 21.1127,15.0 L 25.0,15.0 ZM 0.0,30.0 L 3.887301,30.0 L 25.0,17.33238 L 25.0,15.0 Z" />
    <path stroke="none" fill="rgb(200,16,46)" d="M 0,0 L 0.0,2.3323808 L 21.1127,15.0 L 25.0,15.0 ZM 0.0,30.0 L 3.887301,30.0 L 25.0,17.33238 L 25.0,15.0 Z" transform="rotate(180.0,25.0,15.0)" />
    <path stroke-width="6.0" stroke="rgb(200,16,46)" fill="none" d="M 0.0,15.0 L 50.0,15.0 M 25.0,0.0 L 25.0,30.0 " />
    <path stroke-width="2.0" stroke="white" fill="none" d="M 0.0,19.0 L 21.0,19.0 L 21.0,30.0 M 29.0,30.0 L 29.0,19.0 L 50.0,19.0 M 50.0,11.0 L 29.0,11.0 L 29.0,0.0 M 21.0,0.0 L 21.0,11.0 L 0.0,11.0 " />
</svg>
