<?xml version="1.0" encoding="UTF-8"?>
<!DOCTYPE svg PUBLIC "-//W3C//DTD SVG 1.1//EN"
    "http://www.w3.org/Graphics/SVG/1.1/DTD/svg11.dtd">

<svg viewBox="-1 -1 2 2" height="100px" width="100px" xmlns="http://www.w3.org/2000/svg" xmlns:xlink="http://www.w3.org/1999/xlink">
    <g fill="black" stroke="none" stroke-width="0">
        <path d="M 0.26787840265556284,-0.6467156727579007 A 8.0e-2,8.0e-2 0.0 1,1 0.3291077518339772,-0.7945363979597065 A 0.86,0.86 0.0 1,1 -0.3291077518339772,-0.7945363979597065 A 8.0e-2,8.0e-2 0.0 1,1 -0.26787840265556284,-0.6467156727579007 A 0.7,0.7 0.0 1,0 0.26787840265556284,-0.6467156727579007 Z" transform="translate(0.0 0.1)" />
        <path d="M 8.0e-2,-0.4 A 8.0e-2,8.0e-2 0.0 1,0 -8.0e-2,-0.4 L -8.0e-2,0.4 A 8.0e-2,8.0e-2 0.0 1,0 8.0e-2,0.4 Z" transform="translate(0.0 -0.42)" />
    </g>
</svg>
