<?xml version="1.0" encoding="UTF-8"?>
<!DOCTYPE svg PUBLIC "-//W3C//DTD SVG 1.1//EN"
    "http://www.w3.org/Graphics/SVG/1.1/DTD/svg11.dtd">

<svg viewBox="-1 -1 2 2" height="100px" width="100px" xmlns="http://www.w3.org/2000/svg" xmlns:xlink="http://www.w3.org/1999/xlink">
    <g fill="black" stroke="none" stroke-width="0">
        <path d="M 0.0,-0.9 L -0.8400000000000001,-0.9 A 6.0e-2,6.0e-2 0.0 0,0 -0.9,-0.8400000000000001 L -0.9,0.8400000000000001 A 6.0e-2,6.0e-2 0.0 0,0 -0.8400000000000001,0.9 L 0.8400000000000001,0.9 A 6.0e-2,6.0e-2 0.0 0,0 0.9,0.8400000000000001 L 0.9,-0.72 L 0.72,-0.9 ZM -0.59999996,-9.9999994e-2 A 5.0e-2,5.0e-2 0.0 0,0 -0.65,-4.9999993e-2 L -0.65,0.74999994 A 5.0e-2,5.0e-2 0.0 0,0 -0.59999996,0.79999995 L 0.59999996,0.79999995 A 5.0e-2,5.0e-2 0.0 0,0 0.65,0.74999994 L 0.65,-4.9999993e-2 A 5.0e-2,5.0e-2 0.0 0,0 0.59999996,-9.9999994e-2 ZM -0.45,-0.84000003 A 5.0e-2,5.0e-2 0.0 0,0 -0.5,-0.79 L -0.5,-0.31000003 A 5.0e-2,5.0e-2 0.0 0,0 -0.45,-0.26000002 L 0.45,-0.26000002 A 5.0e-2,5.0e-2 0.0 0,0 0.5,-0.31000003 L 0.5,-0.79 A 5.0e-2,5.0e-2 0.0 0,0 0.45,-0.84000003 ZM 0.11,-0.77000004 A 1.0e-2,1.0e-2 0.0 0,0 0.1,-0.76000005 L 0.1,-0.32 A 1.0e-2,1.0e-2 0.0 0,0 0.11,-0.31 L 0.29000002,-0.31 A 1.0e-2,1.0e-2 0.0 0,0 0.3,-0.32 L 0.3,-0.76000005 A 1.0e-2,1.0e-2 0.0 0,0 0.29000002,-0.77000004 Z" fill-rule="evenodd" />
        <g transform="translate(0.0 0.4)scale(0.5 0.5)">
            <path stroke-linejoin="round" d="M -0.1,-0.1 L -0.5,-0.1 A 0.1,0.1 0.0 1,0 -0.5,0.1 L 0.1,0.1 L 0.1,-1.3 A 0.1,0.1 0.0 1,0 -0.1,-1.3 Z" transform="translate(-0.3 0.3)rotate(45,0,0)" />
        </g>
    </g>
</svg>
